%TF.GenerationSoftware,KiCad,Pcbnew,7.0.1-0*%
%TF.CreationDate,2024-10-14T15:01:22+02:00*%
%TF.ProjectId,SerialControllerBoard,53657269-616c-4436-9f6e-74726f6c6c65,rev?*%
%TF.SameCoordinates,Original*%
%TF.FileFunction,Paste,Top*%
%TF.FilePolarity,Positive*%
%FSLAX46Y46*%
G04 Gerber Fmt 4.6, Leading zero omitted, Abs format (unit mm)*
G04 Created by KiCad (PCBNEW 7.0.1-0) date 2024-10-14 15:01:22*
%MOMM*%
%LPD*%
G01*
G04 APERTURE LIST*
G04 Aperture macros list*
%AMRoundRect*
0 Rectangle with rounded corners*
0 $1 Rounding radius*
0 $2 $3 $4 $5 $6 $7 $8 $9 X,Y pos of 4 corners*
0 Add a 4 corners polygon primitive as box body*
4,1,4,$2,$3,$4,$5,$6,$7,$8,$9,$2,$3,0*
0 Add four circle primitives for the rounded corners*
1,1,$1+$1,$2,$3*
1,1,$1+$1,$4,$5*
1,1,$1+$1,$6,$7*
1,1,$1+$1,$8,$9*
0 Add four rect primitives between the rounded corners*
20,1,$1+$1,$2,$3,$4,$5,0*
20,1,$1+$1,$4,$5,$6,$7,0*
20,1,$1+$1,$6,$7,$8,$9,0*
20,1,$1+$1,$8,$9,$2,$3,0*%
G04 Aperture macros list end*
%ADD10RoundRect,0.250000X-0.450000X0.350000X-0.450000X-0.350000X0.450000X-0.350000X0.450000X0.350000X0*%
%ADD11RoundRect,0.250000X0.350000X0.450000X-0.350000X0.450000X-0.350000X-0.450000X0.350000X-0.450000X0*%
%ADD12RoundRect,0.250000X0.350000X-0.850000X0.350000X0.850000X-0.350000X0.850000X-0.350000X-0.850000X0*%
%ADD13RoundRect,0.250000X1.125000X-1.275000X1.125000X1.275000X-1.125000X1.275000X-1.125000X-1.275000X0*%
%ADD14RoundRect,0.250000X0.450000X-0.350000X0.450000X0.350000X-0.450000X0.350000X-0.450000X-0.350000X0*%
G04 APERTURE END LIST*
D10*
%TO.C,R2*%
X137000000Y-85000000D03*
X137000000Y-87000000D03*
%TD*%
D11*
%TO.C,R10*%
X155000000Y-57465000D03*
X153000000Y-57465000D03*
%TD*%
%TO.C,R7*%
X140250000Y-59000000D03*
X138250000Y-59000000D03*
%TD*%
%TO.C,R5*%
X132750000Y-55340000D03*
X130750000Y-55340000D03*
%TD*%
D12*
%TO.C,Q3*%
X129750000Y-87725000D03*
D13*
X130505000Y-83100000D03*
X133555000Y-83100000D03*
X130505000Y-79750000D03*
X133555000Y-79750000D03*
D12*
X134310000Y-87725000D03*
%TD*%
D11*
%TO.C,R8*%
X162500000Y-59000000D03*
X160500000Y-59000000D03*
%TD*%
%TO.C,R3*%
X132750000Y-53215000D03*
X130750000Y-53215000D03*
%TD*%
D12*
%TO.C,Q4*%
X147220000Y-87725000D03*
D13*
X147975000Y-83100000D03*
X151025000Y-83100000D03*
X147975000Y-79750000D03*
X151025000Y-79750000D03*
D12*
X151780000Y-87725000D03*
%TD*%
D11*
%TO.C,R4*%
X155000000Y-53215000D03*
X153000000Y-53215000D03*
%TD*%
D14*
%TO.C,R1*%
X137000000Y-83000000D03*
X137000000Y-81000000D03*
%TD*%
D12*
%TO.C,Q2*%
X139720000Y-87725000D03*
D13*
X140475000Y-83100000D03*
X143525000Y-83100000D03*
X140475000Y-79750000D03*
X143525000Y-79750000D03*
D12*
X144280000Y-87725000D03*
%TD*%
D11*
%TO.C,R6*%
X155000000Y-55340000D03*
X153000000Y-55340000D03*
%TD*%
%TO.C,R9*%
X132750000Y-57465000D03*
X130750000Y-57465000D03*
%TD*%
D12*
%TO.C,Q1*%
X122220000Y-87725000D03*
D13*
X122975000Y-83100000D03*
X126025000Y-83100000D03*
X122975000Y-79750000D03*
X126025000Y-79750000D03*
D12*
X126780000Y-87725000D03*
%TD*%
M02*
