%TF.GenerationSoftware,KiCad,Pcbnew,7.0.1-0*%
%TF.CreationDate,2024-10-14T15:01:23+02:00*%
%TF.ProjectId,SerialControllerBoard,53657269-616c-4436-9f6e-74726f6c6c65,rev?*%
%TF.SameCoordinates,Original*%
%TF.FileFunction,Soldermask,Bot*%
%TF.FilePolarity,Negative*%
%FSLAX46Y46*%
G04 Gerber Fmt 4.6, Leading zero omitted, Abs format (unit mm)*
G04 Created by KiCad (PCBNEW 7.0.1-0) date 2024-10-14 15:01:23*
%MOMM*%
%LPD*%
G01*
G04 APERTURE LIST*
G04 Aperture macros list*
%AMRoundRect*
0 Rectangle with rounded corners*
0 $1 Rounding radius*
0 $2 $3 $4 $5 $6 $7 $8 $9 X,Y pos of 4 corners*
0 Add a 4 corners polygon primitive as box body*
4,1,4,$2,$3,$4,$5,$6,$7,$8,$9,$2,$3,0*
0 Add four circle primitives for the rounded corners*
1,1,$1+$1,$2,$3*
1,1,$1+$1,$4,$5*
1,1,$1+$1,$6,$7*
1,1,$1+$1,$8,$9*
0 Add four rect primitives between the rounded corners*
20,1,$1+$1,$2,$3,$4,$5,0*
20,1,$1+$1,$4,$5,$6,$7,0*
20,1,$1+$1,$6,$7,$8,$9,0*
20,1,$1+$1,$8,$9,$2,$3,0*%
G04 Aperture macros list end*
%ADD10RoundRect,0.250000X-0.600000X-0.725000X0.600000X-0.725000X0.600000X0.725000X-0.600000X0.725000X0*%
%ADD11O,1.700000X1.950000*%
%ADD12C,5.600000*%
%ADD13R,1.700000X1.700000*%
%ADD14O,1.700000X1.700000*%
%ADD15RoundRect,0.250000X0.725000X-0.600000X0.725000X0.600000X-0.725000X0.600000X-0.725000X-0.600000X0*%
%ADD16O,1.950000X1.700000*%
%ADD17RoundRect,0.250000X-0.750000X0.600000X-0.750000X-0.600000X0.750000X-0.600000X0.750000X0.600000X0*%
%ADD18O,2.000000X1.700000*%
%ADD19R,1.600000X1.600000*%
%ADD20O,1.600000X1.600000*%
%ADD21RoundRect,0.250000X0.600000X0.750000X-0.600000X0.750000X-0.600000X-0.750000X0.600000X-0.750000X0*%
%ADD22O,1.700000X2.000000*%
G04 APERTURE END LIST*
D10*
%TO.C,J10*%
X131320000Y-43000000D03*
D11*
X133820000Y-43000000D03*
X136320000Y-43000000D03*
X138820000Y-43000000D03*
%TD*%
D12*
%TO.C,H1*%
X123500000Y-43500000D03*
%TD*%
D13*
%TO.C,J8*%
X122975000Y-56615000D03*
D14*
X122975000Y-54075000D03*
X125515000Y-56615000D03*
X125515000Y-54075000D03*
X128055000Y-56615000D03*
X128055000Y-54075000D03*
%TD*%
D15*
%TO.C,J5*%
X123725000Y-71500000D03*
D16*
X123725000Y-69000000D03*
X123725000Y-66500000D03*
%TD*%
D12*
%TO.C,H2*%
X161500000Y-43500000D03*
%TD*%
D10*
%TO.C,J11*%
X146150000Y-43000000D03*
D11*
X148650000Y-43000000D03*
X151150000Y-43000000D03*
X153650000Y-43000000D03*
%TD*%
D17*
%TO.C,J6*%
X161250000Y-67750000D03*
D18*
X161250000Y-70250000D03*
%TD*%
D15*
%TO.C,J4*%
X131000000Y-71500000D03*
D16*
X131000000Y-69000000D03*
X131000000Y-66500000D03*
%TD*%
D19*
%TO.C,A1*%
X124800000Y-91240000D03*
D20*
X127340000Y-91240000D03*
X129880000Y-91240000D03*
X132420000Y-91240000D03*
X134960000Y-91240000D03*
X137500000Y-91240000D03*
X140040000Y-91240000D03*
X142580000Y-91240000D03*
X145120000Y-91240000D03*
X147660000Y-91240000D03*
X150200000Y-91240000D03*
X152740000Y-91240000D03*
X155280000Y-91240000D03*
X157820000Y-91240000D03*
X160360000Y-91240000D03*
X160360000Y-76000000D03*
X157820000Y-76000000D03*
X155280000Y-76000000D03*
X152740000Y-76000000D03*
X150200000Y-76000000D03*
X147660000Y-76000000D03*
X145120000Y-76000000D03*
X142580000Y-76000000D03*
X140040000Y-76000000D03*
X137500000Y-76000000D03*
X134960000Y-76000000D03*
X132420000Y-76000000D03*
X129880000Y-76000000D03*
X127340000Y-76000000D03*
X124800000Y-76000000D03*
%TD*%
D12*
%TO.C,H4*%
X161500000Y-96500000D03*
%TD*%
D19*
%TO.C,A2*%
X140250000Y-49000000D03*
D20*
X137710000Y-49000000D03*
X135170000Y-49000000D03*
X132630000Y-49000000D03*
X130090000Y-49000000D03*
X127550000Y-49000000D03*
X125010000Y-49000000D03*
X122470000Y-49000000D03*
X122470000Y-61700000D03*
X125010000Y-61700000D03*
X127550000Y-61700000D03*
X130090000Y-61700000D03*
X132630000Y-61700000D03*
X135170000Y-61700000D03*
X137710000Y-61700000D03*
X140250000Y-61700000D03*
%TD*%
D17*
%TO.C,J7*%
X154000000Y-67750000D03*
D18*
X154000000Y-70250000D03*
%TD*%
D12*
%TO.C,H3*%
X123500000Y-96500000D03*
%TD*%
D21*
%TO.C,J1*%
X151750000Y-97025000D03*
D22*
X149250000Y-97025000D03*
%TD*%
D15*
%TO.C,J2*%
X145500000Y-71500000D03*
D16*
X145500000Y-69000000D03*
X145500000Y-66500000D03*
%TD*%
D13*
%TO.C,J9*%
X145225000Y-56615000D03*
D14*
X145225000Y-54075000D03*
X147765000Y-56615000D03*
X147765000Y-54075000D03*
X150305000Y-56615000D03*
X150305000Y-54075000D03*
%TD*%
D15*
%TO.C,J3*%
X138250000Y-71500000D03*
D16*
X138250000Y-69000000D03*
X138250000Y-66500000D03*
%TD*%
D19*
%TO.C,A3*%
X162500000Y-49000000D03*
D20*
X159960000Y-49000000D03*
X157420000Y-49000000D03*
X154880000Y-49000000D03*
X152340000Y-49000000D03*
X149800000Y-49000000D03*
X147260000Y-49000000D03*
X144720000Y-49000000D03*
X144720000Y-61700000D03*
X147260000Y-61700000D03*
X149800000Y-61700000D03*
X152340000Y-61700000D03*
X154880000Y-61700000D03*
X157420000Y-61700000D03*
X159960000Y-61700000D03*
X162500000Y-61700000D03*
%TD*%
M02*
