%TF.GenerationSoftware,KiCad,Pcbnew,7.0.1-0*%
%TF.CreationDate,2024-10-14T15:01:22+02:00*%
%TF.ProjectId,SerialControllerBoard,53657269-616c-4436-9f6e-74726f6c6c65,rev?*%
%TF.SameCoordinates,Original*%
%TF.FileFunction,Copper,L1,Top*%
%TF.FilePolarity,Positive*%
%FSLAX46Y46*%
G04 Gerber Fmt 4.6, Leading zero omitted, Abs format (unit mm)*
G04 Created by KiCad (PCBNEW 7.0.1-0) date 2024-10-14 15:01:22*
%MOMM*%
%LPD*%
G01*
G04 APERTURE LIST*
G04 Aperture macros list*
%AMRoundRect*
0 Rectangle with rounded corners*
0 $1 Rounding radius*
0 $2 $3 $4 $5 $6 $7 $8 $9 X,Y pos of 4 corners*
0 Add a 4 corners polygon primitive as box body*
4,1,4,$2,$3,$4,$5,$6,$7,$8,$9,$2,$3,0*
0 Add four circle primitives for the rounded corners*
1,1,$1+$1,$2,$3*
1,1,$1+$1,$4,$5*
1,1,$1+$1,$6,$7*
1,1,$1+$1,$8,$9*
0 Add four rect primitives between the rounded corners*
20,1,$1+$1,$2,$3,$4,$5,0*
20,1,$1+$1,$4,$5,$6,$7,0*
20,1,$1+$1,$6,$7,$8,$9,0*
20,1,$1+$1,$8,$9,$2,$3,0*%
G04 Aperture macros list end*
%TA.AperFunction,ComponentPad*%
%ADD10RoundRect,0.250000X-0.600000X-0.725000X0.600000X-0.725000X0.600000X0.725000X-0.600000X0.725000X0*%
%TD*%
%TA.AperFunction,ComponentPad*%
%ADD11O,1.700000X1.950000*%
%TD*%
%TA.AperFunction,ComponentPad*%
%ADD12C,5.600000*%
%TD*%
%TA.AperFunction,ComponentPad*%
%ADD13R,1.700000X1.700000*%
%TD*%
%TA.AperFunction,ComponentPad*%
%ADD14O,1.700000X1.700000*%
%TD*%
%TA.AperFunction,ComponentPad*%
%ADD15RoundRect,0.250000X0.725000X-0.600000X0.725000X0.600000X-0.725000X0.600000X-0.725000X-0.600000X0*%
%TD*%
%TA.AperFunction,ComponentPad*%
%ADD16O,1.950000X1.700000*%
%TD*%
%TA.AperFunction,ComponentPad*%
%ADD17RoundRect,0.250000X-0.750000X0.600000X-0.750000X-0.600000X0.750000X-0.600000X0.750000X0.600000X0*%
%TD*%
%TA.AperFunction,ComponentPad*%
%ADD18O,2.000000X1.700000*%
%TD*%
%TA.AperFunction,ComponentPad*%
%ADD19R,1.600000X1.600000*%
%TD*%
%TA.AperFunction,ComponentPad*%
%ADD20O,1.600000X1.600000*%
%TD*%
%TA.AperFunction,SMDPad,CuDef*%
%ADD21RoundRect,0.250000X-0.450000X0.350000X-0.450000X-0.350000X0.450000X-0.350000X0.450000X0.350000X0*%
%TD*%
%TA.AperFunction,SMDPad,CuDef*%
%ADD22RoundRect,0.250000X0.350000X0.450000X-0.350000X0.450000X-0.350000X-0.450000X0.350000X-0.450000X0*%
%TD*%
%TA.AperFunction,SMDPad,CuDef*%
%ADD23RoundRect,0.250000X0.350000X-0.850000X0.350000X0.850000X-0.350000X0.850000X-0.350000X-0.850000X0*%
%TD*%
%TA.AperFunction,SMDPad,CuDef*%
%ADD24RoundRect,0.250000X1.125000X-1.275000X1.125000X1.275000X-1.125000X1.275000X-1.125000X-1.275000X0*%
%TD*%
%TA.AperFunction,SMDPad,CuDef*%
%ADD25RoundRect,0.249997X2.650003X-2.950003X2.650003X2.950003X-2.650003X2.950003X-2.650003X-2.950003X0*%
%TD*%
%TA.AperFunction,SMDPad,CuDef*%
%ADD26RoundRect,0.250000X0.450000X-0.350000X0.450000X0.350000X-0.450000X0.350000X-0.450000X-0.350000X0*%
%TD*%
%TA.AperFunction,ComponentPad*%
%ADD27RoundRect,0.250000X0.600000X0.750000X-0.600000X0.750000X-0.600000X-0.750000X0.600000X-0.750000X0*%
%TD*%
%TA.AperFunction,ComponentPad*%
%ADD28O,1.700000X2.000000*%
%TD*%
%TA.AperFunction,ViaPad*%
%ADD29C,0.800000*%
%TD*%
%TA.AperFunction,Conductor*%
%ADD30C,0.250000*%
%TD*%
%TA.AperFunction,Conductor*%
%ADD31C,1.000000*%
%TD*%
G04 APERTURE END LIST*
D10*
%TO.P,J10,1,Pin_1*%
%TO.N,Net-(A2-2B)*%
X131320000Y-43000000D03*
D11*
%TO.P,J10,2,Pin_2*%
%TO.N,Net-(A2-2A)*%
X133820000Y-43000000D03*
%TO.P,J10,3,Pin_3*%
%TO.N,Net-(A2-1A)*%
X136320000Y-43000000D03*
%TO.P,J10,4,Pin_4*%
%TO.N,Net-(A2-1B)*%
X138820000Y-43000000D03*
%TD*%
D12*
%TO.P,H1,1*%
%TO.N,N/C*%
X123500000Y-43500000D03*
%TD*%
D13*
%TO.P,J8,1,Pin_1*%
%TO.N,+5V*%
X122975000Y-56615000D03*
D14*
%TO.P,J8,2,Pin_2*%
%TO.N,Net-(A2-MS1)*%
X122975000Y-54075000D03*
%TO.P,J8,3,Pin_3*%
%TO.N,+5V*%
X125515000Y-56615000D03*
%TO.P,J8,4,Pin_4*%
%TO.N,Net-(A2-MS2)*%
X125515000Y-54075000D03*
%TO.P,J8,5,Pin_5*%
%TO.N,+5V*%
X128055000Y-56615000D03*
%TO.P,J8,6,Pin_6*%
%TO.N,Net-(A2-MS3)*%
X128055000Y-54075000D03*
%TD*%
D15*
%TO.P,J5,1,Pin_1*%
%TO.N,GND*%
X123725000Y-71500000D03*
D16*
%TO.P,J5,2,Pin_2*%
%TO.N,+5V*%
X123725000Y-69000000D03*
%TO.P,J5,3,Pin_3*%
%TO.N,mag-sensor*%
X123725000Y-66500000D03*
%TD*%
D12*
%TO.P,H2,1*%
%TO.N,N/C*%
X161500000Y-43500000D03*
%TD*%
D10*
%TO.P,J11,1,Pin_1*%
%TO.N,Net-(A3-2B)*%
X146150000Y-43000000D03*
D11*
%TO.P,J11,2,Pin_2*%
%TO.N,Net-(A3-2A)*%
X148650000Y-43000000D03*
%TO.P,J11,3,Pin_3*%
%TO.N,Net-(A3-1A)*%
X151150000Y-43000000D03*
%TO.P,J11,4,Pin_4*%
%TO.N,Net-(A3-1B)*%
X153650000Y-43000000D03*
%TD*%
D17*
%TO.P,J6,1,Pin_1*%
%TO.N,VCC*%
X161250000Y-67750000D03*
D18*
%TO.P,J6,2,Pin_2*%
%TO.N,Net-(J6-Pin_2)*%
X161250000Y-70250000D03*
%TD*%
D15*
%TO.P,J4,1,Pin_1*%
%TO.N,GND*%
X131000000Y-71500000D03*
D16*
%TO.P,J4,2,Pin_2*%
%TO.N,+5V*%
X131000000Y-69000000D03*
%TO.P,J4,3,Pin_3*%
%TO.N,endstop-pitch-2*%
X131000000Y-66500000D03*
%TD*%
D19*
%TO.P,A1,1,D1/TX*%
%TO.N,unconnected-(A1-D1{slash}TX-Pad1)*%
X124800000Y-91240000D03*
D20*
%TO.P,A1,2,D0/RX*%
%TO.N,unconnected-(A1-D0{slash}RX-Pad2)*%
X127340000Y-91240000D03*
%TO.P,A1,3,~{RESET}*%
%TO.N,unconnected-(A1-~{RESET}-Pad3)*%
X129880000Y-91240000D03*
%TO.P,A1,4,GND*%
%TO.N,GND*%
X132420000Y-91240000D03*
%TO.P,A1,5,D2*%
%TO.N,unconnected-(A1-D2-Pad5)*%
X134960000Y-91240000D03*
%TO.P,A1,6,D3*%
%TO.N,trigger-primary*%
X137500000Y-91240000D03*
%TO.P,A1,7,D4*%
%TO.N,trigger-secondary*%
X140040000Y-91240000D03*
%TO.P,A1,8,D5*%
%TO.N,unconnected-(A1-D5-Pad8)*%
X142580000Y-91240000D03*
%TO.P,A1,9,D6*%
%TO.N,pitch-step*%
X145120000Y-91240000D03*
%TO.P,A1,10,D7*%
%TO.N,pitch-dir*%
X147660000Y-91240000D03*
%TO.P,A1,11,D8*%
%TO.N,pitch-enable*%
X150200000Y-91240000D03*
%TO.P,A1,12,D9*%
%TO.N,unconnected-(A1-D9-Pad12)*%
X152740000Y-91240000D03*
%TO.P,A1,13,D10*%
%TO.N,unconnected-(A1-D10-Pad13)*%
X155280000Y-91240000D03*
%TO.P,A1,14,D11*%
%TO.N,yaw-step*%
X157820000Y-91240000D03*
%TO.P,A1,15,D12*%
%TO.N,yaw-dir*%
X160360000Y-91240000D03*
%TO.P,A1,16,D13*%
%TO.N,yaw-enable*%
X160360000Y-76000000D03*
%TO.P,A1,17,3V3*%
%TO.N,unconnected-(A1-3V3-Pad17)*%
X157820000Y-76000000D03*
%TO.P,A1,18,AREF*%
%TO.N,unconnected-(A1-AREF-Pad18)*%
X155280000Y-76000000D03*
%TO.P,A1,19,A0*%
%TO.N,endstop-yaw*%
X152740000Y-76000000D03*
%TO.P,A1,20,A1*%
%TO.N,endstop-pitch-1*%
X150200000Y-76000000D03*
%TO.P,A1,21,A2*%
%TO.N,endstop-pitch-2*%
X147660000Y-76000000D03*
%TO.P,A1,22,A3*%
%TO.N,mag-sensor*%
X145120000Y-76000000D03*
%TO.P,A1,23,A4*%
%TO.N,unconnected-(A1-A4-Pad23)*%
X142580000Y-76000000D03*
%TO.P,A1,24,A5*%
%TO.N,unconnected-(A1-A5-Pad24)*%
X140040000Y-76000000D03*
%TO.P,A1,25,A6*%
%TO.N,unconnected-(A1-A6-Pad25)*%
X137500000Y-76000000D03*
%TO.P,A1,26,A7*%
%TO.N,unconnected-(A1-A7-Pad26)*%
X134960000Y-76000000D03*
%TO.P,A1,27,+5V*%
%TO.N,+5V*%
X132420000Y-76000000D03*
%TO.P,A1,28,~{RESET}*%
%TO.N,unconnected-(A1-~{RESET}-Pad28)*%
X129880000Y-76000000D03*
%TO.P,A1,29,GND*%
%TO.N,GND*%
X127340000Y-76000000D03*
%TO.P,A1,30,VIN*%
%TO.N,unconnected-(A1-VIN-Pad30)*%
X124800000Y-76000000D03*
%TD*%
D21*
%TO.P,R2,1*%
%TO.N,trigger-secondary*%
X137000000Y-85000000D03*
%TO.P,R2,2*%
%TO.N,GND*%
X137000000Y-87000000D03*
%TD*%
D22*
%TO.P,R10,1*%
%TO.N,GND*%
X155000000Y-57465000D03*
%TO.P,R10,2*%
%TO.N,Net-(A3-MS3)*%
X153000000Y-57465000D03*
%TD*%
D12*
%TO.P,H4,1*%
%TO.N,N/C*%
X161500000Y-96500000D03*
%TD*%
D19*
%TO.P,A2,1,GND*%
%TO.N,GND*%
X140250000Y-49000000D03*
D20*
%TO.P,A2,2,VDD*%
%TO.N,+5V*%
X137710000Y-49000000D03*
%TO.P,A2,3,1B*%
%TO.N,Net-(A2-1B)*%
X135170000Y-49000000D03*
%TO.P,A2,4,1A*%
%TO.N,Net-(A2-1A)*%
X132630000Y-49000000D03*
%TO.P,A2,5,2A*%
%TO.N,Net-(A2-2A)*%
X130090000Y-49000000D03*
%TO.P,A2,6,2B*%
%TO.N,Net-(A2-2B)*%
X127550000Y-49000000D03*
%TO.P,A2,7,GND*%
%TO.N,GND*%
X125010000Y-49000000D03*
%TO.P,A2,8,VMOT*%
%TO.N,VCC*%
X122470000Y-49000000D03*
%TO.P,A2,9,~{ENABLE}*%
%TO.N,yaw-enable*%
X122470000Y-61700000D03*
%TO.P,A2,10,MS1*%
%TO.N,Net-(A2-MS1)*%
X125010000Y-61700000D03*
%TO.P,A2,11,MS2*%
%TO.N,Net-(A2-MS2)*%
X127550000Y-61700000D03*
%TO.P,A2,12,MS3*%
%TO.N,Net-(A2-MS3)*%
X130090000Y-61700000D03*
%TO.P,A2,13,~{RESET}*%
%TO.N,Net-(A2-~{RESET})*%
X132630000Y-61700000D03*
%TO.P,A2,14,~{SLEEP}*%
X135170000Y-61700000D03*
%TO.P,A2,15,STEP*%
%TO.N,yaw-step*%
X137710000Y-61700000D03*
%TO.P,A2,16,DIR*%
%TO.N,yaw-dir*%
X140250000Y-61700000D03*
%TD*%
D22*
%TO.P,R7,1*%
%TO.N,+5V*%
X140250000Y-59000000D03*
%TO.P,R7,2*%
%TO.N,Net-(A2-~{RESET})*%
X138250000Y-59000000D03*
%TD*%
%TO.P,R5,1*%
%TO.N,GND*%
X132750000Y-55340000D03*
%TO.P,R5,2*%
%TO.N,Net-(A2-MS2)*%
X130750000Y-55340000D03*
%TD*%
D23*
%TO.P,Q3,1,G*%
%TO.N,trigger-primary*%
X129750000Y-87725000D03*
D24*
%TO.P,Q3,2,D*%
%TO.N,Net-(J6-Pin_2)*%
X130505000Y-83100000D03*
X133555000Y-83100000D03*
D25*
X132030000Y-81425000D03*
D24*
X130505000Y-79750000D03*
X133555000Y-79750000D03*
D23*
%TO.P,Q3,3,S*%
%TO.N,GND*%
X134310000Y-87725000D03*
%TD*%
D22*
%TO.P,R8,1*%
%TO.N,+5V*%
X162500000Y-59000000D03*
%TO.P,R8,2*%
%TO.N,Net-(A3-~{RESET})*%
X160500000Y-59000000D03*
%TD*%
%TO.P,R3,1*%
%TO.N,GND*%
X132750000Y-53215000D03*
%TO.P,R3,2*%
%TO.N,Net-(A2-MS1)*%
X130750000Y-53215000D03*
%TD*%
D23*
%TO.P,Q4,1,G*%
%TO.N,trigger-secondary*%
X147220000Y-87725000D03*
D24*
%TO.P,Q4,2,D*%
%TO.N,Net-(J7-Pin_2)*%
X147975000Y-83100000D03*
X151025000Y-83100000D03*
D25*
X149500000Y-81425000D03*
D24*
X147975000Y-79750000D03*
X151025000Y-79750000D03*
D23*
%TO.P,Q4,3,S*%
%TO.N,GND*%
X151780000Y-87725000D03*
%TD*%
D17*
%TO.P,J7,1,Pin_1*%
%TO.N,VCC*%
X154000000Y-67750000D03*
D18*
%TO.P,J7,2,Pin_2*%
%TO.N,Net-(J7-Pin_2)*%
X154000000Y-70250000D03*
%TD*%
D22*
%TO.P,R4,1*%
%TO.N,GND*%
X155000000Y-53215000D03*
%TO.P,R4,2*%
%TO.N,Net-(A3-MS1)*%
X153000000Y-53215000D03*
%TD*%
D26*
%TO.P,R1,1*%
%TO.N,trigger-primary*%
X137000000Y-83000000D03*
%TO.P,R1,2*%
%TO.N,GND*%
X137000000Y-81000000D03*
%TD*%
D23*
%TO.P,Q2,1,G*%
%TO.N,trigger-secondary*%
X139720000Y-87725000D03*
D24*
%TO.P,Q2,2,D*%
%TO.N,Net-(J7-Pin_2)*%
X140475000Y-83100000D03*
X143525000Y-83100000D03*
D25*
X142000000Y-81425000D03*
D24*
X140475000Y-79750000D03*
X143525000Y-79750000D03*
D23*
%TO.P,Q2,3,S*%
%TO.N,GND*%
X144280000Y-87725000D03*
%TD*%
D12*
%TO.P,H3,1*%
%TO.N,N/C*%
X123500000Y-96500000D03*
%TD*%
D27*
%TO.P,J1,1,Pin_1*%
%TO.N,VCC*%
X151750000Y-97025000D03*
D28*
%TO.P,J1,2,Pin_2*%
%TO.N,GND*%
X149250000Y-97025000D03*
%TD*%
D15*
%TO.P,J2,1,Pin_1*%
%TO.N,GND*%
X145500000Y-71500000D03*
D16*
%TO.P,J2,2,Pin_2*%
%TO.N,+5V*%
X145500000Y-69000000D03*
%TO.P,J2,3,Pin_3*%
%TO.N,endstop-yaw*%
X145500000Y-66500000D03*
%TD*%
D13*
%TO.P,J9,1,Pin_1*%
%TO.N,+5V*%
X145225000Y-56615000D03*
D14*
%TO.P,J9,2,Pin_2*%
%TO.N,Net-(A3-MS1)*%
X145225000Y-54075000D03*
%TO.P,J9,3,Pin_3*%
%TO.N,+5V*%
X147765000Y-56615000D03*
%TO.P,J9,4,Pin_4*%
%TO.N,Net-(A3-MS2)*%
X147765000Y-54075000D03*
%TO.P,J9,5,Pin_5*%
%TO.N,+5V*%
X150305000Y-56615000D03*
%TO.P,J9,6,Pin_6*%
%TO.N,Net-(A3-MS3)*%
X150305000Y-54075000D03*
%TD*%
D22*
%TO.P,R6,1*%
%TO.N,GND*%
X155000000Y-55340000D03*
%TO.P,R6,2*%
%TO.N,Net-(A3-MS2)*%
X153000000Y-55340000D03*
%TD*%
D15*
%TO.P,J3,1,Pin_1*%
%TO.N,GND*%
X138250000Y-71500000D03*
D16*
%TO.P,J3,2,Pin_2*%
%TO.N,+5V*%
X138250000Y-69000000D03*
%TO.P,J3,3,Pin_3*%
%TO.N,endstop-pitch-1*%
X138250000Y-66500000D03*
%TD*%
D22*
%TO.P,R9,1*%
%TO.N,GND*%
X132750000Y-57465000D03*
%TO.P,R9,2*%
%TO.N,Net-(A2-MS3)*%
X130750000Y-57465000D03*
%TD*%
D19*
%TO.P,A3,1,GND*%
%TO.N,GND*%
X162500000Y-49000000D03*
D20*
%TO.P,A3,2,VDD*%
%TO.N,+5V*%
X159960000Y-49000000D03*
%TO.P,A3,3,1B*%
%TO.N,Net-(A3-1B)*%
X157420000Y-49000000D03*
%TO.P,A3,4,1A*%
%TO.N,Net-(A3-1A)*%
X154880000Y-49000000D03*
%TO.P,A3,5,2A*%
%TO.N,Net-(A3-2A)*%
X152340000Y-49000000D03*
%TO.P,A3,6,2B*%
%TO.N,Net-(A3-2B)*%
X149800000Y-49000000D03*
%TO.P,A3,7,GND*%
%TO.N,GND*%
X147260000Y-49000000D03*
%TO.P,A3,8,VMOT*%
%TO.N,VCC*%
X144720000Y-49000000D03*
%TO.P,A3,9,~{ENABLE}*%
%TO.N,pitch-enable*%
X144720000Y-61700000D03*
%TO.P,A3,10,MS1*%
%TO.N,Net-(A3-MS1)*%
X147260000Y-61700000D03*
%TO.P,A3,11,MS2*%
%TO.N,Net-(A3-MS2)*%
X149800000Y-61700000D03*
%TO.P,A3,12,MS3*%
%TO.N,Net-(A3-MS3)*%
X152340000Y-61700000D03*
%TO.P,A3,13,~{RESET}*%
%TO.N,Net-(A3-~{RESET})*%
X154880000Y-61700000D03*
%TO.P,A3,14,~{SLEEP}*%
X157420000Y-61700000D03*
%TO.P,A3,15,STEP*%
%TO.N,pitch-step*%
X159960000Y-61700000D03*
%TO.P,A3,16,DIR*%
%TO.N,pitch-dir*%
X162500000Y-61700000D03*
%TD*%
D23*
%TO.P,Q1,1,G*%
%TO.N,trigger-primary*%
X122220000Y-87725000D03*
D24*
%TO.P,Q1,2,D*%
%TO.N,Net-(J6-Pin_2)*%
X122975000Y-83100000D03*
X126025000Y-83100000D03*
D25*
X124500000Y-81425000D03*
D24*
X122975000Y-79750000D03*
X126025000Y-79750000D03*
D23*
%TO.P,Q1,3,S*%
%TO.N,GND*%
X126780000Y-87725000D03*
%TD*%
D29*
%TO.N,GND*%
X134300000Y-55300000D03*
X137000000Y-88600000D03*
X142700000Y-87800000D03*
X137000000Y-79500000D03*
X125100000Y-87700000D03*
X150200000Y-87700000D03*
X156800000Y-55300000D03*
X132700000Y-87700000D03*
%TO.N,pitch-enable*%
X153750000Y-88825500D03*
%TO.N,yaw-enable*%
X128580497Y-64830497D03*
%TO.N,VCC*%
X142610000Y-51110000D03*
X157800000Y-67750000D03*
%TO.N,Net-(J6-Pin_2)*%
X128300000Y-81425000D03*
%TD*%
D30*
%TO.N,GND*%
X155000000Y-55340000D02*
X156760000Y-55340000D01*
X137000000Y-87000000D02*
X137000000Y-88600000D01*
X132750000Y-55340000D02*
X134260000Y-55340000D01*
X132750000Y-55340000D02*
X132750000Y-57465000D01*
X142775000Y-87725000D02*
X142700000Y-87800000D01*
X137000000Y-81000000D02*
X137000000Y-79500000D01*
X150225000Y-87725000D02*
X150200000Y-87700000D01*
X155000000Y-55340000D02*
X155000000Y-57465000D01*
X126780000Y-87725000D02*
X125125000Y-87725000D01*
X132725000Y-87725000D02*
X132700000Y-87700000D01*
X144280000Y-87725000D02*
X142775000Y-87725000D01*
X156760000Y-55340000D02*
X156800000Y-55300000D01*
X134260000Y-55340000D02*
X134300000Y-55300000D01*
X155000000Y-53215000D02*
X155000000Y-55340000D01*
X134310000Y-87725000D02*
X132725000Y-87725000D01*
X132750000Y-53215000D02*
X132750000Y-55340000D01*
X151780000Y-87725000D02*
X150225000Y-87725000D01*
X125125000Y-87725000D02*
X125100000Y-87700000D01*
%TO.N,trigger-primary*%
X131175000Y-89150000D02*
X135410000Y-89150000D01*
X123645000Y-89150000D02*
X128325000Y-89150000D01*
X122220000Y-87725000D02*
X123645000Y-89150000D01*
X135410000Y-84590000D02*
X135410000Y-89150000D01*
X135410000Y-89150000D02*
X137500000Y-91240000D01*
X129750000Y-87725000D02*
X131175000Y-89150000D01*
X137000000Y-83000000D02*
X135410000Y-84590000D01*
X128325000Y-89150000D02*
X129750000Y-87725000D01*
%TO.N,trigger-secondary*%
X140040000Y-88045000D02*
X140040000Y-91240000D01*
X139720000Y-87725000D02*
X141145000Y-89150000D01*
X139720000Y-87725000D02*
X140040000Y-88045000D01*
X145795000Y-89150000D02*
X147220000Y-87725000D01*
X137000000Y-85005000D02*
X139720000Y-87725000D01*
X137000000Y-85000000D02*
X137000000Y-85005000D01*
X141145000Y-89150000D02*
X145795000Y-89150000D01*
%TO.N,pitch-step*%
X163700000Y-80163604D02*
X163700000Y-66813604D01*
X159960000Y-63073604D02*
X159960000Y-61700000D01*
X163700000Y-66813604D02*
X159960000Y-63073604D01*
X154313604Y-89550000D02*
X163700000Y-80163604D01*
X146810000Y-89550000D02*
X154313604Y-89550000D01*
X145120000Y-91240000D02*
X146810000Y-89550000D01*
%TO.N,pitch-dir*%
X164150000Y-80350000D02*
X164150000Y-66627208D01*
X164150000Y-66627208D02*
X162500000Y-64977208D01*
X162500000Y-64977208D02*
X162500000Y-61700000D01*
X154500000Y-90000000D02*
X164150000Y-80350000D01*
X148900000Y-90000000D02*
X154500000Y-90000000D01*
X147660000Y-91240000D02*
X148900000Y-90000000D01*
%TO.N,pitch-enable*%
X163250000Y-79977208D02*
X154396967Y-88830241D01*
X144720000Y-61700000D02*
X146270000Y-63250000D01*
X159500000Y-63250000D02*
X163250000Y-67000000D01*
X163250000Y-67000000D02*
X163250000Y-79977208D01*
X153754741Y-88830241D02*
X153750000Y-88825500D01*
X146270000Y-63250000D02*
X159500000Y-63250000D01*
X154396967Y-88830241D02*
X153754741Y-88830241D01*
%TO.N,yaw-enable*%
X122470000Y-61700000D02*
X125520000Y-64750000D01*
X125520000Y-64750000D02*
X128500000Y-64750000D01*
X128500000Y-64750000D02*
X128580497Y-64830497D01*
D31*
%TO.N,Net-(A2-1B)*%
X138820000Y-43000000D02*
X138820000Y-44180000D01*
X135170000Y-47830000D02*
X135170000Y-49000000D01*
X138820000Y-44180000D02*
X135170000Y-47830000D01*
%TO.N,Net-(A2-1A)*%
X136320000Y-44180000D02*
X132630000Y-47870000D01*
X132630000Y-47870000D02*
X132630000Y-49000000D01*
X136320000Y-43000000D02*
X136320000Y-44180000D01*
%TO.N,Net-(A2-2A)*%
X133820000Y-43000000D02*
X133820000Y-44180000D01*
X130090000Y-47910000D02*
X130090000Y-49000000D01*
X133820000Y-44180000D02*
X130090000Y-47910000D01*
%TO.N,Net-(A2-2B)*%
X131320000Y-44180000D02*
X127550000Y-47950000D01*
X127550000Y-47950000D02*
X127550000Y-49000000D01*
X131320000Y-43000000D02*
X131320000Y-44180000D01*
%TO.N,VCC*%
X154000000Y-67750000D02*
X157800000Y-67750000D01*
X142610000Y-51110000D02*
X142500000Y-51000000D01*
X157800000Y-67750000D02*
X161250000Y-67750000D01*
X144720000Y-49000000D02*
X142610000Y-51110000D01*
X124470000Y-51000000D02*
X122470000Y-49000000D01*
X142500000Y-51000000D02*
X124470000Y-51000000D01*
D30*
%TO.N,Net-(A2-MS1)*%
X124150000Y-55250000D02*
X124150000Y-60840000D01*
X124150000Y-60840000D02*
X125010000Y-61700000D01*
X124600000Y-52450000D02*
X129985000Y-52450000D01*
X122975000Y-54075000D02*
X124150000Y-55250000D01*
X122975000Y-54075000D02*
X124600000Y-52450000D01*
X129985000Y-52450000D02*
X130750000Y-53215000D01*
%TO.N,Net-(A2-MS2)*%
X126690000Y-52900000D02*
X125515000Y-54075000D01*
X126750000Y-60900000D02*
X127550000Y-61700000D01*
X130750000Y-55108299D02*
X128541701Y-52900000D01*
X126750000Y-55310000D02*
X126750000Y-60900000D01*
X128541701Y-52900000D02*
X126690000Y-52900000D01*
X125515000Y-54075000D02*
X126750000Y-55310000D01*
X130750000Y-55340000D02*
X130750000Y-55108299D01*
%TO.N,Net-(A2-MS3)*%
X129500000Y-55000000D02*
X129500000Y-56215000D01*
X129500000Y-61110000D02*
X129500000Y-56215000D01*
X128575000Y-54075000D02*
X129500000Y-55000000D01*
X129500000Y-56215000D02*
X130750000Y-57465000D01*
X130090000Y-61700000D02*
X129500000Y-61110000D01*
X128055000Y-54075000D02*
X128575000Y-54075000D01*
%TO.N,Net-(A2-~{RESET})*%
X138250000Y-59000000D02*
X137870000Y-59000000D01*
X132630000Y-61700000D02*
X135170000Y-61700000D01*
X137870000Y-59000000D02*
X135170000Y-61700000D01*
D31*
%TO.N,Net-(A3-1B)*%
X157420000Y-47920000D02*
X157420000Y-49000000D01*
X153650000Y-44150000D02*
X157420000Y-47920000D01*
X153650000Y-43000000D02*
X153650000Y-44150000D01*
%TO.N,Net-(A3-1A)*%
X151150000Y-43000000D02*
X151150000Y-44150000D01*
X154880000Y-47880000D02*
X154880000Y-49000000D01*
X151150000Y-44150000D02*
X154880000Y-47880000D01*
%TO.N,Net-(A3-2A)*%
X152340000Y-47840000D02*
X152340000Y-49000000D01*
X148650000Y-43000000D02*
X148650000Y-44150000D01*
X148650000Y-44150000D02*
X152340000Y-47840000D01*
%TO.N,Net-(A3-2B)*%
X146150000Y-43000000D02*
X146150000Y-44150000D01*
X146150000Y-44150000D02*
X149800000Y-47800000D01*
X149800000Y-47800000D02*
X149800000Y-49000000D01*
D30*
%TO.N,Net-(A3-MS1)*%
X153000000Y-53215000D02*
X152235000Y-52450000D01*
X146850000Y-52450000D02*
X145225000Y-54075000D01*
X152235000Y-52450000D02*
X146850000Y-52450000D01*
X145225000Y-54075000D02*
X146590000Y-55440000D01*
X146590000Y-55440000D02*
X146590000Y-61030000D01*
X146590000Y-61030000D02*
X147260000Y-61700000D01*
%TO.N,Net-(A3-MS2)*%
X150900000Y-52900000D02*
X148940000Y-52900000D01*
X149000000Y-60900000D02*
X149800000Y-61700000D01*
X149000000Y-55310000D02*
X149000000Y-60900000D01*
X153000000Y-55340000D02*
X153000000Y-55000000D01*
X148940000Y-52900000D02*
X147765000Y-54075000D01*
X147765000Y-54075000D02*
X149000000Y-55310000D01*
X153000000Y-55000000D02*
X150900000Y-52900000D01*
%TO.N,Net-(A3-MS3)*%
X150305000Y-54075000D02*
X151075000Y-54075000D01*
X151750000Y-56215000D02*
X153000000Y-57465000D01*
X151075000Y-54075000D02*
X151750000Y-54750000D01*
X151750000Y-54750000D02*
X151750000Y-56215000D01*
X152340000Y-61700000D02*
X151750000Y-61110000D01*
X151750000Y-61110000D02*
X151750000Y-56215000D01*
%TO.N,Net-(A3-~{RESET})*%
X160120000Y-59000000D02*
X157420000Y-61700000D01*
X154880000Y-61700000D02*
X157420000Y-61700000D01*
X160500000Y-59000000D02*
X160120000Y-59000000D01*
%TO.N,endstop-yaw*%
X146750000Y-66500000D02*
X148750000Y-68500000D01*
X148750000Y-68500000D02*
X148750000Y-72000000D01*
X152740000Y-75990000D02*
X152740000Y-76000000D01*
X148750000Y-72000000D02*
X152740000Y-75990000D01*
X145500000Y-66500000D02*
X146750000Y-66500000D01*
%TO.N,endstop-pitch-1*%
X141500000Y-71687500D02*
X143612500Y-73800000D01*
X148000000Y-73800000D02*
X150200000Y-76000000D01*
X138250000Y-66500000D02*
X139500000Y-66500000D01*
X141500000Y-68500000D02*
X141500000Y-71687500D01*
X139500000Y-66500000D02*
X141500000Y-68500000D01*
X143612500Y-73800000D02*
X148000000Y-73800000D01*
%TO.N,endstop-pitch-2*%
X134250000Y-68500000D02*
X134250000Y-71875000D01*
X136625000Y-74250000D02*
X145910000Y-74250000D01*
X130975000Y-66500000D02*
X131100000Y-66500000D01*
X145910000Y-74250000D02*
X147660000Y-76000000D01*
X132250000Y-66500000D02*
X134250000Y-68500000D01*
X131000000Y-66500000D02*
X132250000Y-66500000D01*
X134250000Y-71875000D02*
X136625000Y-74250000D01*
%TO.N,mag-sensor*%
X127000000Y-72000000D02*
X129750000Y-74750000D01*
X124750000Y-66500000D02*
X127000000Y-68750000D01*
X129750000Y-74750000D02*
X143870000Y-74750000D01*
X123725000Y-66500000D02*
X124750000Y-66500000D01*
X143870000Y-74750000D02*
X145120000Y-76000000D01*
X127000000Y-68750000D02*
X127000000Y-72000000D01*
D31*
%TO.N,Net-(J6-Pin_2)*%
X124500000Y-81425000D02*
X132030000Y-81425000D01*
%TO.N,Net-(J7-Pin_2)*%
X162250000Y-79150000D02*
X162250000Y-74050000D01*
X160600000Y-72400000D02*
X156150000Y-72400000D01*
X162250000Y-74050000D02*
X160600000Y-72400000D01*
X156150000Y-72400000D02*
X154000000Y-70250000D01*
X142000000Y-81425000D02*
X149500000Y-81425000D01*
X149500000Y-81425000D02*
X159975000Y-81425000D01*
X159975000Y-81425000D02*
X162250000Y-79150000D01*
%TD*%
%TA.AperFunction,Conductor*%
%TO.N,+5V*%
G36*
X128243000Y-56381613D02*
G01*
X128288387Y-56427000D01*
X128305000Y-56489000D01*
X128305000Y-57945635D01*
X128518492Y-57888430D01*
X128698095Y-57804680D01*
X128758610Y-57793327D01*
X128817125Y-57812481D01*
X128859214Y-57857419D01*
X128874500Y-57917062D01*
X128874500Y-60930951D01*
X128858953Y-60991068D01*
X128816210Y-61036109D01*
X128756989Y-61054781D01*
X128696142Y-61042401D01*
X128648925Y-61002074D01*
X128550046Y-60860859D01*
X128389140Y-60699953D01*
X128202735Y-60569432D01*
X127996497Y-60473261D01*
X127776689Y-60414364D01*
X127549999Y-60394531D01*
X127510307Y-60398004D01*
X127443849Y-60385286D01*
X127393961Y-60339573D01*
X127375500Y-60274476D01*
X127375500Y-57982345D01*
X127390786Y-57922702D01*
X127432875Y-57877764D01*
X127491391Y-57858610D01*
X127551906Y-57869963D01*
X127591509Y-57888431D01*
X127804999Y-57945635D01*
X127805000Y-57945636D01*
X127805000Y-56865000D01*
X127499500Y-56865000D01*
X127437500Y-56848387D01*
X127392113Y-56803000D01*
X127375500Y-56741000D01*
X127375500Y-56489000D01*
X127392113Y-56427000D01*
X127437500Y-56381613D01*
X127499500Y-56365000D01*
X128181000Y-56365000D01*
X128243000Y-56381613D01*
G37*
%TD.AperFunction*%
%TA.AperFunction,Conductor*%
G36*
X126062500Y-56381613D02*
G01*
X126107887Y-56427000D01*
X126124500Y-56489000D01*
X126124500Y-56741000D01*
X126107887Y-56803000D01*
X126062500Y-56848387D01*
X126000500Y-56865000D01*
X125765000Y-56865000D01*
X125765000Y-57945635D01*
X125968406Y-57891133D01*
X126024691Y-57889291D01*
X126075986Y-57912532D01*
X126111712Y-57956064D01*
X126124500Y-58010908D01*
X126124500Y-60675951D01*
X126110985Y-60732246D01*
X126073385Y-60776269D01*
X126019898Y-60798424D01*
X125962182Y-60793882D01*
X125912819Y-60763632D01*
X125849140Y-60699953D01*
X125662735Y-60569432D01*
X125456497Y-60473261D01*
X125236689Y-60414364D01*
X125010000Y-60394531D01*
X124916952Y-60402672D01*
X124910307Y-60403253D01*
X124843849Y-60390537D01*
X124793962Y-60344823D01*
X124775500Y-60279726D01*
X124775500Y-57954367D01*
X124790786Y-57894724D01*
X124832875Y-57849786D01*
X124891390Y-57830632D01*
X124951905Y-57841985D01*
X125051507Y-57888430D01*
X125264999Y-57945635D01*
X125265000Y-57945636D01*
X125265000Y-56865000D01*
X124899500Y-56865000D01*
X124837500Y-56848387D01*
X124792113Y-56803000D01*
X124775500Y-56741000D01*
X124775500Y-56489000D01*
X124792113Y-56427000D01*
X124837500Y-56381613D01*
X124899500Y-56365000D01*
X126000500Y-56365000D01*
X126062500Y-56381613D01*
G37*
%TD.AperFunction*%
%TA.AperFunction,Conductor*%
G36*
X160963036Y-40014945D02*
G01*
X161007586Y-40054913D01*
X161028226Y-40111093D01*
X161020146Y-40170397D01*
X160985229Y-40219008D01*
X160931609Y-40245600D01*
X160858420Y-40261710D01*
X160615728Y-40315131D01*
X160443283Y-40373234D01*
X160276565Y-40429409D01*
X160276562Y-40429410D01*
X160276560Y-40429411D01*
X159951749Y-40579683D01*
X159645081Y-40764199D01*
X159360161Y-40980789D01*
X159100332Y-41226913D01*
X158868636Y-41499686D01*
X158667786Y-41795919D01*
X158500146Y-42112118D01*
X158367674Y-42444598D01*
X158271930Y-42789440D01*
X158214027Y-43142635D01*
X158194651Y-43500000D01*
X158214027Y-43857364D01*
X158271930Y-44210559D01*
X158367674Y-44555401D01*
X158500146Y-44887881D01*
X158667786Y-45204080D01*
X158868636Y-45500313D01*
X159100332Y-45773086D01*
X159360161Y-46019210D01*
X159645081Y-46235800D01*
X159951747Y-46420315D01*
X160276565Y-46570591D01*
X160615726Y-46684868D01*
X160965254Y-46761805D01*
X161286151Y-46796704D01*
X161321051Y-46800500D01*
X161321052Y-46800500D01*
X161678948Y-46800500D01*
X161678949Y-46800500D01*
X161710730Y-46797043D01*
X162034746Y-46761805D01*
X162384274Y-46684868D01*
X162723435Y-46570591D01*
X163048253Y-46420315D01*
X163354919Y-46235800D01*
X163639837Y-46019211D01*
X163899668Y-45773086D01*
X164131365Y-45500311D01*
X164332211Y-45204085D01*
X164489245Y-44907889D01*
X164499853Y-44887881D01*
X164632325Y-44555401D01*
X164728069Y-44210559D01*
X164728068Y-44210559D01*
X164728071Y-44210552D01*
X164753133Y-44057674D01*
X164777466Y-44001808D01*
X164825474Y-43964277D01*
X164885564Y-43954147D01*
X164943223Y-43973865D01*
X164984527Y-44018669D01*
X164999500Y-44077738D01*
X164999500Y-66423615D01*
X164981024Y-66488736D01*
X164931100Y-66534451D01*
X164864608Y-66547136D01*
X164801361Y-66523010D01*
X164760209Y-66469265D01*
X164744584Y-66429803D01*
X164740805Y-66418768D01*
X164728617Y-66376818D01*
X164718421Y-66359577D01*
X164709863Y-66342110D01*
X164702486Y-66323476D01*
X164676798Y-66288120D01*
X164670409Y-66278392D01*
X164648170Y-66240787D01*
X164634005Y-66226622D01*
X164621369Y-66211828D01*
X164609595Y-66195622D01*
X164600163Y-66187819D01*
X164575935Y-66167776D01*
X164567305Y-66159922D01*
X163161819Y-64754436D01*
X163134939Y-64714208D01*
X163125500Y-64666755D01*
X163125500Y-62914188D01*
X163139511Y-62856931D01*
X163178377Y-62812613D01*
X163339140Y-62700046D01*
X163500046Y-62539140D01*
X163612612Y-62378377D01*
X163630568Y-62352734D01*
X163726739Y-62146496D01*
X163785635Y-61926692D01*
X163805468Y-61700000D01*
X163785635Y-61473308D01*
X163726739Y-61253504D01*
X163630568Y-61047266D01*
X163627596Y-61043022D01*
X163500046Y-60860859D01*
X163339140Y-60699953D01*
X163152735Y-60569432D01*
X162946496Y-60473261D01*
X162836449Y-60443774D01*
X162784769Y-60415421D01*
X162752020Y-60366410D01*
X162745603Y-60307814D01*
X162766967Y-60252876D01*
X162811285Y-60214010D01*
X162868542Y-60199999D01*
X162899979Y-60199999D01*
X163002695Y-60189506D01*
X163169122Y-60134357D01*
X163318345Y-60042316D01*
X163442316Y-59918345D01*
X163534357Y-59769122D01*
X163589506Y-59602696D01*
X163600000Y-59499979D01*
X163600000Y-59250000D01*
X162374000Y-59250000D01*
X162312000Y-59233387D01*
X162266613Y-59188000D01*
X162250000Y-59126000D01*
X162250000Y-57800001D01*
X162100021Y-57800001D01*
X161997304Y-57810493D01*
X161830877Y-57865642D01*
X161681656Y-57957681D01*
X161588034Y-58051304D01*
X161532446Y-58083397D01*
X161468259Y-58083397D01*
X161412672Y-58051303D01*
X161318657Y-57957288D01*
X161169334Y-57865186D01*
X161002797Y-57810000D01*
X160904904Y-57800000D01*
X162750000Y-57800000D01*
X162750000Y-58750000D01*
X163599999Y-58750000D01*
X163599999Y-58500021D01*
X163589506Y-58397304D01*
X163534357Y-58230877D01*
X163442316Y-58081654D01*
X163318345Y-57957683D01*
X163169122Y-57865642D01*
X163002696Y-57810493D01*
X162899979Y-57800000D01*
X162750000Y-57800000D01*
X160904904Y-57800000D01*
X160900009Y-57799500D01*
X160099991Y-57799500D01*
X159997203Y-57810000D01*
X159830665Y-57865186D01*
X159681342Y-57957288D01*
X159557288Y-58081342D01*
X159465186Y-58230665D01*
X159410000Y-58397202D01*
X159399500Y-58499991D01*
X159399500Y-58784547D01*
X159390061Y-58832000D01*
X159363181Y-58872228D01*
X157834821Y-60400586D01*
X157779234Y-60432680D01*
X157715047Y-60432680D01*
X157646690Y-60414364D01*
X157419999Y-60394531D01*
X157193310Y-60414364D01*
X156973502Y-60473261D01*
X156767264Y-60569432D01*
X156580859Y-60699953D01*
X156419953Y-60860859D01*
X156307387Y-61021623D01*
X156263069Y-61060489D01*
X156205812Y-61074500D01*
X156094188Y-61074500D01*
X156036931Y-61060489D01*
X155992613Y-61021623D01*
X155880046Y-60860859D01*
X155719140Y-60699953D01*
X155532735Y-60569432D01*
X155326497Y-60473261D01*
X155106689Y-60414364D01*
X154880000Y-60394531D01*
X154653310Y-60414364D01*
X154433502Y-60473261D01*
X154227264Y-60569432D01*
X154040859Y-60699953D01*
X153879953Y-60860859D01*
X153749433Y-61047263D01*
X153722382Y-61105275D01*
X153676625Y-61157450D01*
X153610000Y-61176869D01*
X153543375Y-61157450D01*
X153497618Y-61105275D01*
X153470568Y-61047266D01*
X153431218Y-60991068D01*
X153340046Y-60860859D01*
X153179140Y-60699953D01*
X152992735Y-60569432D01*
X152786497Y-60473261D01*
X152566689Y-60414364D01*
X152488694Y-60407541D01*
X152431361Y-60387614D01*
X152390355Y-60342864D01*
X152375500Y-60284013D01*
X152375500Y-58779879D01*
X152394278Y-58714271D01*
X152444926Y-58668534D01*
X152512102Y-58656521D01*
X152599991Y-58665500D01*
X153400008Y-58665499D01*
X153502797Y-58654999D01*
X153669334Y-58599814D01*
X153818656Y-58507712D01*
X153912320Y-58414047D01*
X153967906Y-58381955D01*
X154032094Y-58381955D01*
X154087679Y-58414047D01*
X154173623Y-58499991D01*
X154181345Y-58507713D01*
X154256004Y-58553762D01*
X154330666Y-58599814D01*
X154442017Y-58636712D01*
X154497202Y-58654999D01*
X154507702Y-58656071D01*
X154599991Y-58665500D01*
X155400008Y-58665499D01*
X155502797Y-58654999D01*
X155669334Y-58599814D01*
X155818656Y-58507712D01*
X155942712Y-58383656D01*
X156034814Y-58234334D01*
X156089999Y-58067797D01*
X156100500Y-57965009D01*
X156100499Y-56964992D01*
X156089999Y-56862203D01*
X156034814Y-56695666D01*
X155942712Y-56546344D01*
X155886547Y-56490179D01*
X155854455Y-56434594D01*
X155854455Y-56370406D01*
X155886547Y-56314820D01*
X155942712Y-56258656D01*
X156034814Y-56109334D01*
X156048811Y-56067092D01*
X156079218Y-56018035D01*
X156128541Y-55988056D01*
X156186092Y-55983653D01*
X156239399Y-56005779D01*
X156347270Y-56084151D01*
X156347271Y-56084151D01*
X156347272Y-56084152D01*
X156520197Y-56161144D01*
X156705352Y-56200500D01*
X156705354Y-56200500D01*
X156894646Y-56200500D01*
X156894648Y-56200500D01*
X157018084Y-56174262D01*
X157079803Y-56161144D01*
X157252730Y-56084151D01*
X157384994Y-55988056D01*
X157405870Y-55972889D01*
X157532533Y-55832216D01*
X157627179Y-55668284D01*
X157678916Y-55509054D01*
X157685674Y-55488256D01*
X157705460Y-55300000D01*
X157685674Y-55111744D01*
X157655332Y-55018363D01*
X157627179Y-54931715D01*
X157532533Y-54767783D01*
X157405870Y-54627110D01*
X157252730Y-54515848D01*
X157079802Y-54438855D01*
X156894648Y-54399500D01*
X156894646Y-54399500D01*
X156705354Y-54399500D01*
X156705352Y-54399500D01*
X156520197Y-54438855D01*
X156347269Y-54515848D01*
X156216364Y-54610956D01*
X156153327Y-54634246D01*
X156087398Y-54621231D01*
X156037940Y-54575734D01*
X155942711Y-54421342D01*
X155886549Y-54365180D01*
X155854455Y-54309592D01*
X155854456Y-54245404D01*
X155886547Y-54189820D01*
X155942712Y-54133656D01*
X156034814Y-53984334D01*
X156089999Y-53817797D01*
X156100500Y-53715009D01*
X156100499Y-52714992D01*
X156089999Y-52612203D01*
X156034814Y-52445666D01*
X155942712Y-52296344D01*
X155942711Y-52296342D01*
X155818657Y-52172288D01*
X155669334Y-52080186D01*
X155502797Y-52025000D01*
X155400009Y-52014500D01*
X154599991Y-52014500D01*
X154497203Y-52025000D01*
X154330665Y-52080186D01*
X154181342Y-52172288D01*
X154087681Y-52265950D01*
X154032094Y-52298044D01*
X153967906Y-52298044D01*
X153912319Y-52265950D01*
X153818657Y-52172288D01*
X153669334Y-52080186D01*
X153502797Y-52025000D01*
X153400009Y-52014500D01*
X152735453Y-52014500D01*
X152688000Y-52005061D01*
X152656256Y-51983850D01*
X152655630Y-51984658D01*
X152646290Y-51977412D01*
X152637424Y-51969839D01*
X152605582Y-51939938D01*
X152588024Y-51930285D01*
X152571764Y-51919604D01*
X152555936Y-51907327D01*
X152515851Y-51889980D01*
X152505361Y-51884841D01*
X152467091Y-51863802D01*
X152447691Y-51858821D01*
X152429284Y-51852519D01*
X152410897Y-51844562D01*
X152367758Y-51837729D01*
X152356324Y-51835361D01*
X152314019Y-51824500D01*
X152293984Y-51824500D01*
X152274586Y-51822973D01*
X152267162Y-51821797D01*
X152254805Y-51819840D01*
X152254804Y-51819840D01*
X152228484Y-51822328D01*
X152211325Y-51823950D01*
X152199656Y-51824500D01*
X146932741Y-51824500D01*
X146912237Y-51822236D01*
X146842145Y-51824439D01*
X146838251Y-51824500D01*
X146810648Y-51824500D01*
X146806653Y-51825004D01*
X146795029Y-51825918D01*
X146751368Y-51827290D01*
X146732128Y-51832880D01*
X146713081Y-51836825D01*
X146693209Y-51839335D01*
X146652599Y-51855413D01*
X146641554Y-51859194D01*
X146599610Y-51871381D01*
X146582365Y-51881579D01*
X146564904Y-51890133D01*
X146546267Y-51897512D01*
X146510931Y-51923185D01*
X146501174Y-51929595D01*
X146463580Y-51951829D01*
X146449413Y-51965996D01*
X146434624Y-51978626D01*
X146418413Y-51990404D01*
X146390572Y-52024058D01*
X146382711Y-52032697D01*
X145680646Y-52734762D01*
X145625058Y-52766856D01*
X145560872Y-52766856D01*
X145500221Y-52750604D01*
X145460405Y-52739936D01*
X145225000Y-52719340D01*
X144989592Y-52739936D01*
X144761336Y-52801097D01*
X144547170Y-52900965D01*
X144353598Y-53036505D01*
X144186505Y-53203598D01*
X144050965Y-53397170D01*
X143951097Y-53611336D01*
X143889936Y-53839592D01*
X143869340Y-54074999D01*
X143889936Y-54310407D01*
X143924354Y-54438855D01*
X143951097Y-54538663D01*
X144050965Y-54752830D01*
X144186505Y-54946401D01*
X144186508Y-54946404D01*
X144308818Y-55068714D01*
X144340114Y-55121460D01*
X144342303Y-55182753D01*
X144314850Y-55237597D01*
X144264472Y-55272576D01*
X144132913Y-55321646D01*
X144017811Y-55407811D01*
X143931647Y-55522910D01*
X143881402Y-55657624D01*
X143875000Y-55717176D01*
X143875000Y-56365000D01*
X145840500Y-56365000D01*
X145902500Y-56381613D01*
X145947887Y-56427000D01*
X145964500Y-56489000D01*
X145964500Y-56741000D01*
X145947887Y-56803000D01*
X145902500Y-56848387D01*
X145840500Y-56865000D01*
X145475000Y-56865000D01*
X145475000Y-57965000D01*
X145840500Y-57965000D01*
X145902500Y-57981613D01*
X145947887Y-58027000D01*
X145964500Y-58089000D01*
X145964500Y-60816698D01*
X145948953Y-60876815D01*
X145906210Y-60921856D01*
X145846989Y-60940528D01*
X145786141Y-60928148D01*
X145738925Y-60887821D01*
X145720046Y-60860859D01*
X145559140Y-60699953D01*
X145372735Y-60569432D01*
X145166497Y-60473261D01*
X144946689Y-60414364D01*
X144720000Y-60394531D01*
X144493310Y-60414364D01*
X144273502Y-60473261D01*
X144067264Y-60569432D01*
X143880859Y-60699953D01*
X143719953Y-60860859D01*
X143589432Y-61047264D01*
X143493261Y-61253502D01*
X143434364Y-61473310D01*
X143414531Y-61699999D01*
X143434364Y-61926689D01*
X143493261Y-62146497D01*
X143589432Y-62352735D01*
X143719953Y-62539140D01*
X143880859Y-62700046D01*
X144067264Y-62830567D01*
X144067265Y-62830567D01*
X144067266Y-62830568D01*
X144273504Y-62926739D01*
X144493308Y-62985635D01*
X144720000Y-63005468D01*
X144946692Y-62985635D01*
X145015048Y-62967319D01*
X145079234Y-62967319D01*
X145134822Y-62999413D01*
X145769196Y-63633787D01*
X145782096Y-63649888D01*
X145833223Y-63697900D01*
X145836020Y-63700611D01*
X145855529Y-63720120D01*
X145858711Y-63722588D01*
X145867571Y-63730155D01*
X145899418Y-63760062D01*
X145916972Y-63769712D01*
X145933236Y-63780396D01*
X145944972Y-63789499D01*
X145949064Y-63792673D01*
X145973909Y-63803424D01*
X145989152Y-63810021D01*
X145999631Y-63815154D01*
X146037908Y-63836197D01*
X146057306Y-63841177D01*
X146075708Y-63847477D01*
X146094104Y-63855438D01*
X146137261Y-63862273D01*
X146148664Y-63864634D01*
X146190981Y-63875500D01*
X146211016Y-63875500D01*
X146230413Y-63877026D01*
X146250196Y-63880160D01*
X146293674Y-63876050D01*
X146305344Y-63875500D01*
X159189548Y-63875500D01*
X159237001Y-63884939D01*
X159277229Y-63911819D01*
X161553228Y-66187819D01*
X161583478Y-66237182D01*
X161588020Y-66294898D01*
X161565865Y-66348385D01*
X161521842Y-66385985D01*
X161465547Y-66399500D01*
X160449991Y-66399500D01*
X160347203Y-66410000D01*
X160180665Y-66465186D01*
X160031342Y-66557288D01*
X159907288Y-66681342D01*
X159901581Y-66690596D01*
X159856474Y-66733777D01*
X159796042Y-66749500D01*
X157901741Y-66749500D01*
X155453958Y-66749500D01*
X155393526Y-66733777D01*
X155348419Y-66690596D01*
X155342711Y-66681342D01*
X155218657Y-66557288D01*
X155069334Y-66465186D01*
X154902797Y-66410000D01*
X154800009Y-66399500D01*
X153199991Y-66399500D01*
X153097203Y-66410000D01*
X152930665Y-66465186D01*
X152781342Y-66557288D01*
X152657288Y-66681342D01*
X152565186Y-66830665D01*
X152510000Y-66997202D01*
X152499500Y-67099990D01*
X152499500Y-68400008D01*
X152510000Y-68502796D01*
X152565186Y-68669334D01*
X152657288Y-68818657D01*
X152781342Y-68942711D01*
X152936120Y-69038178D01*
X152975604Y-69077091D01*
X152994185Y-69129321D01*
X152988151Y-69184428D01*
X152958706Y-69231398D01*
X152811505Y-69378599D01*
X152675964Y-69572172D01*
X152576097Y-69786337D01*
X152514936Y-70014592D01*
X152494340Y-70250000D01*
X152514936Y-70485407D01*
X152540461Y-70580666D01*
X152576097Y-70713663D01*
X152675965Y-70927829D01*
X152811505Y-71121401D01*
X152978599Y-71288495D01*
X153172171Y-71424035D01*
X153386337Y-71523903D01*
X153614591Y-71585062D01*
X153614592Y-71585063D01*
X153791032Y-71600500D01*
X153791034Y-71600500D01*
X153884217Y-71600500D01*
X153931670Y-71609939D01*
X153971898Y-71636819D01*
X155432432Y-73097352D01*
X155434625Y-73099601D01*
X155494942Y-73163054D01*
X155543362Y-73196755D01*
X155550871Y-73202416D01*
X155596593Y-73239698D01*
X155623562Y-73253785D01*
X155636982Y-73261916D01*
X155661949Y-73279294D01*
X155661950Y-73279294D01*
X155661951Y-73279295D01*
X155686752Y-73289938D01*
X155716163Y-73302559D01*
X155724673Y-73306601D01*
X155776951Y-73333909D01*
X155806200Y-73342277D01*
X155820970Y-73347535D01*
X155848942Y-73359540D01*
X155848945Y-73359540D01*
X155848946Y-73359541D01*
X155906726Y-73371414D01*
X155915869Y-73373657D01*
X155972582Y-73389886D01*
X156002920Y-73392196D01*
X156018448Y-73394373D01*
X156048259Y-73400500D01*
X156107244Y-73400500D01*
X156116659Y-73400858D01*
X156120806Y-73401173D01*
X156175476Y-73405337D01*
X156202278Y-73401923D01*
X156205652Y-73401494D01*
X156221317Y-73400500D01*
X160134217Y-73400500D01*
X160181670Y-73409939D01*
X160221898Y-73436819D01*
X161213181Y-74428102D01*
X161240061Y-74468330D01*
X161249500Y-74515783D01*
X161249500Y-74797015D01*
X161231509Y-74861343D01*
X161182757Y-74907004D01*
X161117391Y-74920750D01*
X161054378Y-74898591D01*
X161012734Y-74869432D01*
X160806497Y-74773261D01*
X160586689Y-74714364D01*
X160360000Y-74694531D01*
X160133310Y-74714364D01*
X159913502Y-74773261D01*
X159707264Y-74869432D01*
X159520859Y-74999953D01*
X159359953Y-75160859D01*
X159229433Y-75347263D01*
X159202382Y-75405275D01*
X159156625Y-75457450D01*
X159090000Y-75476869D01*
X159023375Y-75457450D01*
X158977618Y-75405275D01*
X158950568Y-75347266D01*
X158820047Y-75160861D01*
X158820046Y-75160859D01*
X158659140Y-74999953D01*
X158472735Y-74869432D01*
X158266497Y-74773261D01*
X158046689Y-74714364D01*
X157820000Y-74694531D01*
X157593310Y-74714364D01*
X157373502Y-74773261D01*
X157167264Y-74869432D01*
X156980859Y-74999953D01*
X156819953Y-75160859D01*
X156689433Y-75347263D01*
X156662382Y-75405275D01*
X156616625Y-75457450D01*
X156550000Y-75476869D01*
X156483375Y-75457450D01*
X156437618Y-75405275D01*
X156410568Y-75347266D01*
X156280047Y-75160861D01*
X156280046Y-75160859D01*
X156119140Y-74999953D01*
X155932735Y-74869432D01*
X155726497Y-74773261D01*
X155506689Y-74714364D01*
X155280000Y-74694531D01*
X155053310Y-74714364D01*
X154833502Y-74773261D01*
X154627264Y-74869432D01*
X154440859Y-74999953D01*
X154279953Y-75160859D01*
X154149433Y-75347263D01*
X154122382Y-75405275D01*
X154076625Y-75457450D01*
X154010000Y-75476869D01*
X153943375Y-75457450D01*
X153897618Y-75405275D01*
X153870568Y-75347266D01*
X153740047Y-75160861D01*
X153740046Y-75160859D01*
X153579140Y-74999953D01*
X153392735Y-74869432D01*
X153186497Y-74773261D01*
X152966689Y-74714364D01*
X152740000Y-74694531D01*
X152513307Y-74714364D01*
X152452837Y-74730567D01*
X152388651Y-74730567D01*
X152333064Y-74698473D01*
X149411819Y-71777228D01*
X149384939Y-71737000D01*
X149375500Y-71689547D01*
X149375500Y-68582741D01*
X149377763Y-68562237D01*
X149375561Y-68492145D01*
X149375500Y-68488251D01*
X149375500Y-68460657D01*
X149375500Y-68460650D01*
X149374995Y-68456653D01*
X149374080Y-68445023D01*
X149372709Y-68401373D01*
X149367120Y-68382140D01*
X149363174Y-68363082D01*
X149360664Y-68343208D01*
X149357264Y-68334620D01*
X149344585Y-68302597D01*
X149340804Y-68291552D01*
X149328619Y-68249613D01*
X149328618Y-68249612D01*
X149328618Y-68249610D01*
X149318417Y-68232361D01*
X149309860Y-68214895D01*
X149302486Y-68196268D01*
X149276813Y-68160932D01*
X149270402Y-68151172D01*
X149248169Y-68113578D01*
X149234006Y-68099415D01*
X149221369Y-68084620D01*
X149209595Y-68068414D01*
X149209594Y-68068413D01*
X149175935Y-68040568D01*
X149167305Y-68032714D01*
X147250802Y-66116211D01*
X147237906Y-66100113D01*
X147186775Y-66052098D01*
X147183978Y-66049387D01*
X147164470Y-66029879D01*
X147161290Y-66027412D01*
X147152424Y-66019839D01*
X147120582Y-65989938D01*
X147103024Y-65980285D01*
X147086764Y-65969604D01*
X147070936Y-65957327D01*
X147030851Y-65939980D01*
X147020361Y-65934841D01*
X146982091Y-65913802D01*
X146962691Y-65908821D01*
X146944284Y-65902519D01*
X146925897Y-65894562D01*
X146908408Y-65891791D01*
X146890483Y-65888952D01*
X146835255Y-65865508D01*
X146806599Y-65830117D01*
X146805257Y-65831057D01*
X146799034Y-65822169D01*
X146663495Y-65628599D01*
X146496401Y-65461505D01*
X146302829Y-65325965D01*
X146088663Y-65226097D01*
X146075511Y-65222573D01*
X145860407Y-65164936D01*
X145683968Y-65149500D01*
X145683966Y-65149500D01*
X145316034Y-65149500D01*
X145316032Y-65149500D01*
X145139592Y-65164936D01*
X144911336Y-65226097D01*
X144697170Y-65325965D01*
X144503598Y-65461505D01*
X144336508Y-65628595D01*
X144336505Y-65628598D01*
X144336505Y-65628599D01*
X144292363Y-65691641D01*
X144200964Y-65822172D01*
X144101097Y-66036337D01*
X144039936Y-66264592D01*
X144019340Y-66500000D01*
X144039936Y-66735407D01*
X144101097Y-66963663D01*
X144200965Y-67177829D01*
X144336505Y-67371401D01*
X144503598Y-67538494D01*
X144661032Y-67648730D01*
X144699898Y-67693048D01*
X144713909Y-67750305D01*
X144699898Y-67807562D01*
X144661033Y-67851880D01*
X144503918Y-67961893D01*
X144336893Y-68128918D01*
X144201399Y-68322423D01*
X144101569Y-68536507D01*
X144044364Y-68749999D01*
X144044364Y-68750000D01*
X146955636Y-68750000D01*
X146955635Y-68749999D01*
X146898430Y-68536507D01*
X146798599Y-68322421D01*
X146663109Y-68128921D01*
X146496078Y-67961890D01*
X146338967Y-67851880D01*
X146300101Y-67807562D01*
X146286090Y-67750305D01*
X146300101Y-67693048D01*
X146338964Y-67648732D01*
X146496401Y-67538495D01*
X146612472Y-67422423D01*
X146668059Y-67390330D01*
X146732247Y-67390330D01*
X146787833Y-67422423D01*
X147450029Y-68084620D01*
X148088181Y-68722772D01*
X148115061Y-68763000D01*
X148124500Y-68810453D01*
X148124500Y-71917256D01*
X148122235Y-71937762D01*
X148124439Y-72007873D01*
X148124500Y-72011768D01*
X148124500Y-72039349D01*
X148125003Y-72043334D01*
X148125918Y-72054967D01*
X148127290Y-72098626D01*
X148132879Y-72117860D01*
X148136825Y-72136916D01*
X148139335Y-72156792D01*
X148155414Y-72197404D01*
X148159197Y-72208451D01*
X148171382Y-72250391D01*
X148181580Y-72267635D01*
X148190136Y-72285100D01*
X148197514Y-72303732D01*
X148197515Y-72303733D01*
X148223180Y-72339059D01*
X148229593Y-72348822D01*
X148251826Y-72386416D01*
X148251829Y-72386419D01*
X148251830Y-72386420D01*
X148265995Y-72400585D01*
X148278627Y-72415375D01*
X148290406Y-72431587D01*
X148324058Y-72459426D01*
X148332699Y-72467289D01*
X150353549Y-74488139D01*
X150384450Y-74539566D01*
X150387590Y-74599480D01*
X150362235Y-74653855D01*
X150314320Y-74689962D01*
X150255062Y-74699348D01*
X150200001Y-74694531D01*
X149973307Y-74714364D01*
X149904950Y-74732680D01*
X149840764Y-74732680D01*
X149785177Y-74700586D01*
X148500802Y-73416211D01*
X148487906Y-73400113D01*
X148436775Y-73352098D01*
X148433978Y-73349387D01*
X148414470Y-73329879D01*
X148411290Y-73327412D01*
X148402424Y-73319839D01*
X148370582Y-73289938D01*
X148353024Y-73280285D01*
X148336764Y-73269604D01*
X148320936Y-73257327D01*
X148280851Y-73239980D01*
X148270361Y-73234841D01*
X148232091Y-73213802D01*
X148212691Y-73208821D01*
X148194284Y-73202519D01*
X148175897Y-73194562D01*
X148132758Y-73187729D01*
X148121324Y-73185361D01*
X148079019Y-73174500D01*
X148058984Y-73174500D01*
X148039586Y-73172973D01*
X148032162Y-73171797D01*
X148019805Y-73169840D01*
X148019804Y-73169840D01*
X147986751Y-73172964D01*
X147976325Y-73173950D01*
X147964656Y-73174500D01*
X143922953Y-73174500D01*
X143875500Y-73165061D01*
X143835272Y-73138181D01*
X142847099Y-72150008D01*
X144024500Y-72150008D01*
X144035000Y-72252796D01*
X144090186Y-72419334D01*
X144182288Y-72568657D01*
X144306342Y-72692711D01*
X144306344Y-72692712D01*
X144455666Y-72784814D01*
X144533287Y-72810535D01*
X144622202Y-72839999D01*
X144632702Y-72841071D01*
X144724991Y-72850500D01*
X146275008Y-72850499D01*
X146377797Y-72839999D01*
X146544334Y-72784814D01*
X146693656Y-72692712D01*
X146817712Y-72568656D01*
X146909814Y-72419334D01*
X146964999Y-72252797D01*
X146975500Y-72150009D01*
X146975499Y-70849992D01*
X146964999Y-70747203D01*
X146909814Y-70580666D01*
X146817712Y-70431344D01*
X146817711Y-70431342D01*
X146693657Y-70307288D01*
X146538441Y-70211551D01*
X146498957Y-70172638D01*
X146480375Y-70120408D01*
X146486411Y-70065301D01*
X146515856Y-70018330D01*
X146663109Y-69871077D01*
X146798600Y-69677576D01*
X146898430Y-69463492D01*
X146955636Y-69250000D01*
X144044364Y-69250000D01*
X144101569Y-69463492D01*
X144201400Y-69677578D01*
X144336890Y-69871078D01*
X144484143Y-70018331D01*
X144513588Y-70065301D01*
X144519624Y-70120408D01*
X144501042Y-70172637D01*
X144461559Y-70211551D01*
X144306341Y-70307289D01*
X144182288Y-70431342D01*
X144090186Y-70580665D01*
X144035000Y-70747202D01*
X144024500Y-70849990D01*
X144024500Y-72150008D01*
X142847099Y-72150008D01*
X142161819Y-71464728D01*
X142134939Y-71424500D01*
X142125500Y-71377047D01*
X142125500Y-68582741D01*
X142127763Y-68562237D01*
X142125561Y-68492145D01*
X142125500Y-68488251D01*
X142125500Y-68460657D01*
X142125500Y-68460650D01*
X142124995Y-68456653D01*
X142124080Y-68445023D01*
X142122709Y-68401373D01*
X142117120Y-68382140D01*
X142113174Y-68363082D01*
X142110664Y-68343208D01*
X142107264Y-68334620D01*
X142094585Y-68302597D01*
X142090804Y-68291552D01*
X142078619Y-68249613D01*
X142078618Y-68249612D01*
X142078618Y-68249610D01*
X142068417Y-68232361D01*
X142059860Y-68214895D01*
X142052486Y-68196268D01*
X142026813Y-68160932D01*
X142020402Y-68151172D01*
X141998169Y-68113578D01*
X141984006Y-68099415D01*
X141971369Y-68084620D01*
X141959595Y-68068414D01*
X141959594Y-68068413D01*
X141925935Y-68040568D01*
X141917305Y-68032714D01*
X140000802Y-66116211D01*
X139987906Y-66100113D01*
X139936775Y-66052098D01*
X139933978Y-66049387D01*
X139914470Y-66029879D01*
X139911290Y-66027412D01*
X139902424Y-66019839D01*
X139870582Y-65989938D01*
X139853024Y-65980285D01*
X139836764Y-65969604D01*
X139820936Y-65957327D01*
X139780851Y-65939980D01*
X139770361Y-65934841D01*
X139732091Y-65913802D01*
X139712691Y-65908821D01*
X139694284Y-65902519D01*
X139675897Y-65894562D01*
X139658408Y-65891791D01*
X139640483Y-65888952D01*
X139585255Y-65865508D01*
X139556599Y-65830117D01*
X139555257Y-65831057D01*
X139549034Y-65822169D01*
X139413495Y-65628599D01*
X139246401Y-65461505D01*
X139052829Y-65325965D01*
X138838663Y-65226097D01*
X138825511Y-65222573D01*
X138610407Y-65164936D01*
X138433968Y-65149500D01*
X138433966Y-65149500D01*
X138066034Y-65149500D01*
X138066032Y-65149500D01*
X137889592Y-65164936D01*
X137661336Y-65226097D01*
X137447170Y-65325965D01*
X137253598Y-65461505D01*
X137086508Y-65628595D01*
X137086505Y-65628598D01*
X137086505Y-65628599D01*
X137042363Y-65691641D01*
X136950964Y-65822172D01*
X136851097Y-66036337D01*
X136789936Y-66264592D01*
X136769340Y-66500000D01*
X136789936Y-66735407D01*
X136851097Y-66963663D01*
X136950965Y-67177829D01*
X137086505Y-67371401D01*
X137253598Y-67538494D01*
X137411032Y-67648730D01*
X137449898Y-67693048D01*
X137463909Y-67750305D01*
X137449898Y-67807562D01*
X137411033Y-67851880D01*
X137253918Y-67961893D01*
X137086893Y-68128918D01*
X136951399Y-68322423D01*
X136851569Y-68536507D01*
X136794364Y-68749999D01*
X136794364Y-68750000D01*
X139705636Y-68750000D01*
X139705635Y-68749999D01*
X139648430Y-68536507D01*
X139548599Y-68322421D01*
X139413109Y-68128921D01*
X139246078Y-67961890D01*
X139088967Y-67851880D01*
X139050101Y-67807562D01*
X139036090Y-67750305D01*
X139050101Y-67693048D01*
X139088964Y-67648732D01*
X139246401Y-67538495D01*
X139362472Y-67422423D01*
X139418059Y-67390330D01*
X139482247Y-67390330D01*
X139537833Y-67422423D01*
X140200029Y-68084620D01*
X140838181Y-68722772D01*
X140865061Y-68763000D01*
X140874500Y-68810453D01*
X140874500Y-71604756D01*
X140872235Y-71625262D01*
X140874439Y-71695373D01*
X140874500Y-71699268D01*
X140874500Y-71726849D01*
X140875003Y-71730834D01*
X140875918Y-71742467D01*
X140877290Y-71786126D01*
X140882879Y-71805360D01*
X140886825Y-71824416D01*
X140889335Y-71844292D01*
X140905414Y-71884904D01*
X140909197Y-71895951D01*
X140921382Y-71937891D01*
X140931580Y-71955135D01*
X140940136Y-71972600D01*
X140947514Y-71991232D01*
X140947515Y-71991233D01*
X140973180Y-72026559D01*
X140979593Y-72036322D01*
X141001826Y-72073916D01*
X141001829Y-72073919D01*
X141001830Y-72073920D01*
X141015995Y-72088085D01*
X141028627Y-72102875D01*
X141040406Y-72119087D01*
X141074058Y-72146926D01*
X141082699Y-72154789D01*
X142340728Y-73412819D01*
X142370978Y-73462182D01*
X142375520Y-73519898D01*
X142353365Y-73573385D01*
X142309342Y-73610985D01*
X142253047Y-73624500D01*
X136935453Y-73624500D01*
X136888000Y-73615061D01*
X136847772Y-73588181D01*
X135409599Y-72150008D01*
X136774500Y-72150008D01*
X136785000Y-72252796D01*
X136840186Y-72419334D01*
X136932288Y-72568657D01*
X137056342Y-72692711D01*
X137056344Y-72692712D01*
X137205666Y-72784814D01*
X137283287Y-72810535D01*
X137372202Y-72839999D01*
X137382702Y-72841071D01*
X137474991Y-72850500D01*
X139025008Y-72850499D01*
X139127797Y-72839999D01*
X139294334Y-72784814D01*
X139443656Y-72692712D01*
X139567712Y-72568656D01*
X139659814Y-72419334D01*
X139714999Y-72252797D01*
X139725500Y-72150009D01*
X139725499Y-70849992D01*
X139714999Y-70747203D01*
X139659814Y-70580666D01*
X139567712Y-70431344D01*
X139567711Y-70431342D01*
X139443657Y-70307288D01*
X139288441Y-70211551D01*
X139248957Y-70172638D01*
X139230375Y-70120408D01*
X139236411Y-70065301D01*
X139265856Y-70018330D01*
X139413109Y-69871077D01*
X139548600Y-69677576D01*
X139648430Y-69463492D01*
X139705636Y-69250000D01*
X136794364Y-69250000D01*
X136851569Y-69463492D01*
X136951400Y-69677578D01*
X137086890Y-69871078D01*
X137234143Y-70018331D01*
X137263588Y-70065301D01*
X137269624Y-70120408D01*
X137251042Y-70172637D01*
X137211559Y-70211551D01*
X137056341Y-70307289D01*
X136932288Y-70431342D01*
X136840186Y-70580665D01*
X136785000Y-70747202D01*
X136774500Y-70849990D01*
X136774500Y-72150008D01*
X135409599Y-72150008D01*
X134911819Y-71652228D01*
X134884939Y-71612000D01*
X134875500Y-71564547D01*
X134875500Y-68582741D01*
X134877763Y-68562237D01*
X134875561Y-68492145D01*
X134875500Y-68488251D01*
X134875500Y-68460657D01*
X134875500Y-68460650D01*
X134874995Y-68456653D01*
X134874080Y-68445023D01*
X134872709Y-68401373D01*
X134867120Y-68382140D01*
X134863174Y-68363082D01*
X134860664Y-68343208D01*
X134857264Y-68334620D01*
X134844585Y-68302597D01*
X134840804Y-68291552D01*
X134828619Y-68249613D01*
X134828618Y-68249612D01*
X134828618Y-68249610D01*
X134818417Y-68232361D01*
X134809860Y-68214895D01*
X134802486Y-68196268D01*
X134776813Y-68160932D01*
X134770402Y-68151172D01*
X134748169Y-68113578D01*
X134734006Y-68099415D01*
X134721369Y-68084620D01*
X134709595Y-68068414D01*
X134709594Y-68068413D01*
X134675935Y-68040568D01*
X134667305Y-68032714D01*
X132750802Y-66116211D01*
X132737906Y-66100113D01*
X132686775Y-66052098D01*
X132683978Y-66049387D01*
X132664470Y-66029879D01*
X132661290Y-66027412D01*
X132652424Y-66019839D01*
X132620582Y-65989938D01*
X132603024Y-65980285D01*
X132586764Y-65969604D01*
X132570936Y-65957327D01*
X132530851Y-65939980D01*
X132520361Y-65934841D01*
X132482091Y-65913802D01*
X132462691Y-65908821D01*
X132444284Y-65902519D01*
X132425897Y-65894562D01*
X132408408Y-65891791D01*
X132390483Y-65888952D01*
X132335255Y-65865508D01*
X132306599Y-65830117D01*
X132305257Y-65831057D01*
X132299034Y-65822169D01*
X132163495Y-65628599D01*
X131996401Y-65461505D01*
X131802829Y-65325965D01*
X131588663Y-65226097D01*
X131575511Y-65222573D01*
X131360407Y-65164936D01*
X131183968Y-65149500D01*
X131183966Y-65149500D01*
X130816034Y-65149500D01*
X130816032Y-65149500D01*
X130639592Y-65164936D01*
X130411336Y-65226097D01*
X130197170Y-65325965D01*
X130003598Y-65461505D01*
X129836508Y-65628595D01*
X129836505Y-65628598D01*
X129836505Y-65628599D01*
X129792363Y-65691641D01*
X129700964Y-65822172D01*
X129601097Y-66036337D01*
X129539936Y-66264592D01*
X129519340Y-66500000D01*
X129539936Y-66735407D01*
X129601097Y-66963663D01*
X129700965Y-67177829D01*
X129836505Y-67371401D01*
X130003598Y-67538494D01*
X130161032Y-67648730D01*
X130199898Y-67693048D01*
X130213909Y-67750305D01*
X130199898Y-67807562D01*
X130161033Y-67851880D01*
X130003918Y-67961893D01*
X129836893Y-68128918D01*
X129701399Y-68322423D01*
X129601569Y-68536507D01*
X129544364Y-68749999D01*
X129544364Y-68750000D01*
X132455636Y-68750000D01*
X132455635Y-68749999D01*
X132398430Y-68536507D01*
X132298599Y-68322421D01*
X132163109Y-68128921D01*
X131996078Y-67961890D01*
X131838967Y-67851880D01*
X131800101Y-67807562D01*
X131786090Y-67750305D01*
X131800101Y-67693048D01*
X131838964Y-67648732D01*
X131996401Y-67538495D01*
X132112472Y-67422423D01*
X132168059Y-67390330D01*
X132232247Y-67390330D01*
X132287833Y-67422423D01*
X132950029Y-68084620D01*
X133588181Y-68722772D01*
X133615061Y-68763000D01*
X133624500Y-68810453D01*
X133624500Y-71792256D01*
X133622235Y-71812762D01*
X133624439Y-71882873D01*
X133624500Y-71886768D01*
X133624500Y-71914349D01*
X133625003Y-71918334D01*
X133625918Y-71929967D01*
X133627290Y-71973626D01*
X133632879Y-71992860D01*
X133636825Y-72011916D01*
X133639335Y-72031792D01*
X133655414Y-72072404D01*
X133659197Y-72083451D01*
X133671382Y-72125391D01*
X133681580Y-72142635D01*
X133690136Y-72160100D01*
X133697514Y-72178732D01*
X133697515Y-72178733D01*
X133723180Y-72214059D01*
X133729593Y-72223822D01*
X133751826Y-72261416D01*
X133751829Y-72261419D01*
X133751830Y-72261420D01*
X133765995Y-72275585D01*
X133778627Y-72290375D01*
X133790406Y-72306587D01*
X133824058Y-72334426D01*
X133832699Y-72342289D01*
X135403228Y-73912819D01*
X135433478Y-73962182D01*
X135438020Y-74019898D01*
X135415865Y-74073385D01*
X135371842Y-74110985D01*
X135315547Y-74124500D01*
X130060453Y-74124500D01*
X130013000Y-74115061D01*
X129972772Y-74088181D01*
X128034599Y-72150008D01*
X129524500Y-72150008D01*
X129535000Y-72252796D01*
X129590186Y-72419334D01*
X129682288Y-72568657D01*
X129806342Y-72692711D01*
X129806344Y-72692712D01*
X129955666Y-72784814D01*
X130033287Y-72810535D01*
X130122202Y-72839999D01*
X130132702Y-72841071D01*
X130224991Y-72850500D01*
X131775008Y-72850499D01*
X131877797Y-72839999D01*
X132044334Y-72784814D01*
X132193656Y-72692712D01*
X132317712Y-72568656D01*
X132409814Y-72419334D01*
X132464999Y-72252797D01*
X132475500Y-72150009D01*
X132475499Y-70849992D01*
X132464999Y-70747203D01*
X132409814Y-70580666D01*
X132317712Y-70431344D01*
X132317711Y-70431342D01*
X132193657Y-70307288D01*
X132038441Y-70211551D01*
X131998957Y-70172638D01*
X131980375Y-70120408D01*
X131986411Y-70065301D01*
X132015856Y-70018330D01*
X132163109Y-69871077D01*
X132298600Y-69677576D01*
X132398430Y-69463492D01*
X132455636Y-69250000D01*
X129544364Y-69250000D01*
X129601569Y-69463492D01*
X129701400Y-69677578D01*
X129836890Y-69871078D01*
X129984143Y-70018331D01*
X130013588Y-70065301D01*
X130019624Y-70120408D01*
X130001042Y-70172637D01*
X129961559Y-70211551D01*
X129806341Y-70307289D01*
X129682288Y-70431342D01*
X129590186Y-70580665D01*
X129535000Y-70747202D01*
X129524500Y-70849990D01*
X129524500Y-72150008D01*
X128034599Y-72150008D01*
X127661819Y-71777228D01*
X127634939Y-71737000D01*
X127625500Y-71689547D01*
X127625500Y-68832744D01*
X127627764Y-68812236D01*
X127626318Y-68766223D01*
X127625561Y-68742113D01*
X127625500Y-68738219D01*
X127625500Y-68710654D01*
X127625500Y-68710650D01*
X127624997Y-68706670D01*
X127624081Y-68695028D01*
X127622710Y-68651373D01*
X127617118Y-68632126D01*
X127613174Y-68613085D01*
X127610664Y-68593208D01*
X127594579Y-68552583D01*
X127590806Y-68541562D01*
X127578618Y-68499610D01*
X127574203Y-68492145D01*
X127568419Y-68482364D01*
X127559861Y-68464897D01*
X127552486Y-68446268D01*
X127526808Y-68410926D01*
X127520405Y-68401176D01*
X127509151Y-68382146D01*
X127498171Y-68363580D01*
X127484006Y-68349415D01*
X127471369Y-68334620D01*
X127459595Y-68318414D01*
X127459594Y-68318413D01*
X127425935Y-68290568D01*
X127417305Y-68282714D01*
X125250802Y-66116211D01*
X125237906Y-66100113D01*
X125186775Y-66052098D01*
X125183978Y-66049387D01*
X125164470Y-66029879D01*
X125161290Y-66027412D01*
X125152424Y-66019839D01*
X125120582Y-65989938D01*
X125120581Y-65989937D01*
X125109161Y-65979213D01*
X125109500Y-65978851D01*
X125100663Y-65971984D01*
X125078823Y-65939665D01*
X125066763Y-65913803D01*
X125024035Y-65822171D01*
X124888495Y-65628599D01*
X124721401Y-65461505D01*
X124527829Y-65325965D01*
X124313663Y-65226097D01*
X124300511Y-65222573D01*
X124085407Y-65164936D01*
X123908968Y-65149500D01*
X123908966Y-65149500D01*
X123541034Y-65149500D01*
X123541032Y-65149500D01*
X123364592Y-65164936D01*
X123136336Y-65226097D01*
X122922170Y-65325965D01*
X122728598Y-65461505D01*
X122561508Y-65628595D01*
X122561505Y-65628598D01*
X122561505Y-65628599D01*
X122517363Y-65691641D01*
X122425964Y-65822172D01*
X122326097Y-66036337D01*
X122264936Y-66264592D01*
X122244340Y-66499999D01*
X122264936Y-66735407D01*
X122326097Y-66963663D01*
X122425965Y-67177829D01*
X122561505Y-67371401D01*
X122728598Y-67538494D01*
X122886032Y-67648730D01*
X122924898Y-67693048D01*
X122938909Y-67750305D01*
X122924898Y-67807562D01*
X122886033Y-67851880D01*
X122728918Y-67961893D01*
X122561893Y-68128918D01*
X122426399Y-68322423D01*
X122326569Y-68536507D01*
X122269364Y-68749999D01*
X122269364Y-68750000D01*
X125180636Y-68750000D01*
X125180635Y-68749999D01*
X125123430Y-68536507D01*
X125023599Y-68322421D01*
X124888109Y-68128921D01*
X124721078Y-67961890D01*
X124563967Y-67851880D01*
X124525101Y-67807562D01*
X124511090Y-67750305D01*
X124525101Y-67693048D01*
X124563964Y-67648732D01*
X124721401Y-67538495D01*
X124724972Y-67534923D01*
X124780559Y-67502830D01*
X124844747Y-67502830D01*
X124900334Y-67534924D01*
X126338181Y-68972771D01*
X126365061Y-69012999D01*
X126374500Y-69060452D01*
X126374500Y-71917256D01*
X126372235Y-71937762D01*
X126374439Y-72007873D01*
X126374500Y-72011768D01*
X126374500Y-72039349D01*
X126375003Y-72043334D01*
X126375918Y-72054967D01*
X126377290Y-72098626D01*
X126382879Y-72117860D01*
X126386825Y-72136916D01*
X126389335Y-72156792D01*
X126405414Y-72197404D01*
X126409197Y-72208451D01*
X126421382Y-72250391D01*
X126431580Y-72267635D01*
X126440136Y-72285100D01*
X126447514Y-72303732D01*
X126447515Y-72303733D01*
X126473180Y-72339059D01*
X126479593Y-72348822D01*
X126501826Y-72386416D01*
X126501829Y-72386419D01*
X126501830Y-72386420D01*
X126515995Y-72400585D01*
X126528627Y-72415375D01*
X126540406Y-72431587D01*
X126574058Y-72459426D01*
X126582699Y-72467289D01*
X128990430Y-74875021D01*
X129022524Y-74930608D01*
X129022524Y-74994796D01*
X128990430Y-75050383D01*
X128879953Y-75160859D01*
X128749433Y-75347263D01*
X128722382Y-75405275D01*
X128676625Y-75457450D01*
X128610000Y-75476869D01*
X128543375Y-75457450D01*
X128497618Y-75405275D01*
X128470568Y-75347266D01*
X128340047Y-75160861D01*
X128340046Y-75160859D01*
X128179140Y-74999953D01*
X127992735Y-74869432D01*
X127786497Y-74773261D01*
X127566689Y-74714364D01*
X127340000Y-74694531D01*
X127113310Y-74714364D01*
X126893502Y-74773261D01*
X126687264Y-74869432D01*
X126500859Y-74999953D01*
X126339953Y-75160859D01*
X126209433Y-75347263D01*
X126182382Y-75405275D01*
X126136625Y-75457450D01*
X126070000Y-75476869D01*
X126003375Y-75457450D01*
X125957618Y-75405275D01*
X125930568Y-75347266D01*
X125800047Y-75160861D01*
X125800046Y-75160859D01*
X125639140Y-74999953D01*
X125452735Y-74869432D01*
X125246497Y-74773261D01*
X125026689Y-74714364D01*
X124800000Y-74694531D01*
X124573310Y-74714364D01*
X124353502Y-74773261D01*
X124147264Y-74869432D01*
X123960859Y-74999953D01*
X123799953Y-75160859D01*
X123669432Y-75347264D01*
X123573261Y-75553502D01*
X123514364Y-75773310D01*
X123494531Y-76000000D01*
X123514364Y-76226689D01*
X123573261Y-76446497D01*
X123669432Y-76652735D01*
X123799953Y-76839140D01*
X123960859Y-77000046D01*
X124147264Y-77130567D01*
X124147265Y-77130567D01*
X124147266Y-77130568D01*
X124353504Y-77226739D01*
X124573308Y-77285635D01*
X124800000Y-77305468D01*
X125026692Y-77285635D01*
X125246496Y-77226739D01*
X125452734Y-77130568D01*
X125639139Y-77000047D01*
X125800047Y-76839139D01*
X125930568Y-76652734D01*
X125957618Y-76594724D01*
X126003375Y-76542549D01*
X126070000Y-76523129D01*
X126136625Y-76542549D01*
X126182382Y-76594725D01*
X126209431Y-76652733D01*
X126339953Y-76839140D01*
X126500859Y-77000046D01*
X126687264Y-77130567D01*
X126687265Y-77130567D01*
X126687266Y-77130568D01*
X126893504Y-77226739D01*
X127113308Y-77285635D01*
X127340000Y-77305468D01*
X127566692Y-77285635D01*
X127786496Y-77226739D01*
X127992734Y-77130568D01*
X128179139Y-77000047D01*
X128340047Y-76839139D01*
X128470568Y-76652734D01*
X128497618Y-76594724D01*
X128543375Y-76542549D01*
X128610000Y-76523129D01*
X128676625Y-76542549D01*
X128722382Y-76594725D01*
X128749431Y-76652733D01*
X128879953Y-76839140D01*
X129040859Y-77000046D01*
X129227264Y-77130567D01*
X129227265Y-77130567D01*
X129227266Y-77130568D01*
X129433504Y-77226739D01*
X129653308Y-77285635D01*
X129880000Y-77305468D01*
X130106692Y-77285635D01*
X130326496Y-77226739D01*
X130532734Y-77130568D01*
X130719139Y-77000047D01*
X130880047Y-76839139D01*
X131010568Y-76652734D01*
X131037893Y-76594134D01*
X131083649Y-76541959D01*
X131150274Y-76522539D01*
X131216899Y-76541958D01*
X131262657Y-76594133D01*
X131289866Y-76652482D01*
X131420341Y-76838819D01*
X131581180Y-76999658D01*
X131767519Y-77130134D01*
X131973673Y-77226266D01*
X132169999Y-77278871D01*
X132170000Y-77278872D01*
X132170000Y-75874000D01*
X132186613Y-75812000D01*
X132232000Y-75766613D01*
X132294000Y-75750000D01*
X132546000Y-75750000D01*
X132608000Y-75766613D01*
X132653387Y-75812000D01*
X132670000Y-75874000D01*
X132670000Y-77278871D01*
X132866326Y-77226266D01*
X133072480Y-77130134D01*
X133258819Y-76999658D01*
X133419658Y-76838819D01*
X133550135Y-76652479D01*
X133577342Y-76594135D01*
X133623098Y-76541959D01*
X133689723Y-76522539D01*
X133756348Y-76541958D01*
X133802105Y-76594132D01*
X133829432Y-76652733D01*
X133829433Y-76652736D01*
X133959953Y-76839140D01*
X134120859Y-77000046D01*
X134307264Y-77130567D01*
X134307265Y-77130567D01*
X134307266Y-77130568D01*
X134513504Y-77226739D01*
X134733308Y-77285635D01*
X134960000Y-77305468D01*
X135186692Y-77285635D01*
X135406496Y-77226739D01*
X135612734Y-77130568D01*
X135799139Y-77000047D01*
X135960047Y-76839139D01*
X136090568Y-76652734D01*
X136117618Y-76594724D01*
X136163375Y-76542549D01*
X136230000Y-76523129D01*
X136296625Y-76542549D01*
X136342382Y-76594725D01*
X136369431Y-76652733D01*
X136499953Y-76839140D01*
X136660859Y-77000046D01*
X136847264Y-77130567D01*
X136847265Y-77130567D01*
X136847266Y-77130568D01*
X137053504Y-77226739D01*
X137273308Y-77285635D01*
X137500000Y-77305468D01*
X137726692Y-77285635D01*
X137946496Y-77226739D01*
X138152734Y-77130568D01*
X138339139Y-77000047D01*
X138500047Y-76839139D01*
X138630568Y-76652734D01*
X138657618Y-76594724D01*
X138703375Y-76542549D01*
X138770000Y-76523129D01*
X138836625Y-76542549D01*
X138882382Y-76594725D01*
X138909431Y-76652733D01*
X139039953Y-76839140D01*
X139200859Y-77000046D01*
X139387264Y-77130567D01*
X139387265Y-77130567D01*
X139387266Y-77130568D01*
X139593504Y-77226739D01*
X139813308Y-77285635D01*
X140040000Y-77305468D01*
X140266692Y-77285635D01*
X140486496Y-77226739D01*
X140692734Y-77130568D01*
X140879139Y-77000047D01*
X141040047Y-76839139D01*
X141170568Y-76652734D01*
X141197618Y-76594724D01*
X141243375Y-76542549D01*
X141310000Y-76523129D01*
X141376625Y-76542549D01*
X141422382Y-76594725D01*
X141449431Y-76652733D01*
X141579953Y-76839140D01*
X141740859Y-77000046D01*
X141927264Y-77130567D01*
X141927265Y-77130567D01*
X141927266Y-77130568D01*
X142133504Y-77226739D01*
X142353308Y-77285635D01*
X142580000Y-77305468D01*
X142806692Y-77285635D01*
X143026496Y-77226739D01*
X143232734Y-77130568D01*
X143419139Y-77000047D01*
X143580047Y-76839139D01*
X143710568Y-76652734D01*
X143737618Y-76594724D01*
X143783375Y-76542549D01*
X143850000Y-76523129D01*
X143916625Y-76542549D01*
X143962382Y-76594725D01*
X143989431Y-76652733D01*
X144119953Y-76839140D01*
X144280859Y-77000046D01*
X144467264Y-77130567D01*
X144467265Y-77130567D01*
X144467266Y-77130568D01*
X144673504Y-77226739D01*
X144893308Y-77285635D01*
X145120000Y-77305468D01*
X145346692Y-77285635D01*
X145566496Y-77226739D01*
X145772734Y-77130568D01*
X145959139Y-77000047D01*
X146120047Y-76839139D01*
X146250568Y-76652734D01*
X146277618Y-76594724D01*
X146323375Y-76542549D01*
X146390000Y-76523129D01*
X146456625Y-76542549D01*
X146502382Y-76594725D01*
X146529431Y-76652733D01*
X146659953Y-76839140D01*
X146820859Y-77000046D01*
X147007264Y-77130567D01*
X147007265Y-77130567D01*
X147007266Y-77130568D01*
X147213504Y-77226739D01*
X147433308Y-77285635D01*
X147660000Y-77305468D01*
X147886692Y-77285635D01*
X148106496Y-77226739D01*
X148312734Y-77130568D01*
X148499139Y-77000047D01*
X148660047Y-76839139D01*
X148790568Y-76652734D01*
X148817618Y-76594724D01*
X148863375Y-76542549D01*
X148930000Y-76523129D01*
X148996625Y-76542549D01*
X149042382Y-76594725D01*
X149069431Y-76652733D01*
X149199953Y-76839140D01*
X149360859Y-77000046D01*
X149547264Y-77130567D01*
X149547265Y-77130567D01*
X149547266Y-77130568D01*
X149753504Y-77226739D01*
X149973308Y-77285635D01*
X150200000Y-77305468D01*
X150426692Y-77285635D01*
X150646496Y-77226739D01*
X150852734Y-77130568D01*
X151039139Y-77000047D01*
X151200047Y-76839139D01*
X151330568Y-76652734D01*
X151357618Y-76594724D01*
X151403375Y-76542549D01*
X151470000Y-76523129D01*
X151536625Y-76542549D01*
X151582382Y-76594725D01*
X151609431Y-76652733D01*
X151739953Y-76839140D01*
X151900859Y-77000046D01*
X152087264Y-77130567D01*
X152087265Y-77130567D01*
X152087266Y-77130568D01*
X152293504Y-77226739D01*
X152513308Y-77285635D01*
X152740000Y-77305468D01*
X152966692Y-77285635D01*
X153186496Y-77226739D01*
X153392734Y-77130568D01*
X153579139Y-77000047D01*
X153740047Y-76839139D01*
X153870568Y-76652734D01*
X153897618Y-76594724D01*
X153943375Y-76542549D01*
X154010000Y-76523129D01*
X154076625Y-76542549D01*
X154122382Y-76594725D01*
X154149431Y-76652733D01*
X154279953Y-76839140D01*
X154440859Y-77000046D01*
X154627264Y-77130567D01*
X154627265Y-77130567D01*
X154627266Y-77130568D01*
X154833504Y-77226739D01*
X155053308Y-77285635D01*
X155280000Y-77305468D01*
X155506692Y-77285635D01*
X155726496Y-77226739D01*
X155932734Y-77130568D01*
X156119139Y-77000047D01*
X156280047Y-76839139D01*
X156410568Y-76652734D01*
X156437618Y-76594724D01*
X156483375Y-76542549D01*
X156550000Y-76523129D01*
X156616625Y-76542549D01*
X156662382Y-76594725D01*
X156689431Y-76652733D01*
X156819953Y-76839140D01*
X156980859Y-77000046D01*
X157167264Y-77130567D01*
X157167265Y-77130567D01*
X157167266Y-77130568D01*
X157373504Y-77226739D01*
X157593308Y-77285635D01*
X157820000Y-77305468D01*
X158046692Y-77285635D01*
X158266496Y-77226739D01*
X158472734Y-77130568D01*
X158659139Y-77000047D01*
X158820047Y-76839139D01*
X158950568Y-76652734D01*
X158977618Y-76594724D01*
X159023375Y-76542549D01*
X159090000Y-76523129D01*
X159156625Y-76542549D01*
X159202382Y-76594725D01*
X159229431Y-76652733D01*
X159359953Y-76839140D01*
X159520859Y-77000046D01*
X159707264Y-77130567D01*
X159707265Y-77130567D01*
X159707266Y-77130568D01*
X159913504Y-77226739D01*
X160133308Y-77285635D01*
X160360000Y-77305468D01*
X160586692Y-77285635D01*
X160806496Y-77226739D01*
X161012734Y-77130568D01*
X161054377Y-77101409D01*
X161117391Y-77079250D01*
X161182757Y-77092996D01*
X161231509Y-77138657D01*
X161249500Y-77202985D01*
X161249500Y-78684218D01*
X161240061Y-78731671D01*
X161213181Y-78771899D01*
X159596899Y-80388181D01*
X159556671Y-80415061D01*
X159509218Y-80424500D01*
X153024500Y-80424500D01*
X152962500Y-80407887D01*
X152917113Y-80362500D01*
X152900500Y-80300500D01*
X152900500Y-78424988D01*
X152889999Y-78322200D01*
X152834814Y-78155661D01*
X152742712Y-78006342D01*
X152618657Y-77882287D01*
X152469338Y-77790185D01*
X152302799Y-77735000D01*
X152200012Y-77724500D01*
X146799988Y-77724500D01*
X146697200Y-77735000D01*
X146530661Y-77790185D01*
X146381342Y-77882287D01*
X146257287Y-78006342D01*
X146165185Y-78155661D01*
X146110000Y-78322200D01*
X146099500Y-78424988D01*
X146099500Y-80300500D01*
X146082887Y-80362500D01*
X146037500Y-80407887D01*
X145975500Y-80424500D01*
X145524500Y-80424500D01*
X145462500Y-80407887D01*
X145417113Y-80362500D01*
X145400500Y-80300500D01*
X145400500Y-78424988D01*
X145389999Y-78322200D01*
X145334814Y-78155661D01*
X145242712Y-78006342D01*
X145118657Y-77882287D01*
X144969338Y-77790185D01*
X144802799Y-77735000D01*
X144700012Y-77724500D01*
X139299988Y-77724500D01*
X139197200Y-77735000D01*
X139030661Y-77790185D01*
X138881342Y-77882287D01*
X138757287Y-78006342D01*
X138665185Y-78155661D01*
X138610000Y-78322200D01*
X138599500Y-78424988D01*
X138599500Y-84425012D01*
X138610000Y-84527799D01*
X138665185Y-84694338D01*
X138757287Y-84843657D01*
X138881342Y-84967712D01*
X139030661Y-85059814D01*
X139030663Y-85059814D01*
X139030664Y-85059815D01*
X139197200Y-85114999D01*
X139299988Y-85125500D01*
X139299991Y-85125500D01*
X142349991Y-85125500D01*
X144700012Y-85125500D01*
X144802800Y-85114999D01*
X144969336Y-85059815D01*
X145118657Y-84967712D01*
X145242712Y-84843657D01*
X145334815Y-84694336D01*
X145389999Y-84527800D01*
X145400500Y-84425012D01*
X145400500Y-82549500D01*
X145417113Y-82487500D01*
X145462500Y-82442113D01*
X145524500Y-82425500D01*
X145975500Y-82425500D01*
X146037500Y-82442113D01*
X146082887Y-82487500D01*
X146099500Y-82549500D01*
X146099500Y-84425012D01*
X146110000Y-84527799D01*
X146165185Y-84694338D01*
X146257287Y-84843657D01*
X146381342Y-84967712D01*
X146530661Y-85059814D01*
X146530663Y-85059814D01*
X146530664Y-85059815D01*
X146697200Y-85114999D01*
X146799988Y-85125500D01*
X146799991Y-85125500D01*
X149849991Y-85125500D01*
X152200012Y-85125500D01*
X152302800Y-85114999D01*
X152469336Y-85059815D01*
X152618657Y-84967712D01*
X152742712Y-84843657D01*
X152834815Y-84694336D01*
X152889999Y-84527800D01*
X152900500Y-84425012D01*
X152900500Y-82549500D01*
X152917113Y-82487500D01*
X152962500Y-82442113D01*
X153024500Y-82425500D01*
X159617755Y-82425500D01*
X159674050Y-82439015D01*
X159718073Y-82476615D01*
X159740228Y-82530102D01*
X159735686Y-82587818D01*
X159705436Y-82637181D01*
X154331173Y-88011442D01*
X154289943Y-88038732D01*
X154241328Y-88047742D01*
X154193057Y-88037041D01*
X154029800Y-87964354D01*
X153844648Y-87925000D01*
X153844646Y-87925000D01*
X153655354Y-87925000D01*
X153655352Y-87925000D01*
X153470197Y-87964355D01*
X153297269Y-88041348D01*
X153144132Y-88152609D01*
X153096649Y-88205344D01*
X153047722Y-88238594D01*
X152988957Y-88245393D01*
X152933730Y-88224193D01*
X152894610Y-88179820D01*
X152880499Y-88122371D01*
X152880499Y-86824991D01*
X152869999Y-86722203D01*
X152869998Y-86722202D01*
X152814814Y-86555666D01*
X152722712Y-86406344D01*
X152722711Y-86406342D01*
X152598657Y-86282288D01*
X152449334Y-86190186D01*
X152282797Y-86135000D01*
X152180009Y-86124500D01*
X151379991Y-86124500D01*
X151277203Y-86135000D01*
X151110665Y-86190186D01*
X150961342Y-86282288D01*
X150837288Y-86406342D01*
X150745186Y-86555665D01*
X150690000Y-86722202D01*
X150686855Y-86752989D01*
X150667638Y-86807694D01*
X150625652Y-86847682D01*
X150570076Y-86864209D01*
X150513061Y-86853663D01*
X150479802Y-86838855D01*
X150294648Y-86799500D01*
X150294646Y-86799500D01*
X150105354Y-86799500D01*
X150105352Y-86799500D01*
X149920197Y-86838855D01*
X149747269Y-86915848D01*
X149594129Y-87027110D01*
X149467466Y-87167783D01*
X149372820Y-87331715D01*
X149314326Y-87511742D01*
X149294540Y-87700000D01*
X149314326Y-87888257D01*
X149372820Y-88068284D01*
X149467466Y-88232216D01*
X149594129Y-88372889D01*
X149747269Y-88484151D01*
X149920197Y-88561144D01*
X150105352Y-88600500D01*
X150105354Y-88600500D01*
X150294646Y-88600500D01*
X150294648Y-88600500D01*
X150479800Y-88561145D01*
X150479801Y-88561144D01*
X150479803Y-88561144D01*
X150508177Y-88548510D01*
X150565192Y-88537965D01*
X150620769Y-88554493D01*
X150662756Y-88594482D01*
X150681971Y-88649189D01*
X150690000Y-88727794D01*
X150690001Y-88727796D01*
X150690001Y-88727797D01*
X150701168Y-88761497D01*
X150706019Y-88819363D01*
X150683992Y-88873093D01*
X150639918Y-88910903D01*
X150583462Y-88924500D01*
X148416538Y-88924500D01*
X148360082Y-88910903D01*
X148316008Y-88873093D01*
X148293981Y-88819362D01*
X148298831Y-88761497D01*
X148309999Y-88727797D01*
X148320500Y-88625009D01*
X148320499Y-86824992D01*
X148309999Y-86722203D01*
X148254814Y-86555666D01*
X148162712Y-86406344D01*
X148162711Y-86406342D01*
X148038657Y-86282288D01*
X147889334Y-86190186D01*
X147722797Y-86135000D01*
X147620009Y-86124500D01*
X146819991Y-86124500D01*
X146717203Y-86135000D01*
X146550665Y-86190186D01*
X146401342Y-86282288D01*
X146277288Y-86406342D01*
X146185186Y-86555665D01*
X146130000Y-86722202D01*
X146119500Y-86824991D01*
X146119500Y-87889546D01*
X146110061Y-87936999D01*
X146083181Y-87977227D01*
X145592180Y-88468227D01*
X145542817Y-88498477D01*
X145485101Y-88503019D01*
X145431614Y-88480864D01*
X145394014Y-88436841D01*
X145380499Y-88380549D01*
X145380499Y-86824992D01*
X145369999Y-86722203D01*
X145314814Y-86555666D01*
X145222712Y-86406344D01*
X145222711Y-86406342D01*
X145098657Y-86282288D01*
X144949334Y-86190186D01*
X144782797Y-86135000D01*
X144680009Y-86124500D01*
X143879991Y-86124500D01*
X143777203Y-86135000D01*
X143610665Y-86190186D01*
X143461342Y-86282288D01*
X143337288Y-86406342D01*
X143245186Y-86555665D01*
X143190000Y-86722202D01*
X143179500Y-86824991D01*
X143179500Y-86836823D01*
X143164473Y-86895991D01*
X143123036Y-86940818D01*
X143065229Y-86960441D01*
X143005065Y-86950103D01*
X142979801Y-86938854D01*
X142794648Y-86899500D01*
X142794646Y-86899500D01*
X142605354Y-86899500D01*
X142605352Y-86899500D01*
X142420197Y-86938855D01*
X142247269Y-87015848D01*
X142094129Y-87127110D01*
X141967466Y-87267783D01*
X141872820Y-87431715D01*
X141814326Y-87611742D01*
X141794540Y-87800000D01*
X141814326Y-87988257D01*
X141872820Y-88168284D01*
X141971095Y-88338500D01*
X141987708Y-88400500D01*
X141971095Y-88462500D01*
X141925708Y-88507887D01*
X141863708Y-88524500D01*
X141455453Y-88524500D01*
X141408000Y-88515061D01*
X141367772Y-88488181D01*
X140856818Y-87977227D01*
X140829938Y-87936999D01*
X140820499Y-87889546D01*
X140820499Y-86824991D01*
X140809999Y-86722203D01*
X140809998Y-86722202D01*
X140754814Y-86555666D01*
X140662712Y-86406344D01*
X140662711Y-86406342D01*
X140538657Y-86282288D01*
X140389334Y-86190186D01*
X140222797Y-86135000D01*
X140120009Y-86124500D01*
X139319991Y-86124500D01*
X139217201Y-86135000D01*
X139137620Y-86161371D01*
X139070020Y-86164322D01*
X139010936Y-86131346D01*
X138236818Y-85357228D01*
X138209938Y-85317000D01*
X138200499Y-85269547D01*
X138200499Y-84599991D01*
X138189999Y-84497203D01*
X138166077Y-84425012D01*
X138134814Y-84330666D01*
X138042712Y-84181344D01*
X138042711Y-84181342D01*
X137949049Y-84087680D01*
X137916955Y-84032092D01*
X137916955Y-83967905D01*
X137949048Y-83912319D01*
X138042712Y-83818656D01*
X138134814Y-83669334D01*
X138189999Y-83502797D01*
X138200500Y-83400009D01*
X138200499Y-82599992D01*
X138199255Y-82587818D01*
X138189999Y-82497203D01*
X138166239Y-82425500D01*
X138134814Y-82330666D01*
X138042712Y-82181344D01*
X137949047Y-82087679D01*
X137916955Y-82032094D01*
X137916955Y-81967906D01*
X137949047Y-81912320D01*
X138042712Y-81818656D01*
X138134814Y-81669334D01*
X138189999Y-81502797D01*
X138200500Y-81400009D01*
X138200499Y-80599992D01*
X138198670Y-80582092D01*
X138189999Y-80497203D01*
X138167405Y-80429019D01*
X138134814Y-80330666D01*
X138042712Y-80181344D01*
X138042711Y-80181342D01*
X137918657Y-80057288D01*
X137873246Y-80029278D01*
X137829773Y-79983642D01*
X137814350Y-79922529D01*
X137825570Y-79881464D01*
X137823152Y-79880679D01*
X137846567Y-79808614D01*
X137885674Y-79688256D01*
X137905460Y-79500000D01*
X137885674Y-79311744D01*
X137827179Y-79131716D01*
X137827179Y-79131715D01*
X137732533Y-78967783D01*
X137605870Y-78827110D01*
X137452730Y-78715848D01*
X137279802Y-78638855D01*
X137094648Y-78599500D01*
X137094646Y-78599500D01*
X136905354Y-78599500D01*
X136905352Y-78599500D01*
X136720197Y-78638855D01*
X136547269Y-78715848D01*
X136394129Y-78827110D01*
X136267466Y-78967783D01*
X136172820Y-79131715D01*
X136114326Y-79311742D01*
X136094540Y-79500000D01*
X136114326Y-79688257D01*
X136176848Y-79880679D01*
X136174430Y-79881464D01*
X136185649Y-79922542D01*
X136170224Y-79983647D01*
X136126753Y-80029278D01*
X136081342Y-80057288D01*
X135957288Y-80181342D01*
X135865186Y-80330665D01*
X135810000Y-80497202D01*
X135799500Y-80599990D01*
X135799500Y-81400008D01*
X135810000Y-81502796D01*
X135865186Y-81669334D01*
X135957288Y-81818657D01*
X136050950Y-81912319D01*
X136083044Y-81967906D01*
X136083044Y-82032094D01*
X136050950Y-82087681D01*
X135957288Y-82181342D01*
X135865186Y-82330665D01*
X135810000Y-82497202D01*
X135799500Y-82599991D01*
X135799500Y-83264546D01*
X135790061Y-83311999D01*
X135763181Y-83352227D01*
X135642181Y-83473227D01*
X135592818Y-83503477D01*
X135535102Y-83508019D01*
X135481615Y-83485864D01*
X135444015Y-83441841D01*
X135430500Y-83385546D01*
X135430500Y-78424988D01*
X135419999Y-78322200D01*
X135364814Y-78155661D01*
X135272712Y-78006342D01*
X135148657Y-77882287D01*
X134999338Y-77790185D01*
X134832799Y-77735000D01*
X134730012Y-77724500D01*
X129329988Y-77724500D01*
X129227200Y-77735000D01*
X129060661Y-77790185D01*
X128911342Y-77882287D01*
X128787287Y-78006342D01*
X128695185Y-78155661D01*
X128640000Y-78322200D01*
X128629500Y-78424988D01*
X128629500Y-80300500D01*
X128612887Y-80362500D01*
X128567500Y-80407887D01*
X128505500Y-80424500D01*
X128024500Y-80424500D01*
X127962500Y-80407887D01*
X127917113Y-80362500D01*
X127900500Y-80300500D01*
X127900500Y-78424988D01*
X127889999Y-78322200D01*
X127834814Y-78155661D01*
X127742712Y-78006342D01*
X127618657Y-77882287D01*
X127469338Y-77790185D01*
X127302799Y-77735000D01*
X127200012Y-77724500D01*
X121799988Y-77724500D01*
X121697200Y-77735000D01*
X121530661Y-77790185D01*
X121381342Y-77882287D01*
X121257287Y-78006342D01*
X121165185Y-78155661D01*
X121110000Y-78322200D01*
X121099500Y-78424988D01*
X121099500Y-84425012D01*
X121110000Y-84527799D01*
X121165185Y-84694338D01*
X121257287Y-84843657D01*
X121381342Y-84967712D01*
X121530661Y-85059814D01*
X121530663Y-85059814D01*
X121530664Y-85059815D01*
X121697200Y-85114999D01*
X121799988Y-85125500D01*
X121799991Y-85125500D01*
X124849991Y-85125500D01*
X127200012Y-85125500D01*
X127302800Y-85114999D01*
X127469336Y-85059815D01*
X127618657Y-84967712D01*
X127742712Y-84843657D01*
X127834815Y-84694336D01*
X127889999Y-84527800D01*
X127900500Y-84425012D01*
X127900500Y-82549500D01*
X127917113Y-82487500D01*
X127962500Y-82442113D01*
X128024500Y-82425500D01*
X128505500Y-82425500D01*
X128567500Y-82442113D01*
X128612887Y-82487500D01*
X128629500Y-82549500D01*
X128629500Y-84425012D01*
X128640000Y-84527799D01*
X128695185Y-84694338D01*
X128787287Y-84843657D01*
X128911342Y-84967712D01*
X129060661Y-85059814D01*
X129227200Y-85114999D01*
X129329988Y-85125500D01*
X134660500Y-85125500D01*
X134722500Y-85142113D01*
X134767887Y-85187500D01*
X134784500Y-85249500D01*
X134784500Y-86000500D01*
X134767887Y-86062500D01*
X134722500Y-86107887D01*
X134660500Y-86124500D01*
X133909991Y-86124500D01*
X133807203Y-86135000D01*
X133640665Y-86190186D01*
X133491342Y-86282288D01*
X133367288Y-86406342D01*
X133275186Y-86555665D01*
X133220000Y-86722202D01*
X133215550Y-86765764D01*
X133196334Y-86820469D01*
X133154347Y-86860457D01*
X133098771Y-86876985D01*
X133041756Y-86866439D01*
X132979802Y-86838855D01*
X132794648Y-86799500D01*
X132794646Y-86799500D01*
X132605354Y-86799500D01*
X132605352Y-86799500D01*
X132420197Y-86838855D01*
X132247269Y-86915848D01*
X132094129Y-87027110D01*
X131967466Y-87167783D01*
X131872820Y-87331715D01*
X131814326Y-87511742D01*
X131794540Y-87700000D01*
X131814326Y-87888257D01*
X131872820Y-88068284D01*
X131967466Y-88232216D01*
X132044282Y-88317528D01*
X132071564Y-88367154D01*
X132073936Y-88423735D01*
X132050902Y-88475470D01*
X132007267Y-88511568D01*
X131952132Y-88524500D01*
X131485453Y-88524500D01*
X131438000Y-88515061D01*
X131397772Y-88488181D01*
X130886818Y-87977227D01*
X130859938Y-87936999D01*
X130850499Y-87889546D01*
X130850499Y-86824991D01*
X130839999Y-86722203D01*
X130839998Y-86722202D01*
X130784814Y-86555666D01*
X130692712Y-86406344D01*
X130692711Y-86406342D01*
X130568657Y-86282288D01*
X130419334Y-86190186D01*
X130252797Y-86135000D01*
X130150009Y-86124500D01*
X129349991Y-86124500D01*
X129247203Y-86135000D01*
X129080665Y-86190186D01*
X128931342Y-86282288D01*
X128807288Y-86406342D01*
X128715186Y-86555665D01*
X128660000Y-86722202D01*
X128649500Y-86824991D01*
X128649500Y-87889546D01*
X128640061Y-87936999D01*
X128613181Y-87977227D01*
X128102228Y-88488181D01*
X128062000Y-88515061D01*
X128014547Y-88524500D01*
X128004500Y-88524500D01*
X127942500Y-88507887D01*
X127897113Y-88462500D01*
X127880500Y-88400500D01*
X127880499Y-86824991D01*
X127869999Y-86722203D01*
X127869998Y-86722202D01*
X127814814Y-86555666D01*
X127722712Y-86406344D01*
X127722711Y-86406342D01*
X127598657Y-86282288D01*
X127449334Y-86190186D01*
X127282797Y-86135000D01*
X127180009Y-86124500D01*
X126379991Y-86124500D01*
X126277203Y-86135000D01*
X126110665Y-86190186D01*
X125961342Y-86282288D01*
X125837288Y-86406342D01*
X125745186Y-86555665D01*
X125690000Y-86722202D01*
X125682505Y-86795573D01*
X125663289Y-86850278D01*
X125621303Y-86890267D01*
X125565727Y-86906795D01*
X125508712Y-86896250D01*
X125379800Y-86838854D01*
X125194648Y-86799500D01*
X125194646Y-86799500D01*
X125005354Y-86799500D01*
X125005352Y-86799500D01*
X124820197Y-86838855D01*
X124647269Y-86915848D01*
X124494129Y-87027110D01*
X124367466Y-87167783D01*
X124272820Y-87331715D01*
X124214326Y-87511742D01*
X124194540Y-87700000D01*
X124214326Y-87888257D01*
X124272820Y-88068284D01*
X124367466Y-88232216D01*
X124444282Y-88317528D01*
X124471564Y-88367154D01*
X124473936Y-88423735D01*
X124450902Y-88475470D01*
X124407267Y-88511568D01*
X124352132Y-88524500D01*
X123955453Y-88524500D01*
X123908000Y-88515061D01*
X123867772Y-88488181D01*
X123356818Y-87977227D01*
X123329938Y-87936999D01*
X123320499Y-87889546D01*
X123320499Y-86824991D01*
X123309999Y-86722203D01*
X123309998Y-86722202D01*
X123254814Y-86555666D01*
X123162712Y-86406344D01*
X123162711Y-86406342D01*
X123038657Y-86282288D01*
X122889334Y-86190186D01*
X122722797Y-86135000D01*
X122620009Y-86124500D01*
X121819991Y-86124500D01*
X121717203Y-86135000D01*
X121550665Y-86190186D01*
X121401342Y-86282288D01*
X121277288Y-86406342D01*
X121185186Y-86555665D01*
X121130000Y-86722202D01*
X121119500Y-86824990D01*
X121119500Y-88625008D01*
X121130000Y-88727796D01*
X121185186Y-88894334D01*
X121277288Y-89043657D01*
X121401342Y-89167711D01*
X121401344Y-89167712D01*
X121550666Y-89259814D01*
X121637621Y-89288628D01*
X121717202Y-89314999D01*
X121727703Y-89316071D01*
X121819991Y-89325500D01*
X122620008Y-89325499D01*
X122722797Y-89314999D01*
X122802378Y-89288627D01*
X122869977Y-89285676D01*
X122929062Y-89318653D01*
X123144196Y-89533787D01*
X123157096Y-89549888D01*
X123208223Y-89597900D01*
X123211019Y-89600610D01*
X123230529Y-89620120D01*
X123233711Y-89622588D01*
X123242571Y-89630155D01*
X123274417Y-89660061D01*
X123274418Y-89660062D01*
X123291970Y-89669711D01*
X123308238Y-89680397D01*
X123324064Y-89692673D01*
X123364146Y-89710017D01*
X123374633Y-89715155D01*
X123412907Y-89736197D01*
X123421410Y-89738379D01*
X123432308Y-89741178D01*
X123450713Y-89747478D01*
X123469104Y-89755437D01*
X123512250Y-89762270D01*
X123523668Y-89764635D01*
X123565981Y-89775500D01*
X123586016Y-89775500D01*
X123605415Y-89777027D01*
X123625196Y-89780160D01*
X123668207Y-89776094D01*
X123730936Y-89786544D01*
X123780236Y-89826716D01*
X123803139Y-89886042D01*
X123793621Y-89948920D01*
X123754187Y-89998810D01*
X123723817Y-90021545D01*
X123642454Y-90082453D01*
X123556204Y-90197668D01*
X123505909Y-90332516D01*
X123499500Y-90392130D01*
X123499500Y-92087869D01*
X123505909Y-92147483D01*
X123556204Y-92282331D01*
X123642454Y-92397546D01*
X123757669Y-92483796D01*
X123892517Y-92534091D01*
X123952127Y-92540500D01*
X125647872Y-92540499D01*
X125707483Y-92534091D01*
X125842331Y-92483796D01*
X125957546Y-92397546D01*
X126043796Y-92282331D01*
X126094091Y-92147483D01*
X126097862Y-92112405D01*
X126118239Y-92056486D01*
X126162328Y-92016501D01*
X126219969Y-92001667D01*
X126277882Y-92015400D01*
X126322725Y-92054537D01*
X126339951Y-92079138D01*
X126500859Y-92240046D01*
X126687264Y-92370567D01*
X126687265Y-92370567D01*
X126687266Y-92370568D01*
X126893504Y-92466739D01*
X127113308Y-92525635D01*
X127340000Y-92545468D01*
X127566692Y-92525635D01*
X127786496Y-92466739D01*
X127992734Y-92370568D01*
X128179139Y-92240047D01*
X128340047Y-92079139D01*
X128470568Y-91892734D01*
X128497618Y-91834724D01*
X128543375Y-91782549D01*
X128610000Y-91763129D01*
X128676625Y-91782549D01*
X128722382Y-91834725D01*
X128749431Y-91892733D01*
X128879953Y-92079140D01*
X129040859Y-92240046D01*
X129227264Y-92370567D01*
X129227265Y-92370567D01*
X129227266Y-92370568D01*
X129433504Y-92466739D01*
X129653308Y-92525635D01*
X129880000Y-92545468D01*
X130106692Y-92525635D01*
X130326496Y-92466739D01*
X130532734Y-92370568D01*
X130719139Y-92240047D01*
X130880047Y-92079139D01*
X131010568Y-91892734D01*
X131037618Y-91834724D01*
X131083375Y-91782549D01*
X131150000Y-91763129D01*
X131216625Y-91782549D01*
X131262382Y-91834725D01*
X131289431Y-91892733D01*
X131419953Y-92079140D01*
X131580859Y-92240046D01*
X131767264Y-92370567D01*
X131767265Y-92370567D01*
X131767266Y-92370568D01*
X131973504Y-92466739D01*
X132193308Y-92525635D01*
X132420000Y-92545468D01*
X132646692Y-92525635D01*
X132866496Y-92466739D01*
X133072734Y-92370568D01*
X133259139Y-92240047D01*
X133420047Y-92079139D01*
X133550568Y-91892734D01*
X133577618Y-91834724D01*
X133623375Y-91782549D01*
X133690000Y-91763129D01*
X133756625Y-91782549D01*
X133802382Y-91834725D01*
X133829431Y-91892733D01*
X133959953Y-92079140D01*
X134120859Y-92240046D01*
X134307264Y-92370567D01*
X134307265Y-92370567D01*
X134307266Y-92370568D01*
X134513504Y-92466739D01*
X134733308Y-92525635D01*
X134960000Y-92545468D01*
X135186692Y-92525635D01*
X135406496Y-92466739D01*
X135612734Y-92370568D01*
X135799139Y-92240047D01*
X135960047Y-92079139D01*
X136090568Y-91892734D01*
X136117618Y-91834724D01*
X136163375Y-91782549D01*
X136230000Y-91763129D01*
X136296625Y-91782549D01*
X136342382Y-91834725D01*
X136369431Y-91892733D01*
X136499953Y-92079140D01*
X136660859Y-92240046D01*
X136847264Y-92370567D01*
X136847265Y-92370567D01*
X136847266Y-92370568D01*
X137053504Y-92466739D01*
X137273308Y-92525635D01*
X137500000Y-92545468D01*
X137726692Y-92525635D01*
X137946496Y-92466739D01*
X138152734Y-92370568D01*
X138339139Y-92240047D01*
X138500047Y-92079139D01*
X138630568Y-91892734D01*
X138657618Y-91834724D01*
X138703375Y-91782549D01*
X138770000Y-91763129D01*
X138836625Y-91782549D01*
X138882382Y-91834725D01*
X138909431Y-91892733D01*
X139039953Y-92079140D01*
X139200859Y-92240046D01*
X139387264Y-92370567D01*
X139387265Y-92370567D01*
X139387266Y-92370568D01*
X139593504Y-92466739D01*
X139813308Y-92525635D01*
X140040000Y-92545468D01*
X140266692Y-92525635D01*
X140486496Y-92466739D01*
X140692734Y-92370568D01*
X140879139Y-92240047D01*
X141040047Y-92079139D01*
X141170568Y-91892734D01*
X141197618Y-91834724D01*
X141243375Y-91782549D01*
X141310000Y-91763129D01*
X141376625Y-91782549D01*
X141422382Y-91834725D01*
X141449431Y-91892733D01*
X141579953Y-92079140D01*
X141740859Y-92240046D01*
X141927264Y-92370567D01*
X141927265Y-92370567D01*
X141927266Y-92370568D01*
X142133504Y-92466739D01*
X142353308Y-92525635D01*
X142580000Y-92545468D01*
X142806692Y-92525635D01*
X143026496Y-92466739D01*
X143232734Y-92370568D01*
X143419139Y-92240047D01*
X143580047Y-92079139D01*
X143710568Y-91892734D01*
X143737618Y-91834724D01*
X143783375Y-91782549D01*
X143850000Y-91763129D01*
X143916625Y-91782549D01*
X143962382Y-91834725D01*
X143989431Y-91892733D01*
X144119953Y-92079140D01*
X144280859Y-92240046D01*
X144467264Y-92370567D01*
X144467265Y-92370567D01*
X144467266Y-92370568D01*
X144673504Y-92466739D01*
X144893308Y-92525635D01*
X145120000Y-92545468D01*
X145346692Y-92525635D01*
X145566496Y-92466739D01*
X145772734Y-92370568D01*
X145959139Y-92240047D01*
X146120047Y-92079139D01*
X146250568Y-91892734D01*
X146277618Y-91834724D01*
X146323375Y-91782549D01*
X146390000Y-91763129D01*
X146456625Y-91782549D01*
X146502382Y-91834725D01*
X146529431Y-91892733D01*
X146659953Y-92079140D01*
X146820859Y-92240046D01*
X147007264Y-92370567D01*
X147007265Y-92370567D01*
X147007266Y-92370568D01*
X147213504Y-92466739D01*
X147433308Y-92525635D01*
X147660000Y-92545468D01*
X147886692Y-92525635D01*
X148106496Y-92466739D01*
X148312734Y-92370568D01*
X148499139Y-92240047D01*
X148660047Y-92079139D01*
X148790568Y-91892734D01*
X148817618Y-91834724D01*
X148863375Y-91782549D01*
X148930000Y-91763129D01*
X148996625Y-91782549D01*
X149042382Y-91834725D01*
X149069431Y-91892733D01*
X149199953Y-92079140D01*
X149360859Y-92240046D01*
X149547264Y-92370567D01*
X149547265Y-92370567D01*
X149547266Y-92370568D01*
X149753504Y-92466739D01*
X149973308Y-92525635D01*
X150200000Y-92545468D01*
X150426692Y-92525635D01*
X150646496Y-92466739D01*
X150852734Y-92370568D01*
X151039139Y-92240047D01*
X151200047Y-92079139D01*
X151330568Y-91892734D01*
X151357618Y-91834724D01*
X151403375Y-91782549D01*
X151470000Y-91763129D01*
X151536625Y-91782549D01*
X151582382Y-91834725D01*
X151609431Y-91892733D01*
X151739953Y-92079140D01*
X151900859Y-92240046D01*
X152087264Y-92370567D01*
X152087265Y-92370567D01*
X152087266Y-92370568D01*
X152293504Y-92466739D01*
X152513308Y-92525635D01*
X152740000Y-92545468D01*
X152966692Y-92525635D01*
X153186496Y-92466739D01*
X153392734Y-92370568D01*
X153579139Y-92240047D01*
X153740047Y-92079139D01*
X153870568Y-91892734D01*
X153897618Y-91834724D01*
X153943375Y-91782549D01*
X154010000Y-91763129D01*
X154076625Y-91782549D01*
X154122382Y-91834725D01*
X154149431Y-91892733D01*
X154279953Y-92079140D01*
X154440859Y-92240046D01*
X154627264Y-92370567D01*
X154627265Y-92370567D01*
X154627266Y-92370568D01*
X154833504Y-92466739D01*
X155053308Y-92525635D01*
X155280000Y-92545468D01*
X155506692Y-92525635D01*
X155726496Y-92466739D01*
X155932734Y-92370568D01*
X156119139Y-92240047D01*
X156280047Y-92079139D01*
X156410568Y-91892734D01*
X156437618Y-91834724D01*
X156483375Y-91782549D01*
X156550000Y-91763129D01*
X156616625Y-91782549D01*
X156662382Y-91834725D01*
X156689431Y-91892733D01*
X156819953Y-92079140D01*
X156980859Y-92240046D01*
X157167264Y-92370567D01*
X157167265Y-92370567D01*
X157167266Y-92370568D01*
X157373504Y-92466739D01*
X157593308Y-92525635D01*
X157820000Y-92545468D01*
X158046692Y-92525635D01*
X158266496Y-92466739D01*
X158472734Y-92370568D01*
X158659139Y-92240047D01*
X158820047Y-92079139D01*
X158950568Y-91892734D01*
X158977618Y-91834724D01*
X159023375Y-91782549D01*
X159090000Y-91763129D01*
X159156625Y-91782549D01*
X159202382Y-91834725D01*
X159229431Y-91892733D01*
X159359953Y-92079140D01*
X159520859Y-92240046D01*
X159707264Y-92370567D01*
X159707265Y-92370567D01*
X159707266Y-92370568D01*
X159913504Y-92466739D01*
X160133308Y-92525635D01*
X160360000Y-92545468D01*
X160586692Y-92525635D01*
X160806496Y-92466739D01*
X161012734Y-92370568D01*
X161199139Y-92240047D01*
X161360047Y-92079139D01*
X161490568Y-91892734D01*
X161586739Y-91686496D01*
X161645635Y-91466692D01*
X161665468Y-91240000D01*
X161645635Y-91013308D01*
X161586739Y-90793504D01*
X161490568Y-90587266D01*
X161404677Y-90464600D01*
X161360046Y-90400859D01*
X161199140Y-90239953D01*
X161012735Y-90109432D01*
X160806497Y-90013261D01*
X160586689Y-89954364D01*
X160360000Y-89934531D01*
X160133310Y-89954364D01*
X159913502Y-90013261D01*
X159707264Y-90109432D01*
X159520859Y-90239953D01*
X159359953Y-90400859D01*
X159229433Y-90587263D01*
X159202382Y-90645275D01*
X159156625Y-90697450D01*
X159090000Y-90716869D01*
X159023375Y-90697450D01*
X158977618Y-90645275D01*
X158968397Y-90625500D01*
X158950568Y-90587266D01*
X158864677Y-90464600D01*
X158820046Y-90400859D01*
X158659140Y-90239953D01*
X158472735Y-90109432D01*
X158266497Y-90013261D01*
X158046689Y-89954364D01*
X157820000Y-89934531D01*
X157593310Y-89954364D01*
X157373502Y-90013261D01*
X157167264Y-90109432D01*
X156980859Y-90239953D01*
X156819953Y-90400859D01*
X156689433Y-90587263D01*
X156662382Y-90645275D01*
X156616625Y-90697450D01*
X156550000Y-90716869D01*
X156483375Y-90697450D01*
X156437618Y-90645275D01*
X156428397Y-90625500D01*
X156410568Y-90587266D01*
X156324677Y-90464600D01*
X156280046Y-90400859D01*
X156119140Y-90239953D01*
X155932735Y-90109432D01*
X155726498Y-90013262D01*
X155726496Y-90013261D01*
X155672568Y-89998811D01*
X155653838Y-89993792D01*
X155598251Y-89961698D01*
X155566158Y-89906110D01*
X155566158Y-89841923D01*
X155598250Y-89786338D01*
X164533789Y-80850800D01*
X164549885Y-80837906D01*
X164551873Y-80835787D01*
X164551877Y-80835786D01*
X164597948Y-80786723D01*
X164600566Y-80784023D01*
X164620120Y-80764471D01*
X164622581Y-80761298D01*
X164630156Y-80752427D01*
X164660062Y-80720582D01*
X164669712Y-80703027D01*
X164680400Y-80686757D01*
X164692671Y-80670938D01*
X164692673Y-80670936D01*
X164710026Y-80630832D01*
X164715157Y-80620362D01*
X164736197Y-80582092D01*
X164741175Y-80562699D01*
X164747481Y-80544282D01*
X164761662Y-80511516D01*
X164765106Y-80513006D01*
X164777134Y-80485023D01*
X164825076Y-80447237D01*
X164885238Y-80436905D01*
X164943040Y-80456530D01*
X164984475Y-80501357D01*
X164999500Y-80560522D01*
X164999500Y-95922262D01*
X164984527Y-95981331D01*
X164943223Y-96026135D01*
X164885564Y-96045853D01*
X164825474Y-96035723D01*
X164777466Y-95998192D01*
X164753133Y-95942325D01*
X164728071Y-95789448D01*
X164703504Y-95700964D01*
X164632325Y-95444598D01*
X164499853Y-95112118D01*
X164332213Y-94795919D01*
X164332211Y-94795915D01*
X164131365Y-94499689D01*
X164131363Y-94499686D01*
X163899667Y-94226913D01*
X163639838Y-93980789D01*
X163354918Y-93764199D01*
X163048250Y-93579683D01*
X162723439Y-93429411D01*
X162723440Y-93429411D01*
X162723435Y-93429409D01*
X162384274Y-93315132D01*
X162384273Y-93315131D01*
X162384271Y-93315131D01*
X162172189Y-93268448D01*
X162034746Y-93238195D01*
X161856846Y-93218847D01*
X161678949Y-93199500D01*
X161678948Y-93199500D01*
X161321052Y-93199500D01*
X161321051Y-93199500D01*
X160965254Y-93238195D01*
X160615728Y-93315131D01*
X160443283Y-93373234D01*
X160276565Y-93429409D01*
X160276562Y-93429410D01*
X160276560Y-93429411D01*
X159951749Y-93579683D01*
X159645081Y-93764199D01*
X159360161Y-93980789D01*
X159100332Y-94226913D01*
X158868636Y-94499686D01*
X158667786Y-94795919D01*
X158500146Y-95112118D01*
X158367674Y-95444598D01*
X158271930Y-95789440D01*
X158214027Y-96142635D01*
X158194651Y-96499999D01*
X158214027Y-96857364D01*
X158271930Y-97210559D01*
X158367674Y-97555401D01*
X158500146Y-97887881D01*
X158606710Y-98088879D01*
X158667789Y-98204085D01*
X158766067Y-98349034D01*
X158868636Y-98500313D01*
X159100332Y-98773086D01*
X159360161Y-99019210D01*
X159645081Y-99235800D01*
X159951747Y-99420315D01*
X160276565Y-99570591D01*
X160615726Y-99684868D01*
X160931609Y-99754399D01*
X160985229Y-99780992D01*
X161020146Y-99829603D01*
X161028226Y-99888907D01*
X161007586Y-99945087D01*
X160963036Y-99985055D01*
X160904953Y-99999500D01*
X124095047Y-99999500D01*
X124036964Y-99985055D01*
X123992414Y-99945087D01*
X123971774Y-99888907D01*
X123979854Y-99829603D01*
X124014771Y-99780992D01*
X124068390Y-99754399D01*
X124384274Y-99684868D01*
X124723435Y-99570591D01*
X125048253Y-99420315D01*
X125354919Y-99235800D01*
X125639837Y-99019211D01*
X125899668Y-98773086D01*
X126131365Y-98500311D01*
X126332211Y-98204085D01*
X126424597Y-98029826D01*
X126499853Y-97887881D01*
X126632325Y-97555401D01*
X126721570Y-97233968D01*
X147899500Y-97233968D01*
X147914936Y-97410407D01*
X147953787Y-97555401D01*
X147976097Y-97638663D01*
X148075965Y-97852829D01*
X148211505Y-98046401D01*
X148378599Y-98213495D01*
X148572170Y-98349035D01*
X148786337Y-98448903D01*
X149014592Y-98510063D01*
X149250000Y-98530659D01*
X149485408Y-98510063D01*
X149713663Y-98448903D01*
X149927829Y-98349035D01*
X150121401Y-98213495D01*
X150268602Y-98066294D01*
X150315572Y-98036849D01*
X150370679Y-98030814D01*
X150422909Y-98049395D01*
X150461822Y-98088879D01*
X150465185Y-98094331D01*
X150465186Y-98094334D01*
X150510840Y-98168352D01*
X150557288Y-98243657D01*
X150681342Y-98367711D01*
X150681344Y-98367712D01*
X150830666Y-98459814D01*
X150942017Y-98496712D01*
X150997202Y-98514999D01*
X151007703Y-98516071D01*
X151099991Y-98525500D01*
X152400008Y-98525499D01*
X152502797Y-98514999D01*
X152669334Y-98459814D01*
X152818656Y-98367712D01*
X152942712Y-98243656D01*
X153034814Y-98094334D01*
X153089999Y-97927797D01*
X153100500Y-97825009D01*
X153100499Y-96224992D01*
X153089999Y-96122203D01*
X153034814Y-95955666D01*
X152942712Y-95806344D01*
X152942711Y-95806342D01*
X152818657Y-95682288D01*
X152669334Y-95590186D01*
X152502797Y-95535000D01*
X152400009Y-95524500D01*
X151099991Y-95524500D01*
X150997203Y-95535000D01*
X150830665Y-95590186D01*
X150681342Y-95682288D01*
X150557289Y-95806341D01*
X150461821Y-95961121D01*
X150422907Y-96000604D01*
X150370678Y-96019186D01*
X150315571Y-96013150D01*
X150268601Y-95983705D01*
X150121404Y-95836508D01*
X150121401Y-95836505D01*
X149927830Y-95700965D01*
X149713663Y-95601097D01*
X149652501Y-95584709D01*
X149485407Y-95539936D01*
X149250000Y-95519340D01*
X149014592Y-95539936D01*
X148786336Y-95601097D01*
X148572170Y-95700965D01*
X148378598Y-95836505D01*
X148211505Y-96003598D01*
X148075965Y-96197170D01*
X147976097Y-96411336D01*
X147914936Y-96639592D01*
X147899500Y-96816032D01*
X147899500Y-97233968D01*
X126721570Y-97233968D01*
X126728069Y-97210559D01*
X126728068Y-97210559D01*
X126728071Y-97210552D01*
X126785972Y-96857371D01*
X126805348Y-96500000D01*
X126785972Y-96142629D01*
X126728071Y-95789448D01*
X126703504Y-95700964D01*
X126632325Y-95444598D01*
X126499853Y-95112118D01*
X126332213Y-94795919D01*
X126332211Y-94795915D01*
X126131365Y-94499689D01*
X126131363Y-94499686D01*
X125899667Y-94226913D01*
X125639838Y-93980789D01*
X125354918Y-93764199D01*
X125048250Y-93579683D01*
X124723439Y-93429411D01*
X124723440Y-93429411D01*
X124723435Y-93429409D01*
X124384274Y-93315132D01*
X124384273Y-93315131D01*
X124384271Y-93315131D01*
X124172189Y-93268448D01*
X124034746Y-93238195D01*
X123856846Y-93218847D01*
X123678949Y-93199500D01*
X123678948Y-93199500D01*
X123321052Y-93199500D01*
X123321051Y-93199500D01*
X122965254Y-93238195D01*
X122615728Y-93315131D01*
X122443283Y-93373234D01*
X122276565Y-93429409D01*
X122276562Y-93429410D01*
X122276560Y-93429411D01*
X121951749Y-93579683D01*
X121645081Y-93764199D01*
X121360161Y-93980789D01*
X121100332Y-94226913D01*
X120868636Y-94499686D01*
X120667786Y-94795919D01*
X120500146Y-95112118D01*
X120367674Y-95444598D01*
X120271930Y-95789440D01*
X120269159Y-95806342D01*
X120246866Y-95942325D01*
X120222534Y-95998192D01*
X120174526Y-96035723D01*
X120114436Y-96045853D01*
X120056777Y-96026135D01*
X120015473Y-95981331D01*
X120000500Y-95922262D01*
X120000500Y-72150008D01*
X122249500Y-72150008D01*
X122260000Y-72252796D01*
X122315186Y-72419334D01*
X122407288Y-72568657D01*
X122531342Y-72692711D01*
X122531344Y-72692712D01*
X122680666Y-72784814D01*
X122758287Y-72810535D01*
X122847202Y-72839999D01*
X122857702Y-72841071D01*
X122949991Y-72850500D01*
X124500008Y-72850499D01*
X124602797Y-72839999D01*
X124769334Y-72784814D01*
X124918656Y-72692712D01*
X125042712Y-72568656D01*
X125134814Y-72419334D01*
X125189999Y-72252797D01*
X125200500Y-72150009D01*
X125200499Y-70849992D01*
X125189999Y-70747203D01*
X125134814Y-70580666D01*
X125042712Y-70431344D01*
X125042711Y-70431342D01*
X124918657Y-70307288D01*
X124763441Y-70211551D01*
X124723957Y-70172638D01*
X124705375Y-70120408D01*
X124711411Y-70065301D01*
X124740856Y-70018330D01*
X124888109Y-69871077D01*
X125023600Y-69677576D01*
X125123430Y-69463492D01*
X125180636Y-69250000D01*
X122269364Y-69250000D01*
X122326569Y-69463492D01*
X122426400Y-69677578D01*
X122561890Y-69871078D01*
X122709143Y-70018331D01*
X122738588Y-70065301D01*
X122744624Y-70120408D01*
X122726042Y-70172637D01*
X122686559Y-70211551D01*
X122531341Y-70307289D01*
X122407288Y-70431342D01*
X122315186Y-70580665D01*
X122260000Y-70747202D01*
X122249500Y-70849990D01*
X122249500Y-72150008D01*
X120000500Y-72150008D01*
X120000500Y-61700000D01*
X121164531Y-61700000D01*
X121184364Y-61926689D01*
X121243261Y-62146497D01*
X121339432Y-62352735D01*
X121469953Y-62539140D01*
X121630859Y-62700046D01*
X121817264Y-62830567D01*
X121817265Y-62830567D01*
X121817266Y-62830568D01*
X122023504Y-62926739D01*
X122243308Y-62985635D01*
X122470000Y-63005468D01*
X122696692Y-62985635D01*
X122765048Y-62967319D01*
X122829234Y-62967319D01*
X122884822Y-62999413D01*
X125019196Y-65133787D01*
X125032096Y-65149888D01*
X125083223Y-65197900D01*
X125086019Y-65200610D01*
X125105529Y-65220120D01*
X125108711Y-65222588D01*
X125117571Y-65230155D01*
X125149417Y-65260061D01*
X125149418Y-65260062D01*
X125166970Y-65269711D01*
X125183238Y-65280397D01*
X125199064Y-65292673D01*
X125239146Y-65310017D01*
X125249633Y-65315155D01*
X125287907Y-65336197D01*
X125296410Y-65338379D01*
X125307308Y-65341178D01*
X125325713Y-65347478D01*
X125344104Y-65355437D01*
X125387250Y-65362270D01*
X125398668Y-65364635D01*
X125440981Y-65375500D01*
X125461016Y-65375500D01*
X125480415Y-65377027D01*
X125500196Y-65380160D01*
X125543674Y-65376050D01*
X125555344Y-65375500D01*
X127804268Y-65375500D01*
X127854703Y-65386220D01*
X127896417Y-65416527D01*
X127974626Y-65503385D01*
X128127766Y-65614648D01*
X128300694Y-65691641D01*
X128485849Y-65730997D01*
X128485851Y-65730997D01*
X128675143Y-65730997D01*
X128675145Y-65730997D01*
X128798581Y-65704759D01*
X128860300Y-65691641D01*
X129033227Y-65614648D01*
X129186368Y-65503385D01*
X129313030Y-65362713D01*
X129407676Y-65198781D01*
X129466171Y-65018753D01*
X129485957Y-64830497D01*
X129466171Y-64642241D01*
X129407676Y-64462213D01*
X129407676Y-64462212D01*
X129313030Y-64298280D01*
X129186367Y-64157607D01*
X129033227Y-64046345D01*
X128860299Y-63969352D01*
X128675145Y-63929997D01*
X128675143Y-63929997D01*
X128485851Y-63929997D01*
X128485849Y-63929997D01*
X128300694Y-63969352D01*
X128127769Y-64046344D01*
X128052793Y-64100818D01*
X128018225Y-64118431D01*
X127979907Y-64124500D01*
X125830453Y-64124500D01*
X125783000Y-64115061D01*
X125742772Y-64088181D01*
X124867410Y-63212819D01*
X124836509Y-63161392D01*
X124833369Y-63101478D01*
X124858725Y-63047102D01*
X124906640Y-63010995D01*
X124965899Y-63001610D01*
X125010000Y-63005468D01*
X125236692Y-62985635D01*
X125456496Y-62926739D01*
X125662734Y-62830568D01*
X125849139Y-62700047D01*
X126010047Y-62539139D01*
X126140568Y-62352734D01*
X126167618Y-62294724D01*
X126213375Y-62242549D01*
X126280000Y-62223129D01*
X126346625Y-62242549D01*
X126392382Y-62294725D01*
X126419431Y-62352733D01*
X126549953Y-62539140D01*
X126710859Y-62700046D01*
X126897264Y-62830567D01*
X126897265Y-62830567D01*
X126897266Y-62830568D01*
X127103504Y-62926739D01*
X127323308Y-62985635D01*
X127550000Y-63005468D01*
X127776692Y-62985635D01*
X127996496Y-62926739D01*
X128202734Y-62830568D01*
X128389139Y-62700047D01*
X128550047Y-62539139D01*
X128680568Y-62352734D01*
X128707618Y-62294724D01*
X128753375Y-62242549D01*
X128820000Y-62223129D01*
X128886625Y-62242549D01*
X128932382Y-62294725D01*
X128959431Y-62352733D01*
X129089953Y-62539140D01*
X129250859Y-62700046D01*
X129437264Y-62830567D01*
X129437265Y-62830567D01*
X129437266Y-62830568D01*
X129643504Y-62926739D01*
X129863308Y-62985635D01*
X130090000Y-63005468D01*
X130316692Y-62985635D01*
X130536496Y-62926739D01*
X130742734Y-62830568D01*
X130929139Y-62700047D01*
X131090047Y-62539139D01*
X131220568Y-62352734D01*
X131247618Y-62294724D01*
X131293375Y-62242549D01*
X131360000Y-62223129D01*
X131426625Y-62242549D01*
X131472382Y-62294725D01*
X131499431Y-62352733D01*
X131629953Y-62539140D01*
X131790859Y-62700046D01*
X131977264Y-62830567D01*
X131977265Y-62830567D01*
X131977266Y-62830568D01*
X132183504Y-62926739D01*
X132403308Y-62985635D01*
X132630000Y-63005468D01*
X132856692Y-62985635D01*
X133076496Y-62926739D01*
X133282734Y-62830568D01*
X133469139Y-62700047D01*
X133630047Y-62539139D01*
X133690468Y-62452847D01*
X133742613Y-62378377D01*
X133786931Y-62339511D01*
X133844188Y-62325500D01*
X133955812Y-62325500D01*
X134013069Y-62339511D01*
X134057387Y-62378377D01*
X134169953Y-62539140D01*
X134330859Y-62700046D01*
X134517264Y-62830567D01*
X134517265Y-62830567D01*
X134517266Y-62830568D01*
X134723504Y-62926739D01*
X134943308Y-62985635D01*
X135170000Y-63005468D01*
X135396692Y-62985635D01*
X135616496Y-62926739D01*
X135822734Y-62830568D01*
X136009139Y-62700047D01*
X136170047Y-62539139D01*
X136300568Y-62352734D01*
X136327618Y-62294724D01*
X136373375Y-62242549D01*
X136440000Y-62223129D01*
X136506625Y-62242549D01*
X136552382Y-62294725D01*
X136579431Y-62352733D01*
X136709953Y-62539140D01*
X136870859Y-62700046D01*
X137057264Y-62830567D01*
X137057265Y-62830567D01*
X137057266Y-62830568D01*
X137263504Y-62926739D01*
X137483308Y-62985635D01*
X137710000Y-63005468D01*
X137936692Y-62985635D01*
X138156496Y-62926739D01*
X138362734Y-62830568D01*
X138549139Y-62700047D01*
X138710047Y-62539139D01*
X138840568Y-62352734D01*
X138867618Y-62294724D01*
X138913375Y-62242549D01*
X138980000Y-62223129D01*
X139046625Y-62242549D01*
X139092382Y-62294725D01*
X139119431Y-62352733D01*
X139249953Y-62539140D01*
X139410859Y-62700046D01*
X139597264Y-62830567D01*
X139597265Y-62830567D01*
X139597266Y-62830568D01*
X139803504Y-62926739D01*
X140023308Y-62985635D01*
X140250000Y-63005468D01*
X140476692Y-62985635D01*
X140696496Y-62926739D01*
X140902734Y-62830568D01*
X141089139Y-62700047D01*
X141250047Y-62539139D01*
X141380568Y-62352734D01*
X141476739Y-62146496D01*
X141535635Y-61926692D01*
X141555468Y-61700000D01*
X141535635Y-61473308D01*
X141476739Y-61253504D01*
X141380568Y-61047266D01*
X141377596Y-61043022D01*
X141250046Y-60860859D01*
X141089140Y-60699953D01*
X140902735Y-60569432D01*
X140696496Y-60473261D01*
X140586449Y-60443774D01*
X140534769Y-60415421D01*
X140502020Y-60366410D01*
X140495603Y-60307814D01*
X140516967Y-60252876D01*
X140561285Y-60214010D01*
X140618542Y-60199999D01*
X140649979Y-60199999D01*
X140752695Y-60189506D01*
X140919122Y-60134357D01*
X141068345Y-60042316D01*
X141192316Y-59918345D01*
X141284357Y-59769122D01*
X141339506Y-59602696D01*
X141350000Y-59499979D01*
X141350000Y-59250000D01*
X140124000Y-59250000D01*
X140062000Y-59233387D01*
X140016613Y-59188000D01*
X140000000Y-59126000D01*
X140000000Y-57800001D01*
X139850021Y-57800001D01*
X139747304Y-57810493D01*
X139580877Y-57865642D01*
X139431656Y-57957681D01*
X139338034Y-58051304D01*
X139282446Y-58083397D01*
X139218259Y-58083397D01*
X139162672Y-58051303D01*
X139068657Y-57957288D01*
X138919334Y-57865186D01*
X138752797Y-57810000D01*
X138654904Y-57800000D01*
X140500000Y-57800000D01*
X140500000Y-58750000D01*
X141349999Y-58750000D01*
X141349999Y-58500021D01*
X141339506Y-58397304D01*
X141284357Y-58230877D01*
X141192316Y-58081654D01*
X141068345Y-57957683D01*
X140919122Y-57865642D01*
X140752696Y-57810493D01*
X140649979Y-57800000D01*
X140500000Y-57800000D01*
X138654904Y-57800000D01*
X138650009Y-57799500D01*
X137849991Y-57799500D01*
X137747203Y-57810000D01*
X137580665Y-57865186D01*
X137431342Y-57957288D01*
X137307288Y-58081342D01*
X137215186Y-58230665D01*
X137160000Y-58397202D01*
X137149500Y-58499991D01*
X137149500Y-58784547D01*
X137140061Y-58832000D01*
X137113181Y-58872228D01*
X135584821Y-60400586D01*
X135529234Y-60432680D01*
X135465047Y-60432680D01*
X135396690Y-60414364D01*
X135169999Y-60394531D01*
X134943310Y-60414364D01*
X134723502Y-60473261D01*
X134517264Y-60569432D01*
X134330859Y-60699953D01*
X134169953Y-60860859D01*
X134057387Y-61021623D01*
X134013069Y-61060489D01*
X133955812Y-61074500D01*
X133844188Y-61074500D01*
X133786931Y-61060489D01*
X133742613Y-61021623D01*
X133630046Y-60860859D01*
X133469140Y-60699953D01*
X133282735Y-60569432D01*
X133076497Y-60473261D01*
X132856689Y-60414364D01*
X132630000Y-60394531D01*
X132403310Y-60414364D01*
X132183502Y-60473261D01*
X131977264Y-60569432D01*
X131790859Y-60699953D01*
X131629953Y-60860859D01*
X131499433Y-61047263D01*
X131472382Y-61105275D01*
X131426625Y-61157450D01*
X131360000Y-61176869D01*
X131293375Y-61157450D01*
X131247618Y-61105275D01*
X131220568Y-61047266D01*
X131181218Y-60991068D01*
X131090046Y-60860859D01*
X130929140Y-60699953D01*
X130742735Y-60569432D01*
X130536497Y-60473261D01*
X130316689Y-60414364D01*
X130238694Y-60407541D01*
X130181361Y-60387614D01*
X130140355Y-60342864D01*
X130125500Y-60284013D01*
X130125500Y-58779879D01*
X130144278Y-58714271D01*
X130194926Y-58668534D01*
X130262102Y-58656521D01*
X130349991Y-58665500D01*
X131150008Y-58665499D01*
X131252797Y-58654999D01*
X131419334Y-58599814D01*
X131568656Y-58507712D01*
X131662320Y-58414047D01*
X131717906Y-58381955D01*
X131782094Y-58381955D01*
X131837679Y-58414047D01*
X131923623Y-58499991D01*
X131931345Y-58507713D01*
X132006004Y-58553762D01*
X132080666Y-58599814D01*
X132192017Y-58636712D01*
X132247202Y-58654999D01*
X132257702Y-58656071D01*
X132349991Y-58665500D01*
X133150008Y-58665499D01*
X133252797Y-58654999D01*
X133419334Y-58599814D01*
X133568656Y-58507712D01*
X133692712Y-58383656D01*
X133784814Y-58234334D01*
X133839999Y-58067797D01*
X133850500Y-57965009D01*
X133850499Y-56964992D01*
X133840285Y-56865000D01*
X143875000Y-56865000D01*
X143875000Y-57512824D01*
X143881402Y-57572375D01*
X143931647Y-57707089D01*
X144017811Y-57822188D01*
X144132910Y-57908352D01*
X144267624Y-57958597D01*
X144327176Y-57965000D01*
X144975000Y-57965000D01*
X144975000Y-56865000D01*
X143875000Y-56865000D01*
X133840285Y-56865000D01*
X133839999Y-56862203D01*
X133784814Y-56695666D01*
X133692712Y-56546344D01*
X133636547Y-56490179D01*
X133604455Y-56434594D01*
X133604455Y-56370406D01*
X133636547Y-56314820D01*
X133692712Y-56258656D01*
X133753535Y-56160044D01*
X133795415Y-56118729D01*
X133851624Y-56101365D01*
X133909507Y-56111861D01*
X134007108Y-56155316D01*
X134020199Y-56161145D01*
X134205352Y-56200500D01*
X134205354Y-56200500D01*
X134394646Y-56200500D01*
X134394648Y-56200500D01*
X134518084Y-56174262D01*
X134579803Y-56161144D01*
X134752730Y-56084151D01*
X134884994Y-55988056D01*
X134905870Y-55972889D01*
X135032533Y-55832216D01*
X135127179Y-55668284D01*
X135178916Y-55509054D01*
X135185674Y-55488256D01*
X135205460Y-55300000D01*
X135185674Y-55111744D01*
X135155332Y-55018363D01*
X135127179Y-54931715D01*
X135032533Y-54767783D01*
X134905870Y-54627110D01*
X134752730Y-54515848D01*
X134579802Y-54438855D01*
X134394648Y-54399500D01*
X134394646Y-54399500D01*
X134205354Y-54399500D01*
X134205352Y-54399500D01*
X134020201Y-54438854D01*
X133870797Y-54505374D01*
X133812911Y-54515870D01*
X133756702Y-54498506D01*
X133714822Y-54457190D01*
X133692711Y-54421342D01*
X133636549Y-54365180D01*
X133604455Y-54309592D01*
X133604456Y-54245404D01*
X133636547Y-54189820D01*
X133692712Y-54133656D01*
X133784814Y-53984334D01*
X133839999Y-53817797D01*
X133850500Y-53715009D01*
X133850499Y-52714992D01*
X133839999Y-52612203D01*
X133784814Y-52445666D01*
X133692712Y-52296344D01*
X133692711Y-52296342D01*
X133608550Y-52212181D01*
X133578300Y-52162818D01*
X133573758Y-52105102D01*
X133595913Y-52051615D01*
X133639936Y-52014015D01*
X133696231Y-52000500D01*
X142123416Y-52000500D01*
X142180826Y-52014591D01*
X142236951Y-52043909D01*
X142236953Y-52043910D01*
X142252431Y-52048338D01*
X142270092Y-52054877D01*
X142284732Y-52061605D01*
X142356093Y-52078165D01*
X142362164Y-52079737D01*
X142432581Y-52099886D01*
X142448629Y-52101108D01*
X142467247Y-52103959D01*
X142482946Y-52107603D01*
X142556204Y-52109458D01*
X142562461Y-52109775D01*
X142635476Y-52115336D01*
X142651450Y-52113301D01*
X142670248Y-52112348D01*
X142686363Y-52112757D01*
X142758494Y-52099827D01*
X142764664Y-52098882D01*
X142837327Y-52089630D01*
X142852568Y-52084420D01*
X142870797Y-52079699D01*
X142886653Y-52076858D01*
X142954693Y-52049678D01*
X142960516Y-52047521D01*
X143029872Y-52023816D01*
X143043759Y-52015640D01*
X143060647Y-52007356D01*
X143075617Y-52001377D01*
X143136788Y-51961061D01*
X143142089Y-51957756D01*
X143205227Y-51920590D01*
X143217177Y-51909791D01*
X143232068Y-51898265D01*
X143245519Y-51889402D01*
X143297332Y-51837587D01*
X143301845Y-51833297D01*
X143356213Y-51784179D01*
X143365747Y-51771193D01*
X143378007Y-51756912D01*
X144808035Y-50326884D01*
X144843309Y-50302185D01*
X144884907Y-50291040D01*
X144904066Y-50289363D01*
X144946692Y-50285635D01*
X145166496Y-50226739D01*
X145372734Y-50130568D01*
X145559139Y-50000047D01*
X145720047Y-49839139D01*
X145850568Y-49652734D01*
X145877618Y-49594724D01*
X145923375Y-49542549D01*
X145990000Y-49523129D01*
X146056625Y-49542549D01*
X146102382Y-49594725D01*
X146129431Y-49652733D01*
X146259953Y-49839140D01*
X146420859Y-50000046D01*
X146607264Y-50130567D01*
X146607265Y-50130567D01*
X146607266Y-50130568D01*
X146813504Y-50226739D01*
X147033308Y-50285635D01*
X147260000Y-50305468D01*
X147486692Y-50285635D01*
X147706496Y-50226739D01*
X147912734Y-50130568D01*
X148099139Y-50000047D01*
X148260047Y-49839139D01*
X148390568Y-49652734D01*
X148417618Y-49594724D01*
X148463375Y-49542549D01*
X148530000Y-49523129D01*
X148596625Y-49542549D01*
X148642382Y-49594725D01*
X148669431Y-49652733D01*
X148799953Y-49839140D01*
X148960859Y-50000046D01*
X149147264Y-50130567D01*
X149147265Y-50130567D01*
X149147266Y-50130568D01*
X149353504Y-50226739D01*
X149573308Y-50285635D01*
X149800000Y-50305468D01*
X150026692Y-50285635D01*
X150246496Y-50226739D01*
X150452734Y-50130568D01*
X150639139Y-50000047D01*
X150800047Y-49839139D01*
X150930568Y-49652734D01*
X150957618Y-49594724D01*
X151003375Y-49542549D01*
X151070000Y-49523129D01*
X151136625Y-49542549D01*
X151182382Y-49594725D01*
X151209431Y-49652733D01*
X151339953Y-49839140D01*
X151500859Y-50000046D01*
X151687264Y-50130567D01*
X151687265Y-50130567D01*
X151687266Y-50130568D01*
X151893504Y-50226739D01*
X152113308Y-50285635D01*
X152340000Y-50305468D01*
X152566692Y-50285635D01*
X152786496Y-50226739D01*
X152992734Y-50130568D01*
X153179139Y-50000047D01*
X153340047Y-49839139D01*
X153470568Y-49652734D01*
X153497618Y-49594724D01*
X153543375Y-49542549D01*
X153610000Y-49523129D01*
X153676625Y-49542549D01*
X153722382Y-49594725D01*
X153749431Y-49652733D01*
X153879953Y-49839140D01*
X154040859Y-50000046D01*
X154227264Y-50130567D01*
X154227265Y-50130567D01*
X154227266Y-50130568D01*
X154433504Y-50226739D01*
X154653308Y-50285635D01*
X154880000Y-50305468D01*
X155106692Y-50285635D01*
X155326496Y-50226739D01*
X155532734Y-50130568D01*
X155719139Y-50000047D01*
X155880047Y-49839139D01*
X156010568Y-49652734D01*
X156037618Y-49594724D01*
X156083375Y-49542549D01*
X156150000Y-49523129D01*
X156216625Y-49542549D01*
X156262382Y-49594725D01*
X156289431Y-49652733D01*
X156419953Y-49839140D01*
X156580859Y-50000046D01*
X156767264Y-50130567D01*
X156767265Y-50130567D01*
X156767266Y-50130568D01*
X156973504Y-50226739D01*
X157193308Y-50285635D01*
X157420000Y-50305468D01*
X157646692Y-50285635D01*
X157866496Y-50226739D01*
X158072734Y-50130568D01*
X158259139Y-50000047D01*
X158420047Y-49839139D01*
X158550568Y-49652734D01*
X158577893Y-49594134D01*
X158623649Y-49541959D01*
X158690274Y-49522539D01*
X158756899Y-49541958D01*
X158802657Y-49594133D01*
X158829866Y-49652482D01*
X158960341Y-49838819D01*
X159121180Y-49999658D01*
X159307519Y-50130134D01*
X159513673Y-50226266D01*
X159709999Y-50278871D01*
X159710000Y-50278872D01*
X159710000Y-50278871D01*
X160210000Y-50278871D01*
X160406326Y-50226266D01*
X160612480Y-50130134D01*
X160798819Y-49999658D01*
X160959659Y-49838818D01*
X160977191Y-49813780D01*
X161022033Y-49774642D01*
X161079947Y-49760908D01*
X161137589Y-49775741D01*
X161181678Y-49815726D01*
X161202057Y-49871648D01*
X161205909Y-49907484D01*
X161226683Y-49963181D01*
X161256204Y-50042331D01*
X161342454Y-50157546D01*
X161457669Y-50243796D01*
X161592517Y-50294091D01*
X161652127Y-50300500D01*
X163347872Y-50300499D01*
X163407483Y-50294091D01*
X163542331Y-50243796D01*
X163657546Y-50157546D01*
X163743796Y-50042331D01*
X163794091Y-49907483D01*
X163800500Y-49847873D01*
X163800499Y-48152128D01*
X163794091Y-48092517D01*
X163743796Y-47957669D01*
X163657546Y-47842454D01*
X163542331Y-47756204D01*
X163407483Y-47705909D01*
X163347873Y-47699500D01*
X163347869Y-47699500D01*
X161652130Y-47699500D01*
X161592515Y-47705909D01*
X161457669Y-47756204D01*
X161342454Y-47842454D01*
X161256204Y-47957668D01*
X161205907Y-48092520D01*
X161202055Y-48128352D01*
X161181676Y-48184274D01*
X161137587Y-48224257D01*
X161079945Y-48239090D01*
X161022032Y-48225356D01*
X160977191Y-48186219D01*
X160959660Y-48161182D01*
X160798819Y-48000341D01*
X160612480Y-47869865D01*
X160406326Y-47773733D01*
X160210000Y-47721128D01*
X160210000Y-50278871D01*
X159710000Y-50278871D01*
X159710000Y-47721128D01*
X159709999Y-47721128D01*
X159513673Y-47773733D01*
X159307519Y-47869865D01*
X159121180Y-48000341D01*
X158960341Y-48161180D01*
X158829863Y-48347522D01*
X158802656Y-48405866D01*
X158756899Y-48458041D01*
X158690274Y-48477460D01*
X158623650Y-48458040D01*
X158577893Y-48405865D01*
X158577618Y-48405276D01*
X158550568Y-48347266D01*
X158550564Y-48347261D01*
X158477108Y-48242354D01*
X158442924Y-48193533D01*
X158426239Y-48159699D01*
X158420500Y-48122412D01*
X158420500Y-47934262D01*
X158420540Y-47931120D01*
X158422757Y-47843637D01*
X158412350Y-47785574D01*
X158411041Y-47776242D01*
X158409003Y-47756204D01*
X158405074Y-47717562D01*
X158395962Y-47688520D01*
X158392226Y-47673297D01*
X158386858Y-47643347D01*
X158364976Y-47588566D01*
X158361816Y-47579689D01*
X158344159Y-47523412D01*
X158329395Y-47496812D01*
X158322660Y-47482631D01*
X158311377Y-47454383D01*
X158278917Y-47405131D01*
X158274036Y-47397074D01*
X158246368Y-47347226D01*
X158245409Y-47345498D01*
X158225582Y-47322403D01*
X158216146Y-47309888D01*
X158199402Y-47284481D01*
X158199400Y-47284479D01*
X158199399Y-47284477D01*
X158157693Y-47242772D01*
X158151287Y-47235860D01*
X158112864Y-47191102D01*
X158088804Y-47172478D01*
X158077026Y-47162105D01*
X154851629Y-43936709D01*
X154824071Y-43894809D01*
X154815362Y-43845421D01*
X154826927Y-43796627D01*
X154923903Y-43588663D01*
X154985063Y-43360408D01*
X155000500Y-43183966D01*
X155000500Y-42816034D01*
X154985063Y-42639592D01*
X154923903Y-42411337D01*
X154824035Y-42197171D01*
X154688495Y-42003599D01*
X154521401Y-41836505D01*
X154327830Y-41700965D01*
X154113663Y-41601097D01*
X154052501Y-41584709D01*
X153885407Y-41539936D01*
X153650000Y-41519340D01*
X153414592Y-41539936D01*
X153186336Y-41601097D01*
X152972170Y-41700965D01*
X152778598Y-41836505D01*
X152611505Y-42003598D01*
X152501575Y-42160596D01*
X152457257Y-42199462D01*
X152400000Y-42213473D01*
X152342743Y-42199462D01*
X152298425Y-42160596D01*
X152264482Y-42112120D01*
X152188495Y-42003599D01*
X152021401Y-41836505D01*
X151827830Y-41700965D01*
X151613663Y-41601097D01*
X151552501Y-41584709D01*
X151385407Y-41539936D01*
X151150000Y-41519340D01*
X150914592Y-41539936D01*
X150686336Y-41601097D01*
X150472170Y-41700965D01*
X150278598Y-41836505D01*
X150111505Y-42003598D01*
X150001575Y-42160596D01*
X149957257Y-42199462D01*
X149900000Y-42213473D01*
X149842743Y-42199462D01*
X149798425Y-42160596D01*
X149764482Y-42112120D01*
X149688495Y-42003599D01*
X149521401Y-41836505D01*
X149327830Y-41700965D01*
X149113663Y-41601097D01*
X149052501Y-41584709D01*
X148885407Y-41539936D01*
X148650000Y-41519340D01*
X148414592Y-41539936D01*
X148186336Y-41601097D01*
X147972170Y-41700965D01*
X147778601Y-41836503D01*
X147631398Y-41983706D01*
X147584428Y-42013151D01*
X147529321Y-42019185D01*
X147477091Y-42000604D01*
X147438178Y-41961120D01*
X147342711Y-41806342D01*
X147218657Y-41682288D01*
X147069334Y-41590186D01*
X146902797Y-41535000D01*
X146800009Y-41524500D01*
X145499991Y-41524500D01*
X145397203Y-41535000D01*
X145230665Y-41590186D01*
X145081342Y-41682288D01*
X144957288Y-41806342D01*
X144865186Y-41955665D01*
X144810000Y-42122202D01*
X144799500Y-42224990D01*
X144799500Y-43775008D01*
X144810000Y-43877796D01*
X144865186Y-44044334D01*
X144957286Y-44193654D01*
X144957287Y-44193655D01*
X144957288Y-44193656D01*
X145081344Y-44317712D01*
X145096529Y-44327078D01*
X145126662Y-44345664D01*
X145164065Y-44381417D01*
X145177851Y-44415190D01*
X145178465Y-44414945D01*
X145205020Y-44481425D01*
X145208180Y-44490300D01*
X145225841Y-44546588D01*
X145240607Y-44573191D01*
X145247337Y-44587364D01*
X145258622Y-44615617D01*
X145291080Y-44664867D01*
X145295961Y-44672923D01*
X145324590Y-44724501D01*
X145344404Y-44747581D01*
X145353856Y-44760116D01*
X145370599Y-44785520D01*
X145412300Y-44827221D01*
X145418705Y-44834132D01*
X145457130Y-44878891D01*
X145457131Y-44878892D01*
X145457134Y-44878895D01*
X145481198Y-44897522D01*
X145492968Y-44907889D01*
X148704135Y-48119056D01*
X148734160Y-48167733D01*
X148739145Y-48224707D01*
X148718030Y-48277858D01*
X148669435Y-48347261D01*
X148669434Y-48347263D01*
X148669432Y-48347266D01*
X148642380Y-48405277D01*
X148596625Y-48457451D01*
X148530000Y-48476870D01*
X148463375Y-48457451D01*
X148417618Y-48405275D01*
X148390567Y-48347264D01*
X148260046Y-48160859D01*
X148099140Y-47999953D01*
X147912735Y-47869432D01*
X147706497Y-47773261D01*
X147486689Y-47714364D01*
X147260000Y-47694531D01*
X147033310Y-47714364D01*
X146813502Y-47773261D01*
X146607264Y-47869432D01*
X146420859Y-47999953D01*
X146259953Y-48160859D01*
X146129433Y-48347263D01*
X146102382Y-48405275D01*
X146056625Y-48457450D01*
X145990000Y-48476869D01*
X145923375Y-48457450D01*
X145877618Y-48405275D01*
X145877617Y-48405273D01*
X145850568Y-48347266D01*
X145850566Y-48347263D01*
X145720046Y-48160859D01*
X145559140Y-47999953D01*
X145372735Y-47869432D01*
X145166497Y-47773261D01*
X144946689Y-47714364D01*
X144720000Y-47694531D01*
X144493310Y-47714364D01*
X144273502Y-47773261D01*
X144067264Y-47869432D01*
X143880859Y-47999953D01*
X143719953Y-48160859D01*
X143589432Y-48347264D01*
X143493261Y-48553503D01*
X143434365Y-48773308D01*
X143428959Y-48835094D01*
X143417813Y-48876690D01*
X143393112Y-48911966D01*
X142341899Y-49963181D01*
X142301671Y-49990061D01*
X142254218Y-49999500D01*
X141672244Y-49999500D01*
X141606450Y-49980605D01*
X141560707Y-49929680D01*
X141548955Y-49862243D01*
X141550500Y-49847873D01*
X141550499Y-48152128D01*
X141544091Y-48092517D01*
X141493796Y-47957669D01*
X141407546Y-47842454D01*
X141292331Y-47756204D01*
X141157483Y-47705909D01*
X141097873Y-47699500D01*
X141097869Y-47699500D01*
X139402130Y-47699500D01*
X139342515Y-47705909D01*
X139207669Y-47756204D01*
X139092454Y-47842454D01*
X139006204Y-47957668D01*
X138955907Y-48092520D01*
X138952055Y-48128352D01*
X138931676Y-48184274D01*
X138887587Y-48224257D01*
X138829945Y-48239090D01*
X138772032Y-48225356D01*
X138727191Y-48186219D01*
X138709660Y-48161182D01*
X138548819Y-48000341D01*
X138362480Y-47869865D01*
X138156326Y-47773733D01*
X137960000Y-47721128D01*
X137960000Y-49126000D01*
X137943387Y-49188000D01*
X137898000Y-49233387D01*
X137836000Y-49250000D01*
X137584000Y-49250000D01*
X137522000Y-49233387D01*
X137476613Y-49188000D01*
X137460000Y-49126000D01*
X137460000Y-47721128D01*
X137459999Y-47721128D01*
X137263673Y-47773733D01*
X137057519Y-47869865D01*
X136871180Y-48000341D01*
X136710341Y-48161180D01*
X136579863Y-48347522D01*
X136552656Y-48405866D01*
X136506899Y-48458041D01*
X136440274Y-48477460D01*
X136373650Y-48458040D01*
X136327893Y-48405865D01*
X136300568Y-48347266D01*
X136264324Y-48295504D01*
X136243208Y-48242354D01*
X136248193Y-48185379D01*
X136278216Y-48136703D01*
X139517409Y-44897510D01*
X139519579Y-44895394D01*
X139583053Y-44835059D01*
X139616753Y-44786639D01*
X139622422Y-44779122D01*
X139659698Y-44733407D01*
X139673788Y-44706432D01*
X139681912Y-44693022D01*
X139699295Y-44668049D01*
X139722565Y-44613822D01*
X139726579Y-44605369D01*
X139753910Y-44553049D01*
X139762281Y-44523787D01*
X139767538Y-44509021D01*
X139779540Y-44481058D01*
X139791415Y-44423265D01*
X139793650Y-44414159D01*
X139809887Y-44357418D01*
X139812197Y-44327077D01*
X139814376Y-44311535D01*
X139820500Y-44281741D01*
X139820500Y-44222757D01*
X139820858Y-44213343D01*
X139821070Y-44210559D01*
X139825337Y-44154523D01*
X139821493Y-44124347D01*
X139820500Y-44108682D01*
X139820500Y-44085758D01*
X139829939Y-44038305D01*
X139856819Y-43998077D01*
X139856819Y-43998076D01*
X139858495Y-43996401D01*
X139994035Y-43802829D01*
X140093903Y-43588663D01*
X140155063Y-43360408D01*
X140170500Y-43183966D01*
X140170500Y-42816034D01*
X140155063Y-42639592D01*
X140093903Y-42411337D01*
X139994035Y-42197171D01*
X139858495Y-42003599D01*
X139691401Y-41836505D01*
X139497830Y-41700965D01*
X139283663Y-41601097D01*
X139222501Y-41584709D01*
X139055407Y-41539936D01*
X138820000Y-41519340D01*
X138584592Y-41539936D01*
X138356336Y-41601097D01*
X138142170Y-41700965D01*
X137948598Y-41836505D01*
X137781505Y-42003598D01*
X137671575Y-42160596D01*
X137627257Y-42199462D01*
X137570000Y-42213473D01*
X137512743Y-42199462D01*
X137468425Y-42160596D01*
X137434482Y-42112120D01*
X137358495Y-42003599D01*
X137191401Y-41836505D01*
X136997830Y-41700965D01*
X136783663Y-41601097D01*
X136722501Y-41584709D01*
X136555407Y-41539936D01*
X136320000Y-41519340D01*
X136084592Y-41539936D01*
X135856336Y-41601097D01*
X135642170Y-41700965D01*
X135448598Y-41836505D01*
X135281505Y-42003598D01*
X135171575Y-42160596D01*
X135127257Y-42199462D01*
X135070000Y-42213473D01*
X135012743Y-42199462D01*
X134968425Y-42160596D01*
X134934482Y-42112120D01*
X134858495Y-42003599D01*
X134691401Y-41836505D01*
X134497830Y-41700965D01*
X134283663Y-41601097D01*
X134222501Y-41584709D01*
X134055407Y-41539936D01*
X133820000Y-41519340D01*
X133584592Y-41539936D01*
X133356336Y-41601097D01*
X133142170Y-41700965D01*
X132948601Y-41836503D01*
X132801398Y-41983706D01*
X132754428Y-42013151D01*
X132699321Y-42019185D01*
X132647091Y-42000604D01*
X132608178Y-41961120D01*
X132512711Y-41806342D01*
X132388657Y-41682288D01*
X132239334Y-41590186D01*
X132072797Y-41535000D01*
X131970009Y-41524500D01*
X130669991Y-41524500D01*
X130567203Y-41535000D01*
X130400665Y-41590186D01*
X130251342Y-41682288D01*
X130127288Y-41806342D01*
X130035186Y-41955665D01*
X129980000Y-42122202D01*
X129969500Y-42224990D01*
X129969500Y-43775008D01*
X129980000Y-43877796D01*
X130012511Y-43975906D01*
X130015463Y-44043506D01*
X129982486Y-44102591D01*
X126852646Y-47232432D01*
X126850399Y-47234623D01*
X126786948Y-47294939D01*
X126753244Y-47343362D01*
X126747573Y-47350882D01*
X126710301Y-47396593D01*
X126696210Y-47423566D01*
X126688082Y-47436983D01*
X126670705Y-47461950D01*
X126647439Y-47516165D01*
X126643399Y-47524671D01*
X126616090Y-47576952D01*
X126607720Y-47606201D01*
X126602459Y-47620978D01*
X126590460Y-47648942D01*
X126578587Y-47706713D01*
X126576342Y-47715860D01*
X126560113Y-47772580D01*
X126557802Y-47802925D01*
X126555622Y-47818466D01*
X126549500Y-47848259D01*
X126549500Y-47907242D01*
X126549142Y-47916656D01*
X126544663Y-47975477D01*
X126548506Y-48005651D01*
X126549500Y-48021317D01*
X126549500Y-48122412D01*
X126543761Y-48159699D01*
X126527075Y-48193533D01*
X126511236Y-48216155D01*
X126419433Y-48347263D01*
X126392382Y-48405275D01*
X126346625Y-48457450D01*
X126280000Y-48476869D01*
X126213375Y-48457450D01*
X126167618Y-48405275D01*
X126167617Y-48405273D01*
X126140568Y-48347266D01*
X126140566Y-48347263D01*
X126010046Y-48160859D01*
X125849140Y-47999953D01*
X125662735Y-47869432D01*
X125456497Y-47773261D01*
X125236689Y-47714364D01*
X125010000Y-47694531D01*
X124783310Y-47714364D01*
X124563502Y-47773261D01*
X124357264Y-47869432D01*
X124170859Y-47999953D01*
X124009953Y-48160859D01*
X123879433Y-48347263D01*
X123852382Y-48405275D01*
X123806625Y-48457450D01*
X123740000Y-48476869D01*
X123673375Y-48457450D01*
X123627618Y-48405275D01*
X123627617Y-48405273D01*
X123600568Y-48347266D01*
X123600566Y-48347263D01*
X123470046Y-48160859D01*
X123309140Y-47999953D01*
X123122735Y-47869432D01*
X122916497Y-47773261D01*
X122696689Y-47714364D01*
X122470000Y-47694531D01*
X122243310Y-47714364D01*
X122023502Y-47773261D01*
X121817264Y-47869432D01*
X121630859Y-47999953D01*
X121469953Y-48160859D01*
X121339432Y-48347264D01*
X121243261Y-48553502D01*
X121184364Y-48773310D01*
X121164531Y-48999999D01*
X121184364Y-49226689D01*
X121243261Y-49446497D01*
X121339432Y-49652735D01*
X121469953Y-49839140D01*
X121630859Y-50000046D01*
X121817264Y-50130567D01*
X121817265Y-50130567D01*
X121817266Y-50130568D01*
X122023504Y-50226739D01*
X122243308Y-50285635D01*
X122305092Y-50291040D01*
X122346689Y-50302185D01*
X122381966Y-50326887D01*
X123752432Y-51697352D01*
X123754625Y-51699601D01*
X123814942Y-51763054D01*
X123863362Y-51796755D01*
X123870871Y-51802416D01*
X123916593Y-51839698D01*
X123943562Y-51853785D01*
X123956982Y-51861916D01*
X123981949Y-51879294D01*
X123981950Y-51879294D01*
X123981951Y-51879295D01*
X124026558Y-51898437D01*
X124074254Y-51934637D01*
X124099426Y-51988967D01*
X124096204Y-52048759D01*
X124065339Y-52100069D01*
X123430646Y-52734762D01*
X123375058Y-52766856D01*
X123310872Y-52766856D01*
X123250221Y-52750604D01*
X123210405Y-52739936D01*
X122975000Y-52719340D01*
X122739592Y-52739936D01*
X122511336Y-52801097D01*
X122297170Y-52900965D01*
X122103598Y-53036505D01*
X121936505Y-53203598D01*
X121800965Y-53397170D01*
X121701097Y-53611336D01*
X121639936Y-53839592D01*
X121619340Y-54075000D01*
X121639936Y-54310407D01*
X121674354Y-54438855D01*
X121701097Y-54538663D01*
X121800965Y-54752830D01*
X121936505Y-54946401D01*
X121936508Y-54946404D01*
X122058818Y-55068714D01*
X122090114Y-55121460D01*
X122092303Y-55182753D01*
X122064850Y-55237597D01*
X122014472Y-55272576D01*
X121882913Y-55321646D01*
X121767811Y-55407811D01*
X121681647Y-55522910D01*
X121631402Y-55657624D01*
X121625000Y-55717176D01*
X121625000Y-56365000D01*
X123400500Y-56365000D01*
X123462500Y-56381613D01*
X123507887Y-56427000D01*
X123524500Y-56489000D01*
X123524500Y-56741000D01*
X123507887Y-56803000D01*
X123462500Y-56848387D01*
X123400500Y-56865000D01*
X123225000Y-56865000D01*
X123225000Y-57965000D01*
X123400500Y-57965000D01*
X123462500Y-57981613D01*
X123507887Y-58027000D01*
X123524500Y-58089000D01*
X123524500Y-60615951D01*
X123510985Y-60672246D01*
X123473385Y-60716269D01*
X123419898Y-60738424D01*
X123362182Y-60733882D01*
X123312819Y-60703632D01*
X123309140Y-60699953D01*
X123122735Y-60569432D01*
X122916497Y-60473261D01*
X122696689Y-60414364D01*
X122470000Y-60394531D01*
X122243310Y-60414364D01*
X122023502Y-60473261D01*
X121817264Y-60569432D01*
X121630859Y-60699953D01*
X121469953Y-60860859D01*
X121339432Y-61047264D01*
X121243261Y-61253502D01*
X121184364Y-61473310D01*
X121164531Y-61700000D01*
X120000500Y-61700000D01*
X120000500Y-56865000D01*
X121625000Y-56865000D01*
X121625000Y-57512824D01*
X121631402Y-57572375D01*
X121681647Y-57707089D01*
X121767811Y-57822188D01*
X121882910Y-57908352D01*
X122017624Y-57958597D01*
X122077176Y-57965000D01*
X122725000Y-57965000D01*
X122725000Y-56865000D01*
X121625000Y-56865000D01*
X120000500Y-56865000D01*
X120000500Y-44077738D01*
X120015473Y-44018669D01*
X120056777Y-43973865D01*
X120114436Y-43954147D01*
X120174526Y-43964277D01*
X120222534Y-44001808D01*
X120246866Y-44057674D01*
X120262743Y-44154521D01*
X120271930Y-44210559D01*
X120367674Y-44555401D01*
X120500146Y-44887881D01*
X120667786Y-45204080D01*
X120868636Y-45500313D01*
X121100332Y-45773086D01*
X121360161Y-46019210D01*
X121645081Y-46235800D01*
X121951747Y-46420315D01*
X122276565Y-46570591D01*
X122615726Y-46684868D01*
X122965254Y-46761805D01*
X123286151Y-46796704D01*
X123321051Y-46800500D01*
X123321052Y-46800500D01*
X123678948Y-46800500D01*
X123678949Y-46800500D01*
X123710730Y-46797043D01*
X124034746Y-46761805D01*
X124384274Y-46684868D01*
X124723435Y-46570591D01*
X125048253Y-46420315D01*
X125354919Y-46235800D01*
X125639837Y-46019211D01*
X125899668Y-45773086D01*
X126131365Y-45500311D01*
X126332211Y-45204085D01*
X126489245Y-44907889D01*
X126499853Y-44887881D01*
X126632325Y-44555401D01*
X126728069Y-44210559D01*
X126728068Y-44210559D01*
X126728071Y-44210552D01*
X126785972Y-43857371D01*
X126805348Y-43500000D01*
X126785972Y-43142629D01*
X126728071Y-42789448D01*
X126686464Y-42639592D01*
X126632325Y-42444598D01*
X126499853Y-42112118D01*
X126332213Y-41795919D01*
X126332211Y-41795915D01*
X126131365Y-41499689D01*
X126131363Y-41499686D01*
X125899667Y-41226913D01*
X125639838Y-40980789D01*
X125354918Y-40764199D01*
X125048250Y-40579683D01*
X124723439Y-40429411D01*
X124723440Y-40429411D01*
X124723435Y-40429409D01*
X124384274Y-40315132D01*
X124384273Y-40315131D01*
X124384271Y-40315131D01*
X124173263Y-40268684D01*
X124068390Y-40245600D01*
X124014771Y-40219008D01*
X123979854Y-40170397D01*
X123971774Y-40111093D01*
X123992414Y-40054913D01*
X124036964Y-40014945D01*
X124095047Y-40000500D01*
X160904953Y-40000500D01*
X160963036Y-40014945D01*
G37*
%TD.AperFunction*%
%TA.AperFunction,Conductor*%
G36*
X150493000Y-56381613D02*
G01*
X150538387Y-56427000D01*
X150555000Y-56489000D01*
X150555000Y-57945635D01*
X150768492Y-57888430D01*
X150948095Y-57804680D01*
X151008610Y-57793327D01*
X151067125Y-57812481D01*
X151109214Y-57857419D01*
X151124500Y-57917062D01*
X151124500Y-60930951D01*
X151108953Y-60991068D01*
X151066210Y-61036109D01*
X151006989Y-61054781D01*
X150946142Y-61042401D01*
X150898925Y-61002074D01*
X150800046Y-60860859D01*
X150639140Y-60699953D01*
X150452735Y-60569432D01*
X150246497Y-60473261D01*
X150026689Y-60414364D01*
X149799999Y-60394531D01*
X149760307Y-60398004D01*
X149693849Y-60385286D01*
X149643961Y-60339573D01*
X149625500Y-60274476D01*
X149625500Y-57982345D01*
X149640786Y-57922702D01*
X149682875Y-57877764D01*
X149741391Y-57858610D01*
X149801906Y-57869963D01*
X149841509Y-57888431D01*
X150054999Y-57945635D01*
X150055000Y-57945636D01*
X150055000Y-56865000D01*
X149749500Y-56865000D01*
X149687500Y-56848387D01*
X149642113Y-56803000D01*
X149625500Y-56741000D01*
X149625500Y-56489000D01*
X149642113Y-56427000D01*
X149687500Y-56381613D01*
X149749500Y-56365000D01*
X150431000Y-56365000D01*
X150493000Y-56381613D01*
G37*
%TD.AperFunction*%
%TA.AperFunction,Conductor*%
G36*
X148312500Y-56381613D02*
G01*
X148357887Y-56427000D01*
X148374500Y-56489000D01*
X148374500Y-56741000D01*
X148357887Y-56803000D01*
X148312500Y-56848387D01*
X148250500Y-56865000D01*
X148015000Y-56865000D01*
X148015000Y-57945635D01*
X148218406Y-57891133D01*
X148274691Y-57889291D01*
X148325986Y-57912532D01*
X148361712Y-57956064D01*
X148374500Y-58010908D01*
X148374500Y-60675951D01*
X148360985Y-60732246D01*
X148323385Y-60776269D01*
X148269898Y-60798424D01*
X148212182Y-60793882D01*
X148162819Y-60763632D01*
X148099140Y-60699953D01*
X147912735Y-60569432D01*
X147706497Y-60473261D01*
X147486690Y-60414364D01*
X147328692Y-60400541D01*
X147271361Y-60380613D01*
X147230355Y-60335863D01*
X147215500Y-60277013D01*
X147215500Y-58026985D01*
X147228288Y-57972141D01*
X147264014Y-57928609D01*
X147315309Y-57905368D01*
X147371594Y-57907210D01*
X147514999Y-57945635D01*
X147515000Y-57945636D01*
X147515000Y-56865000D01*
X147339500Y-56865000D01*
X147277500Y-56848387D01*
X147232113Y-56803000D01*
X147215500Y-56741000D01*
X147215500Y-56489000D01*
X147232113Y-56427000D01*
X147277500Y-56381613D01*
X147339500Y-56365000D01*
X148250500Y-56365000D01*
X148312500Y-56381613D01*
G37*
%TD.AperFunction*%
%TD*%
M02*
