%TF.GenerationSoftware,KiCad,Pcbnew,7.0.1-0*%
%TF.CreationDate,2024-10-14T15:01:22+02:00*%
%TF.ProjectId,SerialControllerBoard,53657269-616c-4436-9f6e-74726f6c6c65,rev?*%
%TF.SameCoordinates,Original*%
%TF.FileFunction,Copper,L2,Bot*%
%TF.FilePolarity,Positive*%
%FSLAX46Y46*%
G04 Gerber Fmt 4.6, Leading zero omitted, Abs format (unit mm)*
G04 Created by KiCad (PCBNEW 7.0.1-0) date 2024-10-14 15:01:22*
%MOMM*%
%LPD*%
G01*
G04 APERTURE LIST*
G04 Aperture macros list*
%AMRoundRect*
0 Rectangle with rounded corners*
0 $1 Rounding radius*
0 $2 $3 $4 $5 $6 $7 $8 $9 X,Y pos of 4 corners*
0 Add a 4 corners polygon primitive as box body*
4,1,4,$2,$3,$4,$5,$6,$7,$8,$9,$2,$3,0*
0 Add four circle primitives for the rounded corners*
1,1,$1+$1,$2,$3*
1,1,$1+$1,$4,$5*
1,1,$1+$1,$6,$7*
1,1,$1+$1,$8,$9*
0 Add four rect primitives between the rounded corners*
20,1,$1+$1,$2,$3,$4,$5,0*
20,1,$1+$1,$4,$5,$6,$7,0*
20,1,$1+$1,$6,$7,$8,$9,0*
20,1,$1+$1,$8,$9,$2,$3,0*%
G04 Aperture macros list end*
%TA.AperFunction,ComponentPad*%
%ADD10RoundRect,0.250000X-0.600000X-0.725000X0.600000X-0.725000X0.600000X0.725000X-0.600000X0.725000X0*%
%TD*%
%TA.AperFunction,ComponentPad*%
%ADD11O,1.700000X1.950000*%
%TD*%
%TA.AperFunction,ComponentPad*%
%ADD12C,5.600000*%
%TD*%
%TA.AperFunction,ComponentPad*%
%ADD13R,1.700000X1.700000*%
%TD*%
%TA.AperFunction,ComponentPad*%
%ADD14O,1.700000X1.700000*%
%TD*%
%TA.AperFunction,ComponentPad*%
%ADD15RoundRect,0.250000X0.725000X-0.600000X0.725000X0.600000X-0.725000X0.600000X-0.725000X-0.600000X0*%
%TD*%
%TA.AperFunction,ComponentPad*%
%ADD16O,1.950000X1.700000*%
%TD*%
%TA.AperFunction,ComponentPad*%
%ADD17RoundRect,0.250000X-0.750000X0.600000X-0.750000X-0.600000X0.750000X-0.600000X0.750000X0.600000X0*%
%TD*%
%TA.AperFunction,ComponentPad*%
%ADD18O,2.000000X1.700000*%
%TD*%
%TA.AperFunction,ComponentPad*%
%ADD19R,1.600000X1.600000*%
%TD*%
%TA.AperFunction,ComponentPad*%
%ADD20O,1.600000X1.600000*%
%TD*%
%TA.AperFunction,ComponentPad*%
%ADD21RoundRect,0.250000X0.600000X0.750000X-0.600000X0.750000X-0.600000X-0.750000X0.600000X-0.750000X0*%
%TD*%
%TA.AperFunction,ComponentPad*%
%ADD22O,1.700000X2.000000*%
%TD*%
%TA.AperFunction,ViaPad*%
%ADD23C,0.800000*%
%TD*%
%TA.AperFunction,Conductor*%
%ADD24C,0.250000*%
%TD*%
%TA.AperFunction,Conductor*%
%ADD25C,1.000000*%
%TD*%
G04 APERTURE END LIST*
D10*
%TO.P,J10,1,Pin_1*%
%TO.N,Net-(A2-2B)*%
X131320000Y-43000000D03*
D11*
%TO.P,J10,2,Pin_2*%
%TO.N,Net-(A2-2A)*%
X133820000Y-43000000D03*
%TO.P,J10,3,Pin_3*%
%TO.N,Net-(A2-1A)*%
X136320000Y-43000000D03*
%TO.P,J10,4,Pin_4*%
%TO.N,Net-(A2-1B)*%
X138820000Y-43000000D03*
%TD*%
D12*
%TO.P,H1,1*%
%TO.N,N/C*%
X123500000Y-43500000D03*
%TD*%
D13*
%TO.P,J8,1,Pin_1*%
%TO.N,+5V*%
X122975000Y-56615000D03*
D14*
%TO.P,J8,2,Pin_2*%
%TO.N,Net-(A2-MS1)*%
X122975000Y-54075000D03*
%TO.P,J8,3,Pin_3*%
%TO.N,+5V*%
X125515000Y-56615000D03*
%TO.P,J8,4,Pin_4*%
%TO.N,Net-(A2-MS2)*%
X125515000Y-54075000D03*
%TO.P,J8,5,Pin_5*%
%TO.N,+5V*%
X128055000Y-56615000D03*
%TO.P,J8,6,Pin_6*%
%TO.N,Net-(A2-MS3)*%
X128055000Y-54075000D03*
%TD*%
D15*
%TO.P,J5,1,Pin_1*%
%TO.N,GND*%
X123725000Y-71500000D03*
D16*
%TO.P,J5,2,Pin_2*%
%TO.N,+5V*%
X123725000Y-69000000D03*
%TO.P,J5,3,Pin_3*%
%TO.N,mag-sensor*%
X123725000Y-66500000D03*
%TD*%
D12*
%TO.P,H2,1*%
%TO.N,N/C*%
X161500000Y-43500000D03*
%TD*%
D10*
%TO.P,J11,1,Pin_1*%
%TO.N,Net-(A3-2B)*%
X146150000Y-43000000D03*
D11*
%TO.P,J11,2,Pin_2*%
%TO.N,Net-(A3-2A)*%
X148650000Y-43000000D03*
%TO.P,J11,3,Pin_3*%
%TO.N,Net-(A3-1A)*%
X151150000Y-43000000D03*
%TO.P,J11,4,Pin_4*%
%TO.N,Net-(A3-1B)*%
X153650000Y-43000000D03*
%TD*%
D17*
%TO.P,J6,1,Pin_1*%
%TO.N,VCC*%
X161250000Y-67750000D03*
D18*
%TO.P,J6,2,Pin_2*%
%TO.N,Net-(J6-Pin_2)*%
X161250000Y-70250000D03*
%TD*%
D15*
%TO.P,J4,1,Pin_1*%
%TO.N,GND*%
X131000000Y-71500000D03*
D16*
%TO.P,J4,2,Pin_2*%
%TO.N,+5V*%
X131000000Y-69000000D03*
%TO.P,J4,3,Pin_3*%
%TO.N,endstop-pitch-2*%
X131000000Y-66500000D03*
%TD*%
D19*
%TO.P,A1,1,D1/TX*%
%TO.N,unconnected-(A1-D1{slash}TX-Pad1)*%
X124800000Y-91240000D03*
D20*
%TO.P,A1,2,D0/RX*%
%TO.N,unconnected-(A1-D0{slash}RX-Pad2)*%
X127340000Y-91240000D03*
%TO.P,A1,3,~{RESET}*%
%TO.N,unconnected-(A1-~{RESET}-Pad3)*%
X129880000Y-91240000D03*
%TO.P,A1,4,GND*%
%TO.N,GND*%
X132420000Y-91240000D03*
%TO.P,A1,5,D2*%
%TO.N,unconnected-(A1-D2-Pad5)*%
X134960000Y-91240000D03*
%TO.P,A1,6,D3*%
%TO.N,trigger-primary*%
X137500000Y-91240000D03*
%TO.P,A1,7,D4*%
%TO.N,trigger-secondary*%
X140040000Y-91240000D03*
%TO.P,A1,8,D5*%
%TO.N,unconnected-(A1-D5-Pad8)*%
X142580000Y-91240000D03*
%TO.P,A1,9,D6*%
%TO.N,pitch-step*%
X145120000Y-91240000D03*
%TO.P,A1,10,D7*%
%TO.N,pitch-dir*%
X147660000Y-91240000D03*
%TO.P,A1,11,D8*%
%TO.N,pitch-enable*%
X150200000Y-91240000D03*
%TO.P,A1,12,D9*%
%TO.N,unconnected-(A1-D9-Pad12)*%
X152740000Y-91240000D03*
%TO.P,A1,13,D10*%
%TO.N,unconnected-(A1-D10-Pad13)*%
X155280000Y-91240000D03*
%TO.P,A1,14,D11*%
%TO.N,yaw-step*%
X157820000Y-91240000D03*
%TO.P,A1,15,D12*%
%TO.N,yaw-dir*%
X160360000Y-91240000D03*
%TO.P,A1,16,D13*%
%TO.N,yaw-enable*%
X160360000Y-76000000D03*
%TO.P,A1,17,3V3*%
%TO.N,unconnected-(A1-3V3-Pad17)*%
X157820000Y-76000000D03*
%TO.P,A1,18,AREF*%
%TO.N,unconnected-(A1-AREF-Pad18)*%
X155280000Y-76000000D03*
%TO.P,A1,19,A0*%
%TO.N,endstop-yaw*%
X152740000Y-76000000D03*
%TO.P,A1,20,A1*%
%TO.N,endstop-pitch-1*%
X150200000Y-76000000D03*
%TO.P,A1,21,A2*%
%TO.N,endstop-pitch-2*%
X147660000Y-76000000D03*
%TO.P,A1,22,A3*%
%TO.N,mag-sensor*%
X145120000Y-76000000D03*
%TO.P,A1,23,A4*%
%TO.N,unconnected-(A1-A4-Pad23)*%
X142580000Y-76000000D03*
%TO.P,A1,24,A5*%
%TO.N,unconnected-(A1-A5-Pad24)*%
X140040000Y-76000000D03*
%TO.P,A1,25,A6*%
%TO.N,unconnected-(A1-A6-Pad25)*%
X137500000Y-76000000D03*
%TO.P,A1,26,A7*%
%TO.N,unconnected-(A1-A7-Pad26)*%
X134960000Y-76000000D03*
%TO.P,A1,27,+5V*%
%TO.N,+5V*%
X132420000Y-76000000D03*
%TO.P,A1,28,~{RESET}*%
%TO.N,unconnected-(A1-~{RESET}-Pad28)*%
X129880000Y-76000000D03*
%TO.P,A1,29,GND*%
%TO.N,GND*%
X127340000Y-76000000D03*
%TO.P,A1,30,VIN*%
%TO.N,unconnected-(A1-VIN-Pad30)*%
X124800000Y-76000000D03*
%TD*%
D12*
%TO.P,H4,1*%
%TO.N,N/C*%
X161500000Y-96500000D03*
%TD*%
D19*
%TO.P,A2,1,GND*%
%TO.N,GND*%
X140250000Y-49000000D03*
D20*
%TO.P,A2,2,VDD*%
%TO.N,+5V*%
X137710000Y-49000000D03*
%TO.P,A2,3,1B*%
%TO.N,Net-(A2-1B)*%
X135170000Y-49000000D03*
%TO.P,A2,4,1A*%
%TO.N,Net-(A2-1A)*%
X132630000Y-49000000D03*
%TO.P,A2,5,2A*%
%TO.N,Net-(A2-2A)*%
X130090000Y-49000000D03*
%TO.P,A2,6,2B*%
%TO.N,Net-(A2-2B)*%
X127550000Y-49000000D03*
%TO.P,A2,7,GND*%
%TO.N,GND*%
X125010000Y-49000000D03*
%TO.P,A2,8,VMOT*%
%TO.N,VCC*%
X122470000Y-49000000D03*
%TO.P,A2,9,~{ENABLE}*%
%TO.N,yaw-enable*%
X122470000Y-61700000D03*
%TO.P,A2,10,MS1*%
%TO.N,Net-(A2-MS1)*%
X125010000Y-61700000D03*
%TO.P,A2,11,MS2*%
%TO.N,Net-(A2-MS2)*%
X127550000Y-61700000D03*
%TO.P,A2,12,MS3*%
%TO.N,Net-(A2-MS3)*%
X130090000Y-61700000D03*
%TO.P,A2,13,~{RESET}*%
%TO.N,Net-(A2-~{RESET})*%
X132630000Y-61700000D03*
%TO.P,A2,14,~{SLEEP}*%
X135170000Y-61700000D03*
%TO.P,A2,15,STEP*%
%TO.N,yaw-step*%
X137710000Y-61700000D03*
%TO.P,A2,16,DIR*%
%TO.N,yaw-dir*%
X140250000Y-61700000D03*
%TD*%
D17*
%TO.P,J7,1,Pin_1*%
%TO.N,VCC*%
X154000000Y-67750000D03*
D18*
%TO.P,J7,2,Pin_2*%
%TO.N,Net-(J7-Pin_2)*%
X154000000Y-70250000D03*
%TD*%
D12*
%TO.P,H3,1*%
%TO.N,N/C*%
X123500000Y-96500000D03*
%TD*%
D21*
%TO.P,J1,1,Pin_1*%
%TO.N,VCC*%
X151750000Y-97025000D03*
D22*
%TO.P,J1,2,Pin_2*%
%TO.N,GND*%
X149250000Y-97025000D03*
%TD*%
D15*
%TO.P,J2,1,Pin_1*%
%TO.N,GND*%
X145500000Y-71500000D03*
D16*
%TO.P,J2,2,Pin_2*%
%TO.N,+5V*%
X145500000Y-69000000D03*
%TO.P,J2,3,Pin_3*%
%TO.N,endstop-yaw*%
X145500000Y-66500000D03*
%TD*%
D13*
%TO.P,J9,1,Pin_1*%
%TO.N,+5V*%
X145225000Y-56615000D03*
D14*
%TO.P,J9,2,Pin_2*%
%TO.N,Net-(A3-MS1)*%
X145225000Y-54075000D03*
%TO.P,J9,3,Pin_3*%
%TO.N,+5V*%
X147765000Y-56615000D03*
%TO.P,J9,4,Pin_4*%
%TO.N,Net-(A3-MS2)*%
X147765000Y-54075000D03*
%TO.P,J9,5,Pin_5*%
%TO.N,+5V*%
X150305000Y-56615000D03*
%TO.P,J9,6,Pin_6*%
%TO.N,Net-(A3-MS3)*%
X150305000Y-54075000D03*
%TD*%
D15*
%TO.P,J3,1,Pin_1*%
%TO.N,GND*%
X138250000Y-71500000D03*
D16*
%TO.P,J3,2,Pin_2*%
%TO.N,+5V*%
X138250000Y-69000000D03*
%TO.P,J3,3,Pin_3*%
%TO.N,endstop-pitch-1*%
X138250000Y-66500000D03*
%TD*%
D19*
%TO.P,A3,1,GND*%
%TO.N,GND*%
X162500000Y-49000000D03*
D20*
%TO.P,A3,2,VDD*%
%TO.N,+5V*%
X159960000Y-49000000D03*
%TO.P,A3,3,1B*%
%TO.N,Net-(A3-1B)*%
X157420000Y-49000000D03*
%TO.P,A3,4,1A*%
%TO.N,Net-(A3-1A)*%
X154880000Y-49000000D03*
%TO.P,A3,5,2A*%
%TO.N,Net-(A3-2A)*%
X152340000Y-49000000D03*
%TO.P,A3,6,2B*%
%TO.N,Net-(A3-2B)*%
X149800000Y-49000000D03*
%TO.P,A3,7,GND*%
%TO.N,GND*%
X147260000Y-49000000D03*
%TO.P,A3,8,VMOT*%
%TO.N,VCC*%
X144720000Y-49000000D03*
%TO.P,A3,9,~{ENABLE}*%
%TO.N,pitch-enable*%
X144720000Y-61700000D03*
%TO.P,A3,10,MS1*%
%TO.N,Net-(A3-MS1)*%
X147260000Y-61700000D03*
%TO.P,A3,11,MS2*%
%TO.N,Net-(A3-MS2)*%
X149800000Y-61700000D03*
%TO.P,A3,12,MS3*%
%TO.N,Net-(A3-MS3)*%
X152340000Y-61700000D03*
%TO.P,A3,13,~{RESET}*%
%TO.N,Net-(A3-~{RESET})*%
X154880000Y-61700000D03*
%TO.P,A3,14,~{SLEEP}*%
X157420000Y-61700000D03*
%TO.P,A3,15,STEP*%
%TO.N,pitch-step*%
X159960000Y-61700000D03*
%TO.P,A3,16,DIR*%
%TO.N,pitch-dir*%
X162500000Y-61700000D03*
%TD*%
D23*
%TO.N,GND*%
X134300000Y-55300000D03*
X137000000Y-88600000D03*
X142700000Y-87800000D03*
X137000000Y-79500000D03*
X125100000Y-87700000D03*
X150200000Y-87700000D03*
X156800000Y-55300000D03*
X132700000Y-87700000D03*
%TO.N,pitch-enable*%
X153750000Y-88825500D03*
%TO.N,yaw-enable*%
X128580497Y-64830497D03*
%TO.N,VCC*%
X142610000Y-51110000D03*
X157800000Y-67750000D03*
%TO.N,Net-(J6-Pin_2)*%
X128300000Y-81425000D03*
%TD*%
D24*
%TO.N,pitch-enable*%
X153750000Y-88825500D02*
X152614500Y-88825500D01*
X152614500Y-88825500D02*
X150200000Y-91240000D01*
%TO.N,yaw-step*%
X137710000Y-61700000D02*
X135910000Y-63500000D01*
X135910000Y-63500000D02*
X128250000Y-63500000D01*
X126700000Y-72186396D02*
X125386396Y-73500000D01*
X122250000Y-78275305D02*
X129174695Y-85200000D01*
X126700000Y-65050000D02*
X126700000Y-72186396D01*
X129174695Y-85200000D02*
X156450000Y-85200000D01*
X123500000Y-73500000D02*
X122250000Y-74750000D01*
X122250000Y-74750000D02*
X122250000Y-78275305D01*
X156450000Y-85200000D02*
X157820000Y-86570000D01*
X125386396Y-73500000D02*
X123500000Y-73500000D01*
X128250000Y-63500000D02*
X126700000Y-65050000D01*
X157820000Y-86570000D02*
X157820000Y-91240000D01*
%TO.N,yaw-dir*%
X128436396Y-63950000D02*
X127150000Y-65236396D01*
X160360000Y-88360000D02*
X160360000Y-91240000D01*
X122700000Y-74936396D02*
X122700000Y-78088909D01*
X138000000Y-63950000D02*
X128436396Y-63950000D01*
X140250000Y-61700000D02*
X138000000Y-63950000D01*
X122700000Y-78088909D02*
X129361091Y-84750000D01*
X125572792Y-73950000D02*
X123686396Y-73950000D01*
X127150000Y-72372792D02*
X125572792Y-73950000D01*
X129361091Y-84750000D02*
X156750000Y-84750000D01*
X156750000Y-84750000D02*
X160360000Y-88360000D01*
X127150000Y-65236396D02*
X127150000Y-72372792D01*
X123686396Y-73950000D02*
X122700000Y-74936396D01*
%TO.N,yaw-enable*%
X125500000Y-80250000D02*
X157500000Y-80250000D01*
X157500000Y-80250000D02*
X160360000Y-77390000D01*
X123261396Y-78011396D02*
X125500000Y-80250000D01*
X128580497Y-64830497D02*
X127600000Y-65810994D01*
X123261396Y-75011396D02*
X123261396Y-78011396D01*
X125759188Y-74400000D02*
X123872792Y-74400000D01*
X123261396Y-75011396D02*
X123236396Y-75036396D01*
X127600000Y-65810994D02*
X127600000Y-72559188D01*
X127600000Y-72559188D02*
X125759188Y-74400000D01*
X123872792Y-74400000D02*
X123261396Y-75011396D01*
X160360000Y-77390000D02*
X160360000Y-76000000D01*
%TO.N,+5V*%
X145225000Y-56615000D02*
X147765000Y-56615000D01*
X122975000Y-56615000D02*
X125515000Y-56615000D01*
X150305000Y-56615000D02*
X147765000Y-56615000D01*
X125515000Y-56615000D02*
X128055000Y-56615000D01*
D25*
%TO.N,VCC*%
X155775000Y-93000000D02*
X162000000Y-93000000D01*
X151750000Y-97025000D02*
X155775000Y-93000000D01*
X157800000Y-67600000D02*
X157800000Y-67750000D01*
X142500000Y-51220000D02*
X142500000Y-62600000D01*
X142610000Y-51110000D02*
X142500000Y-51220000D01*
X162000000Y-93000000D02*
X163750000Y-91250000D01*
X163750000Y-91250000D02*
X163750000Y-70250000D01*
X154400000Y-64200000D02*
X157800000Y-67600000D01*
X142500000Y-62600000D02*
X144100000Y-64200000D01*
X163750000Y-70250000D02*
X161250000Y-67750000D01*
X144100000Y-64200000D02*
X154400000Y-64200000D01*
%TO.N,Net-(J6-Pin_2)*%
X162250000Y-71250000D02*
X161250000Y-70250000D01*
X128300000Y-81425000D02*
X159975000Y-81425000D01*
X159975000Y-81425000D02*
X162250000Y-79150000D01*
X162250000Y-79150000D02*
X162250000Y-71250000D01*
%TD*%
%TA.AperFunction,Conductor*%
%TO.N,GND*%
G36*
X160963036Y-40014945D02*
G01*
X161007586Y-40054913D01*
X161028226Y-40111093D01*
X161020146Y-40170397D01*
X160985229Y-40219008D01*
X160931609Y-40245600D01*
X160858420Y-40261710D01*
X160615728Y-40315131D01*
X160443283Y-40373234D01*
X160276565Y-40429409D01*
X160276562Y-40429410D01*
X160276560Y-40429411D01*
X159951749Y-40579683D01*
X159645081Y-40764199D01*
X159360161Y-40980789D01*
X159100332Y-41226913D01*
X158868636Y-41499686D01*
X158667786Y-41795919D01*
X158500146Y-42112118D01*
X158367674Y-42444598D01*
X158271930Y-42789440D01*
X158214027Y-43142635D01*
X158194651Y-43500000D01*
X158214027Y-43857364D01*
X158271930Y-44210559D01*
X158367674Y-44555401D01*
X158500146Y-44887881D01*
X158667786Y-45204080D01*
X158868636Y-45500313D01*
X159100332Y-45773086D01*
X159360161Y-46019210D01*
X159645081Y-46235800D01*
X159951747Y-46420315D01*
X160276565Y-46570591D01*
X160615726Y-46684868D01*
X160965254Y-46761805D01*
X161286151Y-46796704D01*
X161321051Y-46800500D01*
X161321052Y-46800500D01*
X161678948Y-46800500D01*
X161678949Y-46800500D01*
X161710730Y-46797043D01*
X162034746Y-46761805D01*
X162384274Y-46684868D01*
X162723435Y-46570591D01*
X163048253Y-46420315D01*
X163354919Y-46235800D01*
X163639837Y-46019211D01*
X163899668Y-45773086D01*
X164131365Y-45500311D01*
X164332211Y-45204085D01*
X164424597Y-45029826D01*
X164499853Y-44887881D01*
X164632325Y-44555401D01*
X164728069Y-44210559D01*
X164728068Y-44210559D01*
X164728071Y-44210552D01*
X164753133Y-44057674D01*
X164777466Y-44001808D01*
X164825474Y-43964277D01*
X164885564Y-43954147D01*
X164943223Y-43973865D01*
X164984527Y-44018669D01*
X164999500Y-44077738D01*
X164999500Y-70155597D01*
X164990544Y-70191112D01*
X164999500Y-70224820D01*
X164999500Y-91186534D01*
X164987449Y-91233483D01*
X164999500Y-91279624D01*
X164999500Y-95922262D01*
X164984527Y-95981331D01*
X164943223Y-96026135D01*
X164885564Y-96045853D01*
X164825474Y-96035723D01*
X164777466Y-95998192D01*
X164753133Y-95942325D01*
X164728071Y-95789448D01*
X164703625Y-95701400D01*
X164632325Y-95444598D01*
X164499853Y-95112118D01*
X164332213Y-94795919D01*
X164332211Y-94795915D01*
X164131365Y-94499689D01*
X164131363Y-94499686D01*
X163899667Y-94226913D01*
X163639838Y-93980789D01*
X163470697Y-93852212D01*
X163354919Y-93764200D01*
X163051165Y-93581437D01*
X163011068Y-93542675D01*
X162992014Y-93490262D01*
X162997856Y-93434799D01*
X163027411Y-93387508D01*
X164447409Y-91967510D01*
X164449579Y-91965394D01*
X164513053Y-91905059D01*
X164546765Y-91856622D01*
X164552408Y-91849138D01*
X164589698Y-91803407D01*
X164603786Y-91776435D01*
X164611911Y-91763024D01*
X164629295Y-91738049D01*
X164652568Y-91683815D01*
X164656598Y-91675331D01*
X164675645Y-91638870D01*
X164683909Y-91623049D01*
X164692278Y-91593797D01*
X164697534Y-91579032D01*
X164709540Y-91551058D01*
X164721418Y-91493256D01*
X164723651Y-91484156D01*
X164739887Y-91427418D01*
X164742197Y-91397077D01*
X164744376Y-91381535D01*
X164750500Y-91351741D01*
X164750500Y-91292757D01*
X164750858Y-91283342D01*
X164751858Y-91270209D01*
X164764690Y-91232922D01*
X164752494Y-91202200D01*
X164751494Y-91194348D01*
X164750500Y-91178682D01*
X164750500Y-70264279D01*
X164750540Y-70261138D01*
X164751540Y-70221679D01*
X164760146Y-70192305D01*
X164753445Y-70177474D01*
X164742350Y-70115574D01*
X164741041Y-70106242D01*
X164735074Y-70047562D01*
X164725962Y-70018520D01*
X164722226Y-70003297D01*
X164716858Y-69973347D01*
X164694976Y-69918566D01*
X164691816Y-69909689D01*
X164674159Y-69853412D01*
X164659395Y-69826812D01*
X164652660Y-69812631D01*
X164642157Y-69786336D01*
X164641377Y-69784383D01*
X164608917Y-69735131D01*
X164604036Y-69727074D01*
X164576703Y-69677830D01*
X164575409Y-69675498D01*
X164555582Y-69652403D01*
X164546146Y-69639888D01*
X164529402Y-69614481D01*
X164529400Y-69614479D01*
X164529399Y-69614477D01*
X164487693Y-69572772D01*
X164481287Y-69565860D01*
X164442864Y-69521102D01*
X164418804Y-69502478D01*
X164407026Y-69492105D01*
X163607980Y-68693059D01*
X162786817Y-67871897D01*
X162759938Y-67831670D01*
X162750499Y-67784217D01*
X162750499Y-67099991D01*
X162739999Y-66997203D01*
X162728885Y-66963663D01*
X162684814Y-66830666D01*
X162592712Y-66681344D01*
X162592711Y-66681342D01*
X162468657Y-66557288D01*
X162319334Y-66465186D01*
X162152797Y-66410000D01*
X162050009Y-66399500D01*
X160449991Y-66399500D01*
X160347203Y-66410000D01*
X160180665Y-66465186D01*
X160031342Y-66557288D01*
X159907288Y-66681342D01*
X159815186Y-66830665D01*
X159760000Y-66997202D01*
X159749500Y-67099990D01*
X159749500Y-68400008D01*
X159760000Y-68502796D01*
X159815186Y-68669334D01*
X159907288Y-68818657D01*
X160031342Y-68942711D01*
X160186120Y-69038178D01*
X160225604Y-69077091D01*
X160244185Y-69129321D01*
X160238151Y-69184428D01*
X160208706Y-69231397D01*
X160061505Y-69378599D01*
X159927880Y-69569436D01*
X159925964Y-69572172D01*
X159826097Y-69786337D01*
X159764936Y-70014592D01*
X159744340Y-70250000D01*
X159764936Y-70485407D01*
X159826096Y-70713662D01*
X159826097Y-70713663D01*
X159925965Y-70927829D01*
X160061505Y-71121401D01*
X160228599Y-71288495D01*
X160422171Y-71424035D01*
X160636337Y-71523903D01*
X160864591Y-71585062D01*
X160864592Y-71585063D01*
X161041032Y-71600500D01*
X161041034Y-71600500D01*
X161125500Y-71600500D01*
X161187500Y-71617113D01*
X161232887Y-71662500D01*
X161249500Y-71724500D01*
X161249500Y-74797015D01*
X161231509Y-74861343D01*
X161182757Y-74907004D01*
X161117391Y-74920750D01*
X161054378Y-74898591D01*
X161012734Y-74869432D01*
X160806497Y-74773261D01*
X160586689Y-74714364D01*
X160360000Y-74694531D01*
X160133310Y-74714364D01*
X159913502Y-74773261D01*
X159707264Y-74869432D01*
X159520859Y-74999953D01*
X159359953Y-75160859D01*
X159229433Y-75347263D01*
X159202382Y-75405275D01*
X159156625Y-75457450D01*
X159090000Y-75476869D01*
X159023375Y-75457450D01*
X158977618Y-75405275D01*
X158950687Y-75347522D01*
X158950568Y-75347266D01*
X158850749Y-75204708D01*
X158820046Y-75160859D01*
X158659140Y-74999953D01*
X158472735Y-74869432D01*
X158266497Y-74773261D01*
X158046689Y-74714364D01*
X157820000Y-74694531D01*
X157593310Y-74714364D01*
X157373502Y-74773261D01*
X157167264Y-74869432D01*
X156980859Y-74999953D01*
X156819953Y-75160859D01*
X156689433Y-75347263D01*
X156662382Y-75405275D01*
X156616625Y-75457450D01*
X156550000Y-75476869D01*
X156483375Y-75457450D01*
X156437618Y-75405275D01*
X156410687Y-75347522D01*
X156410568Y-75347266D01*
X156310749Y-75204708D01*
X156280046Y-75160859D01*
X156119140Y-74999953D01*
X155932735Y-74869432D01*
X155726497Y-74773261D01*
X155506689Y-74714364D01*
X155280000Y-74694531D01*
X155053310Y-74714364D01*
X154833502Y-74773261D01*
X154627264Y-74869432D01*
X154440859Y-74999953D01*
X154279953Y-75160859D01*
X154149433Y-75347263D01*
X154122382Y-75405275D01*
X154076625Y-75457450D01*
X154010000Y-75476869D01*
X153943375Y-75457450D01*
X153897618Y-75405275D01*
X153870687Y-75347522D01*
X153870568Y-75347266D01*
X153770749Y-75204708D01*
X153740046Y-75160859D01*
X153579140Y-74999953D01*
X153392735Y-74869432D01*
X153186497Y-74773261D01*
X152966689Y-74714364D01*
X152740000Y-74694531D01*
X152513310Y-74714364D01*
X152293502Y-74773261D01*
X152087264Y-74869432D01*
X151900859Y-74999953D01*
X151739953Y-75160859D01*
X151609433Y-75347263D01*
X151582382Y-75405275D01*
X151536625Y-75457450D01*
X151470000Y-75476869D01*
X151403375Y-75457450D01*
X151357618Y-75405275D01*
X151330687Y-75347522D01*
X151330568Y-75347266D01*
X151230749Y-75204708D01*
X151200046Y-75160859D01*
X151039140Y-74999953D01*
X150852735Y-74869432D01*
X150646497Y-74773261D01*
X150426689Y-74714364D01*
X150200000Y-74694531D01*
X149973310Y-74714364D01*
X149753502Y-74773261D01*
X149547264Y-74869432D01*
X149360859Y-74999953D01*
X149199953Y-75160859D01*
X149069433Y-75347263D01*
X149042382Y-75405275D01*
X148996625Y-75457450D01*
X148930000Y-75476869D01*
X148863375Y-75457450D01*
X148817618Y-75405275D01*
X148790687Y-75347522D01*
X148790568Y-75347266D01*
X148690749Y-75204708D01*
X148660046Y-75160859D01*
X148499140Y-74999953D01*
X148312735Y-74869432D01*
X148106497Y-74773261D01*
X147886689Y-74714364D01*
X147660000Y-74694531D01*
X147433310Y-74714364D01*
X147213502Y-74773261D01*
X147007264Y-74869432D01*
X146820859Y-74999953D01*
X146659953Y-75160859D01*
X146529433Y-75347263D01*
X146502382Y-75405275D01*
X146456625Y-75457450D01*
X146390000Y-75476869D01*
X146323375Y-75457450D01*
X146277618Y-75405275D01*
X146250687Y-75347522D01*
X146250568Y-75347266D01*
X146150749Y-75204708D01*
X146120046Y-75160859D01*
X145959140Y-74999953D01*
X145772735Y-74869432D01*
X145566497Y-74773261D01*
X145346689Y-74714364D01*
X145120000Y-74694531D01*
X144893310Y-74714364D01*
X144673502Y-74773261D01*
X144467264Y-74869432D01*
X144280859Y-74999953D01*
X144119953Y-75160859D01*
X143989433Y-75347263D01*
X143962382Y-75405275D01*
X143916625Y-75457450D01*
X143850000Y-75476869D01*
X143783375Y-75457450D01*
X143737618Y-75405275D01*
X143710687Y-75347522D01*
X143710568Y-75347266D01*
X143610749Y-75204708D01*
X143580046Y-75160859D01*
X143419140Y-74999953D01*
X143232735Y-74869432D01*
X143026497Y-74773261D01*
X142806689Y-74714364D01*
X142580000Y-74694531D01*
X142353310Y-74714364D01*
X142133502Y-74773261D01*
X141927264Y-74869432D01*
X141740859Y-74999953D01*
X141579953Y-75160859D01*
X141449433Y-75347263D01*
X141422382Y-75405275D01*
X141376625Y-75457450D01*
X141310000Y-75476869D01*
X141243375Y-75457450D01*
X141197618Y-75405275D01*
X141170687Y-75347522D01*
X141170568Y-75347266D01*
X141070749Y-75204708D01*
X141040046Y-75160859D01*
X140879140Y-74999953D01*
X140692735Y-74869432D01*
X140486497Y-74773261D01*
X140266689Y-74714364D01*
X140040000Y-74694531D01*
X139813310Y-74714364D01*
X139593502Y-74773261D01*
X139387264Y-74869432D01*
X139200859Y-74999953D01*
X139039953Y-75160859D01*
X138909433Y-75347263D01*
X138882382Y-75405275D01*
X138836625Y-75457450D01*
X138770000Y-75476869D01*
X138703375Y-75457450D01*
X138657618Y-75405275D01*
X138630687Y-75347522D01*
X138630568Y-75347266D01*
X138530749Y-75204708D01*
X138500046Y-75160859D01*
X138339140Y-74999953D01*
X138152735Y-74869432D01*
X137946497Y-74773261D01*
X137726689Y-74714364D01*
X137500000Y-74694531D01*
X137273310Y-74714364D01*
X137053502Y-74773261D01*
X136847264Y-74869432D01*
X136660859Y-74999953D01*
X136499953Y-75160859D01*
X136369433Y-75347263D01*
X136342382Y-75405275D01*
X136296625Y-75457450D01*
X136230000Y-75476869D01*
X136163375Y-75457450D01*
X136117618Y-75405275D01*
X136090687Y-75347522D01*
X136090568Y-75347266D01*
X135990749Y-75204708D01*
X135960046Y-75160859D01*
X135799140Y-74999953D01*
X135612735Y-74869432D01*
X135406497Y-74773261D01*
X135186689Y-74714364D01*
X134960000Y-74694531D01*
X134733310Y-74714364D01*
X134513502Y-74773261D01*
X134307264Y-74869432D01*
X134120859Y-74999953D01*
X133959953Y-75160859D01*
X133829433Y-75347263D01*
X133802382Y-75405275D01*
X133756625Y-75457450D01*
X133690000Y-75476869D01*
X133623375Y-75457450D01*
X133577618Y-75405275D01*
X133550687Y-75347522D01*
X133550568Y-75347266D01*
X133450749Y-75204708D01*
X133420046Y-75160859D01*
X133259140Y-74999953D01*
X133072735Y-74869432D01*
X132866497Y-74773261D01*
X132646689Y-74714364D01*
X132420000Y-74694531D01*
X132193310Y-74714364D01*
X131973502Y-74773261D01*
X131767264Y-74869432D01*
X131580859Y-74999953D01*
X131419953Y-75160859D01*
X131289433Y-75347263D01*
X131262382Y-75405275D01*
X131216625Y-75457450D01*
X131150000Y-75476869D01*
X131083375Y-75457450D01*
X131037618Y-75405275D01*
X131010687Y-75347522D01*
X131010568Y-75347266D01*
X130910749Y-75204708D01*
X130880046Y-75160859D01*
X130719140Y-74999953D01*
X130532735Y-74869432D01*
X130326497Y-74773261D01*
X130106689Y-74714364D01*
X129880000Y-74694531D01*
X129653310Y-74714364D01*
X129433502Y-74773261D01*
X129227264Y-74869432D01*
X129040859Y-74999953D01*
X128879953Y-75160859D01*
X128749430Y-75347267D01*
X128722105Y-75405866D01*
X128676348Y-75458041D01*
X128609723Y-75477460D01*
X128543099Y-75458040D01*
X128497342Y-75405865D01*
X128470134Y-75347519D01*
X128339658Y-75161180D01*
X128178819Y-75000341D01*
X127992480Y-74869865D01*
X127786326Y-74773733D01*
X127590000Y-74721128D01*
X127590000Y-77278871D01*
X127786326Y-77226266D01*
X127992480Y-77130134D01*
X128178819Y-76999658D01*
X128339658Y-76838819D01*
X128470135Y-76652479D01*
X128497342Y-76594135D01*
X128543098Y-76541959D01*
X128609723Y-76522539D01*
X128676348Y-76541958D01*
X128722105Y-76594132D01*
X128749432Y-76652733D01*
X128749433Y-76652736D01*
X128879953Y-76839140D01*
X129040859Y-77000046D01*
X129227264Y-77130567D01*
X129227265Y-77130567D01*
X129227266Y-77130568D01*
X129433504Y-77226739D01*
X129653308Y-77285635D01*
X129880000Y-77305468D01*
X130106692Y-77285635D01*
X130326496Y-77226739D01*
X130532734Y-77130568D01*
X130719139Y-77000047D01*
X130880047Y-76839139D01*
X131010568Y-76652734D01*
X131037618Y-76594724D01*
X131083375Y-76542549D01*
X131150000Y-76523129D01*
X131216625Y-76542549D01*
X131262382Y-76594725D01*
X131289431Y-76652733D01*
X131419953Y-76839140D01*
X131580859Y-77000046D01*
X131767264Y-77130567D01*
X131767265Y-77130567D01*
X131767266Y-77130568D01*
X131973504Y-77226739D01*
X132193308Y-77285635D01*
X132420000Y-77305468D01*
X132646692Y-77285635D01*
X132866496Y-77226739D01*
X133072734Y-77130568D01*
X133259139Y-77000047D01*
X133420047Y-76839139D01*
X133550568Y-76652734D01*
X133577618Y-76594724D01*
X133623375Y-76542549D01*
X133690000Y-76523129D01*
X133756625Y-76542549D01*
X133802382Y-76594725D01*
X133829431Y-76652733D01*
X133959953Y-76839140D01*
X134120859Y-77000046D01*
X134307264Y-77130567D01*
X134307265Y-77130567D01*
X134307266Y-77130568D01*
X134513504Y-77226739D01*
X134733308Y-77285635D01*
X134960000Y-77305468D01*
X135186692Y-77285635D01*
X135406496Y-77226739D01*
X135612734Y-77130568D01*
X135799139Y-77000047D01*
X135960047Y-76839139D01*
X136090568Y-76652734D01*
X136117618Y-76594724D01*
X136163375Y-76542549D01*
X136230000Y-76523129D01*
X136296625Y-76542549D01*
X136342382Y-76594725D01*
X136369431Y-76652733D01*
X136499953Y-76839140D01*
X136660859Y-77000046D01*
X136847264Y-77130567D01*
X136847265Y-77130567D01*
X136847266Y-77130568D01*
X137053504Y-77226739D01*
X137273308Y-77285635D01*
X137500000Y-77305468D01*
X137726692Y-77285635D01*
X137946496Y-77226739D01*
X138152734Y-77130568D01*
X138339139Y-77000047D01*
X138500047Y-76839139D01*
X138630568Y-76652734D01*
X138657618Y-76594724D01*
X138703375Y-76542549D01*
X138770000Y-76523129D01*
X138836625Y-76542549D01*
X138882382Y-76594725D01*
X138909431Y-76652733D01*
X139039953Y-76839140D01*
X139200859Y-77000046D01*
X139387264Y-77130567D01*
X139387265Y-77130567D01*
X139387266Y-77130568D01*
X139593504Y-77226739D01*
X139813308Y-77285635D01*
X140040000Y-77305468D01*
X140266692Y-77285635D01*
X140486496Y-77226739D01*
X140692734Y-77130568D01*
X140879139Y-77000047D01*
X141040047Y-76839139D01*
X141170568Y-76652734D01*
X141197618Y-76594724D01*
X141243375Y-76542549D01*
X141310000Y-76523129D01*
X141376625Y-76542549D01*
X141422382Y-76594725D01*
X141449431Y-76652733D01*
X141579953Y-76839140D01*
X141740859Y-77000046D01*
X141927264Y-77130567D01*
X141927265Y-77130567D01*
X141927266Y-77130568D01*
X142133504Y-77226739D01*
X142353308Y-77285635D01*
X142580000Y-77305468D01*
X142806692Y-77285635D01*
X143026496Y-77226739D01*
X143232734Y-77130568D01*
X143419139Y-77000047D01*
X143580047Y-76839139D01*
X143710568Y-76652734D01*
X143737618Y-76594724D01*
X143783375Y-76542549D01*
X143850000Y-76523129D01*
X143916625Y-76542549D01*
X143962382Y-76594725D01*
X143989431Y-76652733D01*
X144119953Y-76839140D01*
X144280859Y-77000046D01*
X144467264Y-77130567D01*
X144467265Y-77130567D01*
X144467266Y-77130568D01*
X144673504Y-77226739D01*
X144893308Y-77285635D01*
X145120000Y-77305468D01*
X145346692Y-77285635D01*
X145566496Y-77226739D01*
X145772734Y-77130568D01*
X145959139Y-77000047D01*
X146120047Y-76839139D01*
X146250568Y-76652734D01*
X146277618Y-76594724D01*
X146323375Y-76542549D01*
X146390000Y-76523129D01*
X146456625Y-76542549D01*
X146502382Y-76594725D01*
X146529431Y-76652733D01*
X146659953Y-76839140D01*
X146820859Y-77000046D01*
X147007264Y-77130567D01*
X147007265Y-77130567D01*
X147007266Y-77130568D01*
X147213504Y-77226739D01*
X147433308Y-77285635D01*
X147660000Y-77305468D01*
X147886692Y-77285635D01*
X148106496Y-77226739D01*
X148312734Y-77130568D01*
X148499139Y-77000047D01*
X148660047Y-76839139D01*
X148790568Y-76652734D01*
X148817618Y-76594724D01*
X148863375Y-76542549D01*
X148930000Y-76523129D01*
X148996625Y-76542549D01*
X149042382Y-76594725D01*
X149069431Y-76652733D01*
X149199953Y-76839140D01*
X149360859Y-77000046D01*
X149547264Y-77130567D01*
X149547265Y-77130567D01*
X149547266Y-77130568D01*
X149753504Y-77226739D01*
X149973308Y-77285635D01*
X150200000Y-77305468D01*
X150426692Y-77285635D01*
X150646496Y-77226739D01*
X150852734Y-77130568D01*
X151039139Y-77000047D01*
X151200047Y-76839139D01*
X151330568Y-76652734D01*
X151357618Y-76594724D01*
X151403375Y-76542549D01*
X151470000Y-76523129D01*
X151536625Y-76542549D01*
X151582382Y-76594725D01*
X151609431Y-76652733D01*
X151739953Y-76839140D01*
X151900859Y-77000046D01*
X152087264Y-77130567D01*
X152087265Y-77130567D01*
X152087266Y-77130568D01*
X152293504Y-77226739D01*
X152513308Y-77285635D01*
X152740000Y-77305468D01*
X152966692Y-77285635D01*
X153186496Y-77226739D01*
X153392734Y-77130568D01*
X153579139Y-77000047D01*
X153740047Y-76839139D01*
X153870568Y-76652734D01*
X153897618Y-76594724D01*
X153943375Y-76542549D01*
X154010000Y-76523129D01*
X154076625Y-76542549D01*
X154122382Y-76594725D01*
X154149431Y-76652733D01*
X154279953Y-76839140D01*
X154440859Y-77000046D01*
X154627264Y-77130567D01*
X154627265Y-77130567D01*
X154627266Y-77130568D01*
X154833504Y-77226739D01*
X155053308Y-77285635D01*
X155280000Y-77305468D01*
X155506692Y-77285635D01*
X155726496Y-77226739D01*
X155932734Y-77130568D01*
X156119139Y-77000047D01*
X156280047Y-76839139D01*
X156410568Y-76652734D01*
X156437618Y-76594724D01*
X156483375Y-76542549D01*
X156550000Y-76523129D01*
X156616625Y-76542549D01*
X156662382Y-76594725D01*
X156689431Y-76652733D01*
X156819953Y-76839140D01*
X156980859Y-77000046D01*
X157167264Y-77130567D01*
X157167265Y-77130567D01*
X157167266Y-77130568D01*
X157373504Y-77226739D01*
X157593308Y-77285635D01*
X157820000Y-77305468D01*
X158046692Y-77285635D01*
X158266496Y-77226739D01*
X158472734Y-77130568D01*
X158659139Y-77000047D01*
X158820047Y-76839139D01*
X158950568Y-76652734D01*
X158977618Y-76594724D01*
X159023375Y-76542549D01*
X159090000Y-76523129D01*
X159156625Y-76542549D01*
X159202382Y-76594725D01*
X159229431Y-76652733D01*
X159359953Y-76839140D01*
X159520859Y-77000046D01*
X159602431Y-77057163D01*
X159638695Y-77096738D01*
X159654836Y-77147930D01*
X159647830Y-77201148D01*
X159618989Y-77246419D01*
X157277228Y-79588181D01*
X157237000Y-79615061D01*
X157189547Y-79624500D01*
X125810453Y-79624500D01*
X125763000Y-79615061D01*
X125722772Y-79588181D01*
X123923215Y-77788624D01*
X123896335Y-77748396D01*
X123886896Y-77700943D01*
X123886896Y-77186457D01*
X123904887Y-77122129D01*
X123953639Y-77076468D01*
X124019006Y-77062722D01*
X124082019Y-77084882D01*
X124147266Y-77130568D01*
X124353504Y-77226739D01*
X124573308Y-77285635D01*
X124800000Y-77305468D01*
X125026692Y-77285635D01*
X125246496Y-77226739D01*
X125452734Y-77130568D01*
X125639139Y-77000047D01*
X125800047Y-76839139D01*
X125930568Y-76652734D01*
X125957893Y-76594134D01*
X126003649Y-76541959D01*
X126070274Y-76522539D01*
X126136899Y-76541958D01*
X126182657Y-76594133D01*
X126209866Y-76652482D01*
X126340341Y-76838819D01*
X126501180Y-76999658D01*
X126687519Y-77130134D01*
X126893673Y-77226266D01*
X127089999Y-77278871D01*
X127090000Y-77278872D01*
X127090000Y-74721128D01*
X127089999Y-74721128D01*
X126893673Y-74773733D01*
X126687519Y-74869865D01*
X126501180Y-75000341D01*
X126340341Y-75161180D01*
X126209863Y-75347522D01*
X126182656Y-75405866D01*
X126136899Y-75458041D01*
X126070274Y-75477460D01*
X126003650Y-75458040D01*
X125957893Y-75405865D01*
X125930567Y-75347264D01*
X125830749Y-75204708D01*
X125808905Y-75145576D01*
X125818958Y-75083344D01*
X125858309Y-75034097D01*
X125901520Y-75016706D01*
X125901412Y-75016432D01*
X125915980Y-75010664D01*
X125956595Y-74994582D01*
X125967632Y-74990803D01*
X126009578Y-74978618D01*
X126026817Y-74968422D01*
X126044290Y-74959862D01*
X126062920Y-74952486D01*
X126098252Y-74926814D01*
X126108018Y-74920400D01*
X126145606Y-74898171D01*
X126145605Y-74898171D01*
X126145608Y-74898170D01*
X126159773Y-74884004D01*
X126174561Y-74871373D01*
X126190775Y-74859594D01*
X126218626Y-74825926D01*
X126226467Y-74817309D01*
X127983789Y-73059988D01*
X127999885Y-73047094D01*
X128001873Y-73044975D01*
X128001877Y-73044974D01*
X128047948Y-72995911D01*
X128050566Y-72993211D01*
X128070120Y-72973659D01*
X128072581Y-72970486D01*
X128080156Y-72961615D01*
X128110062Y-72929770D01*
X128119717Y-72912206D01*
X128130394Y-72895952D01*
X128142673Y-72880124D01*
X128160018Y-72840040D01*
X128165160Y-72829544D01*
X128186197Y-72791280D01*
X128191179Y-72771872D01*
X128197481Y-72753468D01*
X128205437Y-72735084D01*
X128212269Y-72691940D01*
X128214633Y-72680526D01*
X128225500Y-72638207D01*
X128225500Y-72618172D01*
X128227027Y-72598773D01*
X128227068Y-72598509D01*
X128230160Y-72578992D01*
X128226050Y-72535513D01*
X128225500Y-72523844D01*
X128225500Y-71750000D01*
X129525001Y-71750000D01*
X129525001Y-72149979D01*
X129535493Y-72252695D01*
X129590642Y-72419122D01*
X129682683Y-72568345D01*
X129806654Y-72692316D01*
X129955877Y-72784357D01*
X130122303Y-72839506D01*
X130225021Y-72850000D01*
X130750000Y-72850000D01*
X130750000Y-71750000D01*
X131250000Y-71750000D01*
X131250000Y-72849999D01*
X131774979Y-72849999D01*
X131877695Y-72839506D01*
X132044122Y-72784357D01*
X132193345Y-72692316D01*
X132317316Y-72568345D01*
X132409357Y-72419122D01*
X132464506Y-72252696D01*
X132475000Y-72149979D01*
X132475000Y-71750000D01*
X136775001Y-71750000D01*
X136775001Y-72149979D01*
X136785493Y-72252695D01*
X136840642Y-72419122D01*
X136932683Y-72568345D01*
X137056654Y-72692316D01*
X137205877Y-72784357D01*
X137372303Y-72839506D01*
X137475021Y-72850000D01*
X138000000Y-72850000D01*
X138000000Y-71750000D01*
X138500000Y-71750000D01*
X138500000Y-72849999D01*
X139024979Y-72849999D01*
X139127695Y-72839506D01*
X139294122Y-72784357D01*
X139443345Y-72692316D01*
X139567316Y-72568345D01*
X139659357Y-72419122D01*
X139714506Y-72252696D01*
X139725000Y-72149979D01*
X139725000Y-71750000D01*
X144025001Y-71750000D01*
X144025001Y-72149979D01*
X144035493Y-72252695D01*
X144090642Y-72419122D01*
X144182683Y-72568345D01*
X144306654Y-72692316D01*
X144455877Y-72784357D01*
X144622303Y-72839506D01*
X144725021Y-72850000D01*
X145250000Y-72850000D01*
X145250000Y-71750000D01*
X145750000Y-71750000D01*
X145750000Y-72849999D01*
X146274979Y-72849999D01*
X146377695Y-72839506D01*
X146544122Y-72784357D01*
X146693345Y-72692316D01*
X146817316Y-72568345D01*
X146909357Y-72419122D01*
X146964506Y-72252696D01*
X146975000Y-72149979D01*
X146975000Y-71750000D01*
X145750000Y-71750000D01*
X145250000Y-71750000D01*
X144025001Y-71750000D01*
X139725000Y-71750000D01*
X138500000Y-71750000D01*
X138000000Y-71750000D01*
X136775001Y-71750000D01*
X132475000Y-71750000D01*
X131250000Y-71750000D01*
X130750000Y-71750000D01*
X129525001Y-71750000D01*
X128225500Y-71750000D01*
X128225500Y-69000000D01*
X129519340Y-69000000D01*
X129539936Y-69235407D01*
X129601097Y-69463663D01*
X129700965Y-69677829D01*
X129836505Y-69871401D01*
X129984068Y-70018964D01*
X130013513Y-70065934D01*
X130019549Y-70121041D01*
X130000967Y-70173270D01*
X129961484Y-70212184D01*
X129806653Y-70307684D01*
X129682683Y-70431654D01*
X129590642Y-70580877D01*
X129535493Y-70747303D01*
X129525000Y-70850021D01*
X129525000Y-71250000D01*
X132474999Y-71250000D01*
X132474999Y-70850021D01*
X132464506Y-70747304D01*
X132409357Y-70580877D01*
X132317316Y-70431654D01*
X132193346Y-70307684D01*
X132038515Y-70212184D01*
X131999032Y-70173270D01*
X131980450Y-70121041D01*
X131986486Y-70065934D01*
X132015927Y-70018968D01*
X132163495Y-69871401D01*
X132299035Y-69677830D01*
X132398903Y-69463663D01*
X132460063Y-69235408D01*
X132480659Y-69000000D01*
X136769340Y-69000000D01*
X136789936Y-69235407D01*
X136851097Y-69463663D01*
X136950965Y-69677829D01*
X137086505Y-69871401D01*
X137234068Y-70018964D01*
X137263513Y-70065934D01*
X137269549Y-70121041D01*
X137250967Y-70173270D01*
X137211484Y-70212184D01*
X137056653Y-70307684D01*
X136932683Y-70431654D01*
X136840642Y-70580877D01*
X136785493Y-70747303D01*
X136775000Y-70850021D01*
X136775000Y-71250000D01*
X139724999Y-71250000D01*
X139724999Y-70850021D01*
X139714506Y-70747304D01*
X139659357Y-70580877D01*
X139567316Y-70431654D01*
X139443346Y-70307684D01*
X139288515Y-70212184D01*
X139249032Y-70173270D01*
X139230450Y-70121041D01*
X139236486Y-70065934D01*
X139265927Y-70018968D01*
X139413495Y-69871401D01*
X139549035Y-69677830D01*
X139648903Y-69463663D01*
X139710063Y-69235408D01*
X139730659Y-69000000D01*
X139710063Y-68764592D01*
X139648903Y-68536337D01*
X139549035Y-68322171D01*
X139413495Y-68128599D01*
X139246401Y-67961505D01*
X139089401Y-67851573D01*
X139050537Y-67807257D01*
X139036526Y-67750000D01*
X139050537Y-67692743D01*
X139089401Y-67648426D01*
X139246401Y-67538495D01*
X139413495Y-67371401D01*
X139549035Y-67177830D01*
X139648903Y-66963663D01*
X139710063Y-66735408D01*
X139730659Y-66500000D01*
X139710063Y-66264592D01*
X139648903Y-66036337D01*
X139549035Y-65822171D01*
X139413495Y-65628599D01*
X139246401Y-65461505D01*
X139052829Y-65325965D01*
X138838663Y-65226097D01*
X138838662Y-65226096D01*
X138610407Y-65164936D01*
X138433968Y-65149500D01*
X138433966Y-65149500D01*
X138066034Y-65149500D01*
X138066032Y-65149500D01*
X137889592Y-65164936D01*
X137661336Y-65226097D01*
X137447170Y-65325965D01*
X137253598Y-65461505D01*
X137086508Y-65628595D01*
X137086505Y-65628598D01*
X137086505Y-65628599D01*
X136989375Y-65767316D01*
X136950964Y-65822172D01*
X136851097Y-66036337D01*
X136789936Y-66264592D01*
X136769340Y-66500000D01*
X136789936Y-66735407D01*
X136851097Y-66963663D01*
X136950965Y-67177829D01*
X137086505Y-67371401D01*
X137253598Y-67538494D01*
X137410596Y-67648425D01*
X137449462Y-67692743D01*
X137463473Y-67750000D01*
X137449462Y-67807257D01*
X137410596Y-67851575D01*
X137253598Y-67961505D01*
X137086508Y-68128595D01*
X137086505Y-68128598D01*
X137086505Y-68128599D01*
X137009868Y-68238049D01*
X136950964Y-68322172D01*
X136851097Y-68536337D01*
X136789936Y-68764592D01*
X136769340Y-69000000D01*
X132480659Y-69000000D01*
X132460063Y-68764592D01*
X132398903Y-68536337D01*
X132299035Y-68322171D01*
X132163495Y-68128599D01*
X131996401Y-67961505D01*
X131839401Y-67851573D01*
X131800537Y-67807257D01*
X131786526Y-67750000D01*
X131800537Y-67692743D01*
X131839401Y-67648426D01*
X131996401Y-67538495D01*
X132163495Y-67371401D01*
X132299035Y-67177830D01*
X132398903Y-66963663D01*
X132460063Y-66735408D01*
X132480659Y-66500000D01*
X132460063Y-66264592D01*
X132398903Y-66036337D01*
X132299035Y-65822171D01*
X132163495Y-65628599D01*
X131996401Y-65461505D01*
X131802829Y-65325965D01*
X131588663Y-65226097D01*
X131588662Y-65226096D01*
X131360407Y-65164936D01*
X131183968Y-65149500D01*
X131183966Y-65149500D01*
X130816034Y-65149500D01*
X130816032Y-65149500D01*
X130639592Y-65164936D01*
X130411336Y-65226097D01*
X130197170Y-65325965D01*
X130003598Y-65461505D01*
X129836508Y-65628595D01*
X129836505Y-65628598D01*
X129836505Y-65628599D01*
X129739375Y-65767316D01*
X129700964Y-65822172D01*
X129601097Y-66036337D01*
X129539936Y-66264592D01*
X129519340Y-66500000D01*
X129539936Y-66735407D01*
X129601097Y-66963663D01*
X129700965Y-67177829D01*
X129836505Y-67371401D01*
X130003598Y-67538494D01*
X130160596Y-67648425D01*
X130199462Y-67692743D01*
X130213473Y-67750000D01*
X130199462Y-67807257D01*
X130160596Y-67851575D01*
X130003598Y-67961505D01*
X129836508Y-68128595D01*
X129836505Y-68128598D01*
X129836505Y-68128599D01*
X129759868Y-68238049D01*
X129700964Y-68322172D01*
X129601097Y-68536337D01*
X129539936Y-68764592D01*
X129519340Y-69000000D01*
X128225500Y-69000000D01*
X128225500Y-66121446D01*
X128234939Y-66073993D01*
X128261819Y-66033765D01*
X128528269Y-65767316D01*
X128568497Y-65740436D01*
X128615950Y-65730997D01*
X128675145Y-65730997D01*
X128798581Y-65704759D01*
X128860300Y-65691641D01*
X129033227Y-65614648D01*
X129186368Y-65503385D01*
X129313030Y-65362713D01*
X129407676Y-65198781D01*
X129466171Y-65018753D01*
X129485957Y-64830497D01*
X129473551Y-64712460D01*
X129485422Y-64645142D01*
X129531162Y-64594342D01*
X129596872Y-64575500D01*
X137917256Y-64575500D01*
X137937762Y-64577764D01*
X137940665Y-64577672D01*
X137940667Y-64577673D01*
X138007872Y-64575561D01*
X138011768Y-64575500D01*
X138039349Y-64575500D01*
X138039350Y-64575500D01*
X138043319Y-64574998D01*
X138054965Y-64574080D01*
X138098627Y-64572709D01*
X138117859Y-64567120D01*
X138136918Y-64563174D01*
X138145453Y-64562096D01*
X138156792Y-64560664D01*
X138197407Y-64544582D01*
X138208444Y-64540803D01*
X138250390Y-64528618D01*
X138267629Y-64518422D01*
X138285102Y-64509862D01*
X138303732Y-64502486D01*
X138339064Y-64476814D01*
X138348830Y-64470400D01*
X138386418Y-64448171D01*
X138386417Y-64448171D01*
X138386420Y-64448170D01*
X138400585Y-64434004D01*
X138415373Y-64421373D01*
X138431587Y-64409594D01*
X138459438Y-64375926D01*
X138467279Y-64367309D01*
X139835178Y-62999410D01*
X139890764Y-62967318D01*
X139954947Y-62967318D01*
X140023308Y-62985635D01*
X140250000Y-63005468D01*
X140476692Y-62985635D01*
X140696496Y-62926739D01*
X140902734Y-62830568D01*
X141089139Y-62700047D01*
X141250047Y-62539139D01*
X141273923Y-62505038D01*
X141321141Y-62464711D01*
X141381989Y-62452331D01*
X141441210Y-62471003D01*
X141483953Y-62516044D01*
X141499500Y-62576161D01*
X141499500Y-62585721D01*
X141499460Y-62588863D01*
X141497242Y-62676362D01*
X141507648Y-62734420D01*
X141508957Y-62743749D01*
X141514926Y-62802438D01*
X141524033Y-62831467D01*
X141527772Y-62846702D01*
X141533141Y-62876652D01*
X141555020Y-62931425D01*
X141558180Y-62940300D01*
X141566657Y-62967319D01*
X141575841Y-62996588D01*
X141590607Y-63023191D01*
X141597337Y-63037364D01*
X141608622Y-63065617D01*
X141641080Y-63114867D01*
X141645961Y-63122923D01*
X141674590Y-63174501D01*
X141694404Y-63197581D01*
X141703854Y-63210113D01*
X141715403Y-63227637D01*
X141720599Y-63235520D01*
X141762300Y-63277221D01*
X141768705Y-63284132D01*
X141807130Y-63328891D01*
X141807131Y-63328892D01*
X141807134Y-63328895D01*
X141831198Y-63347522D01*
X141842968Y-63357889D01*
X143382449Y-64897370D01*
X143384642Y-64899619D01*
X143444941Y-64963053D01*
X143493358Y-64996752D01*
X143500865Y-65002413D01*
X143546593Y-65039698D01*
X143573556Y-65053782D01*
X143586980Y-65061915D01*
X143611951Y-65079295D01*
X143666163Y-65102559D01*
X143674663Y-65106595D01*
X143726951Y-65133909D01*
X143756196Y-65142277D01*
X143770986Y-65147543D01*
X143775547Y-65149500D01*
X143798942Y-65159540D01*
X143856737Y-65171416D01*
X143865854Y-65173654D01*
X143922582Y-65189887D01*
X143952916Y-65192196D01*
X143968453Y-65194374D01*
X143998259Y-65200500D01*
X144057243Y-65200500D01*
X144066657Y-65200858D01*
X144125477Y-65205337D01*
X144155652Y-65201493D01*
X144171318Y-65200500D01*
X144483076Y-65200500D01*
X144543192Y-65216047D01*
X144588234Y-65258790D01*
X144606906Y-65318011D01*
X144594526Y-65378858D01*
X144554199Y-65426074D01*
X144537287Y-65437916D01*
X144503598Y-65461505D01*
X144336508Y-65628595D01*
X144336505Y-65628598D01*
X144336505Y-65628599D01*
X144239375Y-65767316D01*
X144200964Y-65822172D01*
X144101097Y-66036337D01*
X144039936Y-66264592D01*
X144019340Y-66500000D01*
X144039936Y-66735407D01*
X144101097Y-66963663D01*
X144200965Y-67177829D01*
X144336505Y-67371401D01*
X144503598Y-67538494D01*
X144660596Y-67648425D01*
X144699462Y-67692743D01*
X144713473Y-67750000D01*
X144699462Y-67807257D01*
X144660596Y-67851575D01*
X144503598Y-67961505D01*
X144336508Y-68128595D01*
X144336505Y-68128598D01*
X144336505Y-68128599D01*
X144259868Y-68238049D01*
X144200964Y-68322172D01*
X144101097Y-68536337D01*
X144039936Y-68764592D01*
X144019340Y-69000000D01*
X144039936Y-69235407D01*
X144101097Y-69463663D01*
X144200965Y-69677829D01*
X144336505Y-69871401D01*
X144484068Y-70018964D01*
X144513513Y-70065934D01*
X144519549Y-70121041D01*
X144500967Y-70173270D01*
X144461484Y-70212184D01*
X144306653Y-70307684D01*
X144182683Y-70431654D01*
X144090642Y-70580877D01*
X144035493Y-70747303D01*
X144025000Y-70850021D01*
X144025000Y-71250000D01*
X146974999Y-71250000D01*
X146974999Y-70850021D01*
X146964506Y-70747304D01*
X146909357Y-70580877D01*
X146817316Y-70431654D01*
X146693346Y-70307684D01*
X146538515Y-70212184D01*
X146499032Y-70173270D01*
X146480450Y-70121041D01*
X146486486Y-70065934D01*
X146515927Y-70018968D01*
X146663495Y-69871401D01*
X146799035Y-69677830D01*
X146898903Y-69463663D01*
X146960063Y-69235408D01*
X146980659Y-69000000D01*
X146960063Y-68764592D01*
X146898903Y-68536337D01*
X146799035Y-68322171D01*
X146663495Y-68128599D01*
X146496401Y-67961505D01*
X146339401Y-67851573D01*
X146300537Y-67807257D01*
X146286526Y-67750000D01*
X146300537Y-67692743D01*
X146339401Y-67648426D01*
X146496401Y-67538495D01*
X146663495Y-67371401D01*
X146799035Y-67177830D01*
X146898903Y-66963663D01*
X146960063Y-66735408D01*
X146980659Y-66500000D01*
X146960063Y-66264592D01*
X146898903Y-66036337D01*
X146799035Y-65822171D01*
X146663495Y-65628599D01*
X146496401Y-65461505D01*
X146445800Y-65426074D01*
X146405474Y-65378858D01*
X146393094Y-65318011D01*
X146411766Y-65258790D01*
X146456808Y-65216047D01*
X146516924Y-65200500D01*
X153934217Y-65200500D01*
X153981670Y-65209939D01*
X154021898Y-65236819D01*
X154981874Y-66196795D01*
X155012880Y-66248567D01*
X155015775Y-66308844D01*
X154989875Y-66363349D01*
X154941313Y-66399174D01*
X154881591Y-66407834D01*
X154800009Y-66399500D01*
X153199991Y-66399500D01*
X153097203Y-66410000D01*
X152930665Y-66465186D01*
X152781342Y-66557288D01*
X152657288Y-66681342D01*
X152565186Y-66830665D01*
X152510000Y-66997202D01*
X152499500Y-67099990D01*
X152499500Y-68400008D01*
X152510000Y-68502796D01*
X152565186Y-68669334D01*
X152657288Y-68818657D01*
X152781342Y-68942711D01*
X152936120Y-69038178D01*
X152975604Y-69077091D01*
X152994185Y-69129321D01*
X152988151Y-69184428D01*
X152958706Y-69231397D01*
X152811505Y-69378599D01*
X152677880Y-69569436D01*
X152675964Y-69572172D01*
X152576097Y-69786337D01*
X152514936Y-70014592D01*
X152494340Y-70250000D01*
X152514936Y-70485407D01*
X152576096Y-70713662D01*
X152576097Y-70713663D01*
X152675965Y-70927829D01*
X152811505Y-71121401D01*
X152978599Y-71288495D01*
X153172171Y-71424035D01*
X153386337Y-71523903D01*
X153614591Y-71585062D01*
X153614592Y-71585063D01*
X153791032Y-71600500D01*
X153791034Y-71600500D01*
X154208966Y-71600500D01*
X154208968Y-71600500D01*
X154326594Y-71590208D01*
X154385408Y-71585063D01*
X154613663Y-71523903D01*
X154827829Y-71424035D01*
X155021401Y-71288495D01*
X155188495Y-71121401D01*
X155324035Y-70927830D01*
X155423903Y-70713663D01*
X155485063Y-70485408D01*
X155505659Y-70250000D01*
X155485063Y-70014592D01*
X155423903Y-69786337D01*
X155324035Y-69572171D01*
X155188495Y-69378599D01*
X155041294Y-69231397D01*
X155011849Y-69184428D01*
X155005814Y-69129321D01*
X155024395Y-69077091D01*
X155063879Y-69038178D01*
X155069331Y-69034814D01*
X155069334Y-69034814D01*
X155218656Y-68942712D01*
X155342712Y-68818656D01*
X155434814Y-68669334D01*
X155489999Y-68502797D01*
X155500500Y-68400009D01*
X155500499Y-67099992D01*
X155492165Y-67018406D01*
X155500825Y-66958686D01*
X155536650Y-66910124D01*
X155591156Y-66884224D01*
X155651432Y-66887119D01*
X155703204Y-66918125D01*
X156828795Y-68043716D01*
X156859426Y-68094273D01*
X156870196Y-68128598D01*
X156875842Y-68146590D01*
X156973297Y-68322172D01*
X156974591Y-68324502D01*
X157107134Y-68478895D01*
X157268042Y-68603448D01*
X157450729Y-68693060D01*
X157647715Y-68744063D01*
X157850936Y-68754369D01*
X157850936Y-68754368D01*
X157850937Y-68754369D01*
X158052071Y-68723556D01*
X158134413Y-68693060D01*
X158242887Y-68652886D01*
X158415571Y-68545252D01*
X158563053Y-68405059D01*
X158679295Y-68238049D01*
X158759540Y-68051058D01*
X158800500Y-67851741D01*
X158800500Y-67614262D01*
X158800540Y-67611120D01*
X158802757Y-67523637D01*
X158792350Y-67465574D01*
X158791041Y-67456242D01*
X158785074Y-67397562D01*
X158775962Y-67368520D01*
X158772226Y-67353297D01*
X158766858Y-67323347D01*
X158744976Y-67268566D01*
X158741816Y-67259689D01*
X158724159Y-67203412D01*
X158709395Y-67176812D01*
X158702660Y-67162631D01*
X158691377Y-67134383D01*
X158658917Y-67085131D01*
X158654036Y-67077074D01*
X158625409Y-67025498D01*
X158605582Y-67002403D01*
X158596146Y-66989888D01*
X158579402Y-66964481D01*
X158579400Y-66964479D01*
X158579399Y-66964477D01*
X158537693Y-66922772D01*
X158531287Y-66915860D01*
X158492864Y-66871102D01*
X158468804Y-66852478D01*
X158457026Y-66842105D01*
X155117567Y-63502647D01*
X155115412Y-63500438D01*
X155055059Y-63436947D01*
X155006640Y-63403246D01*
X154999118Y-63397575D01*
X154953405Y-63360300D01*
X154926440Y-63346215D01*
X154913019Y-63338084D01*
X154888049Y-63320705D01*
X154888048Y-63320704D01*
X154888046Y-63320703D01*
X154833845Y-63297443D01*
X154825336Y-63293402D01*
X154773053Y-63266092D01*
X154767126Y-63264396D01*
X154743798Y-63257721D01*
X154729020Y-63252459D01*
X154701058Y-63240460D01*
X154679636Y-63236057D01*
X154624049Y-63208869D01*
X154592114Y-63163327D01*
X154566845Y-63185489D01*
X154509588Y-63199500D01*
X154442758Y-63199500D01*
X154433344Y-63199142D01*
X154412844Y-63197581D01*
X154374524Y-63194663D01*
X154374523Y-63194663D01*
X154344349Y-63198506D01*
X154328683Y-63199500D01*
X152710412Y-63199500D01*
X152653155Y-63185489D01*
X152608837Y-63146623D01*
X152587473Y-63091685D01*
X152593890Y-63033089D01*
X152626639Y-62984078D01*
X152678318Y-62955725D01*
X152786496Y-62926739D01*
X152992734Y-62830568D01*
X153179139Y-62700047D01*
X153340047Y-62539139D01*
X153470568Y-62352734D01*
X153497618Y-62294724D01*
X153543375Y-62242549D01*
X153610000Y-62223129D01*
X153676625Y-62242549D01*
X153722382Y-62294725D01*
X153749431Y-62352733D01*
X153879953Y-62539140D01*
X154040859Y-62700046D01*
X154227264Y-62830567D01*
X154227265Y-62830567D01*
X154227266Y-62830568D01*
X154433504Y-62926739D01*
X154511038Y-62947514D01*
X154541682Y-62955725D01*
X154593361Y-62984078D01*
X154621953Y-63026868D01*
X154654369Y-63001226D01*
X154715408Y-62991068D01*
X154880000Y-63005468D01*
X155106692Y-62985635D01*
X155326496Y-62926739D01*
X155532734Y-62830568D01*
X155719139Y-62700047D01*
X155880047Y-62539139D01*
X156010568Y-62352734D01*
X156037618Y-62294724D01*
X156083375Y-62242549D01*
X156150000Y-62223129D01*
X156216625Y-62242549D01*
X156262382Y-62294725D01*
X156289431Y-62352733D01*
X156419953Y-62539140D01*
X156580859Y-62700046D01*
X156767264Y-62830567D01*
X156767265Y-62830567D01*
X156767266Y-62830568D01*
X156973504Y-62926739D01*
X157193308Y-62985635D01*
X157420000Y-63005468D01*
X157646692Y-62985635D01*
X157866496Y-62926739D01*
X158072734Y-62830568D01*
X158259139Y-62700047D01*
X158420047Y-62539139D01*
X158550568Y-62352734D01*
X158577618Y-62294724D01*
X158623375Y-62242549D01*
X158690000Y-62223129D01*
X158756625Y-62242549D01*
X158802382Y-62294725D01*
X158829431Y-62352733D01*
X158959953Y-62539140D01*
X159120859Y-62700046D01*
X159307264Y-62830567D01*
X159307265Y-62830567D01*
X159307266Y-62830568D01*
X159513504Y-62926739D01*
X159733308Y-62985635D01*
X159960000Y-63005468D01*
X160186692Y-62985635D01*
X160406496Y-62926739D01*
X160612734Y-62830568D01*
X160799139Y-62700047D01*
X160960047Y-62539139D01*
X161090568Y-62352734D01*
X161117618Y-62294724D01*
X161163375Y-62242549D01*
X161230000Y-62223129D01*
X161296625Y-62242549D01*
X161342382Y-62294725D01*
X161369431Y-62352733D01*
X161499953Y-62539140D01*
X161660859Y-62700046D01*
X161847264Y-62830567D01*
X161847265Y-62830567D01*
X161847266Y-62830568D01*
X162053504Y-62926739D01*
X162273308Y-62985635D01*
X162500000Y-63005468D01*
X162726692Y-62985635D01*
X162946496Y-62926739D01*
X163152734Y-62830568D01*
X163339139Y-62700047D01*
X163500047Y-62539139D01*
X163630568Y-62352734D01*
X163726739Y-62146496D01*
X163785635Y-61926692D01*
X163805468Y-61700000D01*
X163785635Y-61473308D01*
X163726739Y-61253504D01*
X163630568Y-61047266D01*
X163530831Y-60904826D01*
X163500046Y-60860859D01*
X163339140Y-60699953D01*
X163152735Y-60569432D01*
X162946497Y-60473261D01*
X162726689Y-60414364D01*
X162500000Y-60394531D01*
X162273310Y-60414364D01*
X162053502Y-60473261D01*
X161847264Y-60569432D01*
X161660859Y-60699953D01*
X161499953Y-60860859D01*
X161369433Y-61047263D01*
X161342382Y-61105275D01*
X161296625Y-61157450D01*
X161230000Y-61176869D01*
X161163375Y-61157450D01*
X161117618Y-61105275D01*
X161090568Y-61047266D01*
X161007756Y-60928997D01*
X160960046Y-60860859D01*
X160799140Y-60699953D01*
X160612735Y-60569432D01*
X160406497Y-60473261D01*
X160186689Y-60414364D01*
X159960000Y-60394531D01*
X159733310Y-60414364D01*
X159513502Y-60473261D01*
X159307264Y-60569432D01*
X159120859Y-60699953D01*
X158959953Y-60860859D01*
X158829433Y-61047263D01*
X158802382Y-61105275D01*
X158756625Y-61157450D01*
X158690000Y-61176869D01*
X158623375Y-61157450D01*
X158577618Y-61105275D01*
X158550568Y-61047266D01*
X158467756Y-60928997D01*
X158420046Y-60860859D01*
X158259140Y-60699953D01*
X158072735Y-60569432D01*
X157866497Y-60473261D01*
X157646689Y-60414364D01*
X157420000Y-60394531D01*
X157193310Y-60414364D01*
X156973502Y-60473261D01*
X156767264Y-60569432D01*
X156580859Y-60699953D01*
X156419953Y-60860859D01*
X156289433Y-61047263D01*
X156262382Y-61105275D01*
X156216625Y-61157450D01*
X156150000Y-61176869D01*
X156083375Y-61157450D01*
X156037618Y-61105275D01*
X156010568Y-61047266D01*
X155927756Y-60928997D01*
X155880046Y-60860859D01*
X155719140Y-60699953D01*
X155532735Y-60569432D01*
X155326497Y-60473261D01*
X155106689Y-60414364D01*
X154880000Y-60394531D01*
X154653310Y-60414364D01*
X154433502Y-60473261D01*
X154227264Y-60569432D01*
X154040859Y-60699953D01*
X153879953Y-60860859D01*
X153749433Y-61047263D01*
X153722382Y-61105275D01*
X153676625Y-61157450D01*
X153610000Y-61176869D01*
X153543375Y-61157450D01*
X153497618Y-61105275D01*
X153470568Y-61047266D01*
X153387756Y-60928997D01*
X153340046Y-60860859D01*
X153179140Y-60699953D01*
X152992735Y-60569432D01*
X152786497Y-60473261D01*
X152566689Y-60414364D01*
X152340000Y-60394531D01*
X152113310Y-60414364D01*
X151893502Y-60473261D01*
X151687264Y-60569432D01*
X151500859Y-60699953D01*
X151339953Y-60860859D01*
X151209433Y-61047263D01*
X151182382Y-61105275D01*
X151136625Y-61157450D01*
X151070000Y-61176869D01*
X151003375Y-61157450D01*
X150957618Y-61105275D01*
X150930568Y-61047266D01*
X150847756Y-60928997D01*
X150800046Y-60860859D01*
X150639140Y-60699953D01*
X150452735Y-60569432D01*
X150246497Y-60473261D01*
X150026689Y-60414364D01*
X149800000Y-60394531D01*
X149573310Y-60414364D01*
X149353502Y-60473261D01*
X149147264Y-60569432D01*
X148960859Y-60699953D01*
X148799953Y-60860859D01*
X148669433Y-61047263D01*
X148642382Y-61105275D01*
X148596625Y-61157450D01*
X148530000Y-61176869D01*
X148463375Y-61157450D01*
X148417618Y-61105275D01*
X148390568Y-61047266D01*
X148307756Y-60928997D01*
X148260046Y-60860859D01*
X148099140Y-60699953D01*
X147912735Y-60569432D01*
X147706497Y-60473261D01*
X147486689Y-60414364D01*
X147260000Y-60394531D01*
X147033310Y-60414364D01*
X146813502Y-60473261D01*
X146607264Y-60569432D01*
X146420859Y-60699953D01*
X146259953Y-60860859D01*
X146129433Y-61047263D01*
X146102382Y-61105275D01*
X146056625Y-61157450D01*
X145990000Y-61176869D01*
X145923375Y-61157450D01*
X145877618Y-61105275D01*
X145850568Y-61047266D01*
X145767756Y-60928997D01*
X145720046Y-60860859D01*
X145559140Y-60699953D01*
X145372735Y-60569432D01*
X145166497Y-60473261D01*
X144946689Y-60414364D01*
X144720000Y-60394531D01*
X144493310Y-60414364D01*
X144273502Y-60473261D01*
X144067264Y-60569432D01*
X143880859Y-60699953D01*
X143712281Y-60868532D01*
X143709776Y-60866027D01*
X143678912Y-60892418D01*
X143618056Y-60904826D01*
X143558816Y-60886168D01*
X143516054Y-60841124D01*
X143500500Y-60780994D01*
X143500500Y-54074999D01*
X143869340Y-54074999D01*
X143889936Y-54310407D01*
X143934709Y-54477501D01*
X143951097Y-54538663D01*
X144050965Y-54752830D01*
X144186505Y-54946401D01*
X144186508Y-54946404D01*
X144308430Y-55068326D01*
X144339726Y-55121072D01*
X144341915Y-55182365D01*
X144314462Y-55237209D01*
X144264083Y-55272189D01*
X144132669Y-55321204D01*
X144017454Y-55407454D01*
X143931204Y-55522668D01*
X143880909Y-55657516D01*
X143874500Y-55717130D01*
X143874500Y-57512869D01*
X143880909Y-57572484D01*
X143906056Y-57639906D01*
X143931204Y-57707331D01*
X144017454Y-57822546D01*
X144132669Y-57908796D01*
X144267517Y-57959091D01*
X144327127Y-57965500D01*
X146122872Y-57965499D01*
X146182483Y-57959091D01*
X146317331Y-57908796D01*
X146432546Y-57822546D01*
X146518796Y-57707331D01*
X146567810Y-57575916D01*
X146602789Y-57525537D01*
X146657634Y-57498084D01*
X146718927Y-57500273D01*
X146771673Y-57531569D01*
X146893599Y-57653495D01*
X147087170Y-57789035D01*
X147301337Y-57888903D01*
X147529592Y-57950063D01*
X147765000Y-57970659D01*
X148000408Y-57950063D01*
X148228663Y-57888903D01*
X148442830Y-57789035D01*
X148636401Y-57653495D01*
X148803495Y-57486401D01*
X148933426Y-57300839D01*
X148977743Y-57261975D01*
X149035000Y-57247964D01*
X149092257Y-57261975D01*
X149136573Y-57300839D01*
X149266505Y-57486401D01*
X149433599Y-57653495D01*
X149627170Y-57789035D01*
X149841337Y-57888903D01*
X150069592Y-57950063D01*
X150305000Y-57970659D01*
X150540408Y-57950063D01*
X150768663Y-57888903D01*
X150982830Y-57789035D01*
X151176401Y-57653495D01*
X151343495Y-57486401D01*
X151479035Y-57292830D01*
X151578903Y-57078663D01*
X151640063Y-56850408D01*
X151660659Y-56615000D01*
X151640063Y-56379592D01*
X151578903Y-56151337D01*
X151479035Y-55937171D01*
X151343495Y-55743599D01*
X151176401Y-55576505D01*
X150990839Y-55446573D01*
X150951974Y-55402255D01*
X150937964Y-55344999D01*
X150951975Y-55287742D01*
X150990837Y-55243428D01*
X151176401Y-55113495D01*
X151343495Y-54946401D01*
X151479035Y-54752830D01*
X151578903Y-54538663D01*
X151640063Y-54310408D01*
X151660659Y-54075000D01*
X151640063Y-53839592D01*
X151578903Y-53611337D01*
X151479035Y-53397171D01*
X151343495Y-53203599D01*
X151176401Y-53036505D01*
X150982830Y-52900965D01*
X150768663Y-52801097D01*
X150707501Y-52784709D01*
X150540407Y-52739936D01*
X150305000Y-52719340D01*
X150069592Y-52739936D01*
X149841336Y-52801097D01*
X149627170Y-52900965D01*
X149433598Y-53036505D01*
X149266505Y-53203598D01*
X149136575Y-53389159D01*
X149092257Y-53428025D01*
X149035000Y-53442036D01*
X148977743Y-53428025D01*
X148933425Y-53389159D01*
X148803494Y-53203598D01*
X148636404Y-53036508D01*
X148636401Y-53036505D01*
X148442830Y-52900965D01*
X148228663Y-52801097D01*
X148167501Y-52784709D01*
X148000407Y-52739936D01*
X147765000Y-52719340D01*
X147529592Y-52739936D01*
X147301336Y-52801097D01*
X147087170Y-52900965D01*
X146893598Y-53036505D01*
X146726505Y-53203598D01*
X146596575Y-53389159D01*
X146552257Y-53428025D01*
X146495000Y-53442036D01*
X146437743Y-53428025D01*
X146393425Y-53389159D01*
X146263494Y-53203598D01*
X146096404Y-53036508D01*
X146096401Y-53036505D01*
X145902830Y-52900965D01*
X145688663Y-52801097D01*
X145627501Y-52784709D01*
X145460407Y-52739936D01*
X145225000Y-52719340D01*
X144989592Y-52739936D01*
X144761336Y-52801097D01*
X144547170Y-52900965D01*
X144353598Y-53036505D01*
X144186505Y-53203598D01*
X144050965Y-53397170D01*
X143951097Y-53611336D01*
X143889936Y-53839592D01*
X143869340Y-54074999D01*
X143500500Y-54074999D01*
X143500500Y-51596587D01*
X143514591Y-51539176D01*
X143543908Y-51483050D01*
X143543909Y-51483049D01*
X143599886Y-51287418D01*
X143615336Y-51084524D01*
X143589630Y-50882673D01*
X143523816Y-50690128D01*
X143420590Y-50514773D01*
X143284179Y-50363787D01*
X143284178Y-50363786D01*
X143284176Y-50363784D01*
X143120166Y-50243350D01*
X142935268Y-50158394D01*
X142737054Y-50112397D01*
X142533637Y-50107243D01*
X142333345Y-50143141D01*
X142144380Y-50218622D01*
X141974481Y-50330596D01*
X141802642Y-50502436D01*
X141800394Y-50504628D01*
X141736949Y-50564938D01*
X141703245Y-50613361D01*
X141697573Y-50620882D01*
X141660301Y-50666593D01*
X141646210Y-50693566D01*
X141638082Y-50706983D01*
X141620705Y-50731950D01*
X141597439Y-50786165D01*
X141593399Y-50794671D01*
X141566090Y-50846952D01*
X141557720Y-50876201D01*
X141552459Y-50890978D01*
X141540460Y-50918942D01*
X141528587Y-50976713D01*
X141526342Y-50985860D01*
X141510113Y-51042580D01*
X141507802Y-51072925D01*
X141505622Y-51088466D01*
X141499500Y-51118259D01*
X141499500Y-51177242D01*
X141499142Y-51186656D01*
X141494663Y-51245477D01*
X141498506Y-51275651D01*
X141499500Y-51291317D01*
X141499500Y-60823839D01*
X141483953Y-60883956D01*
X141441210Y-60928997D01*
X141381989Y-60947669D01*
X141321141Y-60935289D01*
X141273925Y-60894962D01*
X141250046Y-60860859D01*
X141089140Y-60699953D01*
X140902735Y-60569432D01*
X140696497Y-60473261D01*
X140476689Y-60414364D01*
X140250000Y-60394531D01*
X140023310Y-60414364D01*
X139803502Y-60473261D01*
X139597264Y-60569432D01*
X139410859Y-60699953D01*
X139249953Y-60860859D01*
X139119433Y-61047263D01*
X139092382Y-61105275D01*
X139046625Y-61157450D01*
X138980000Y-61176869D01*
X138913375Y-61157450D01*
X138867618Y-61105275D01*
X138840568Y-61047266D01*
X138757756Y-60928997D01*
X138710046Y-60860859D01*
X138549140Y-60699953D01*
X138362735Y-60569432D01*
X138156497Y-60473261D01*
X137936689Y-60414364D01*
X137710000Y-60394531D01*
X137483310Y-60414364D01*
X137263502Y-60473261D01*
X137057264Y-60569432D01*
X136870859Y-60699953D01*
X136709953Y-60860859D01*
X136579433Y-61047263D01*
X136552382Y-61105275D01*
X136506625Y-61157450D01*
X136440000Y-61176869D01*
X136373375Y-61157450D01*
X136327618Y-61105275D01*
X136300568Y-61047266D01*
X136217756Y-60928997D01*
X136170046Y-60860859D01*
X136009140Y-60699953D01*
X135822735Y-60569432D01*
X135616497Y-60473261D01*
X135396689Y-60414364D01*
X135170000Y-60394531D01*
X134943310Y-60414364D01*
X134723502Y-60473261D01*
X134517264Y-60569432D01*
X134330859Y-60699953D01*
X134169953Y-60860859D01*
X134039433Y-61047263D01*
X134012382Y-61105275D01*
X133966625Y-61157450D01*
X133900000Y-61176869D01*
X133833375Y-61157450D01*
X133787618Y-61105275D01*
X133760568Y-61047266D01*
X133677756Y-60928997D01*
X133630046Y-60860859D01*
X133469140Y-60699953D01*
X133282735Y-60569432D01*
X133076497Y-60473261D01*
X132856689Y-60414364D01*
X132630000Y-60394531D01*
X132403310Y-60414364D01*
X132183502Y-60473261D01*
X131977264Y-60569432D01*
X131790859Y-60699953D01*
X131629953Y-60860859D01*
X131499433Y-61047263D01*
X131472382Y-61105275D01*
X131426625Y-61157450D01*
X131360000Y-61176869D01*
X131293375Y-61157450D01*
X131247618Y-61105275D01*
X131220568Y-61047266D01*
X131137756Y-60928997D01*
X131090046Y-60860859D01*
X130929140Y-60699953D01*
X130742735Y-60569432D01*
X130536497Y-60473261D01*
X130316689Y-60414364D01*
X130090000Y-60394531D01*
X129863310Y-60414364D01*
X129643502Y-60473261D01*
X129437264Y-60569432D01*
X129250859Y-60699953D01*
X129089953Y-60860859D01*
X128959433Y-61047263D01*
X128932382Y-61105275D01*
X128886625Y-61157450D01*
X128820000Y-61176869D01*
X128753375Y-61157450D01*
X128707618Y-61105275D01*
X128680568Y-61047266D01*
X128597756Y-60928997D01*
X128550046Y-60860859D01*
X128389140Y-60699953D01*
X128202735Y-60569432D01*
X127996497Y-60473261D01*
X127776689Y-60414364D01*
X127550000Y-60394531D01*
X127323310Y-60414364D01*
X127103502Y-60473261D01*
X126897264Y-60569432D01*
X126710859Y-60699953D01*
X126549953Y-60860859D01*
X126419433Y-61047263D01*
X126392382Y-61105275D01*
X126346625Y-61157450D01*
X126280000Y-61176869D01*
X126213375Y-61157450D01*
X126167618Y-61105275D01*
X126140568Y-61047266D01*
X126057756Y-60928997D01*
X126010046Y-60860859D01*
X125849140Y-60699953D01*
X125662735Y-60569432D01*
X125456497Y-60473261D01*
X125236689Y-60414364D01*
X125010000Y-60394531D01*
X124783310Y-60414364D01*
X124563502Y-60473261D01*
X124357264Y-60569432D01*
X124170859Y-60699953D01*
X124009953Y-60860859D01*
X123879433Y-61047263D01*
X123852382Y-61105275D01*
X123806625Y-61157450D01*
X123740000Y-61176869D01*
X123673375Y-61157450D01*
X123627618Y-61105275D01*
X123600568Y-61047266D01*
X123517756Y-60928997D01*
X123470046Y-60860859D01*
X123309140Y-60699953D01*
X123122735Y-60569432D01*
X122916497Y-60473261D01*
X122696689Y-60414364D01*
X122470000Y-60394531D01*
X122243310Y-60414364D01*
X122023502Y-60473261D01*
X121817264Y-60569432D01*
X121630859Y-60699953D01*
X121469953Y-60860859D01*
X121339432Y-61047264D01*
X121243261Y-61253502D01*
X121184364Y-61473310D01*
X121164531Y-61700000D01*
X121184364Y-61926689D01*
X121243261Y-62146497D01*
X121339432Y-62352735D01*
X121469953Y-62539140D01*
X121630859Y-62700046D01*
X121817264Y-62830567D01*
X121817265Y-62830567D01*
X121817266Y-62830568D01*
X122023504Y-62926739D01*
X122243308Y-62985635D01*
X122470000Y-63005468D01*
X122696692Y-62985635D01*
X122916496Y-62926739D01*
X123122734Y-62830568D01*
X123309139Y-62700047D01*
X123470047Y-62539139D01*
X123600568Y-62352734D01*
X123627618Y-62294724D01*
X123673375Y-62242549D01*
X123740000Y-62223129D01*
X123806625Y-62242549D01*
X123852382Y-62294725D01*
X123879431Y-62352733D01*
X124009953Y-62539140D01*
X124170859Y-62700046D01*
X124357264Y-62830567D01*
X124357265Y-62830567D01*
X124357266Y-62830568D01*
X124563504Y-62926739D01*
X124783308Y-62985635D01*
X125010000Y-63005468D01*
X125236692Y-62985635D01*
X125456496Y-62926739D01*
X125662734Y-62830568D01*
X125849139Y-62700047D01*
X126010047Y-62539139D01*
X126140568Y-62352734D01*
X126167618Y-62294724D01*
X126213375Y-62242549D01*
X126280000Y-62223129D01*
X126346625Y-62242549D01*
X126392382Y-62294725D01*
X126419431Y-62352733D01*
X126549953Y-62539140D01*
X126710859Y-62700046D01*
X126897264Y-62830567D01*
X126897265Y-62830567D01*
X126897266Y-62830568D01*
X127103504Y-62926739D01*
X127323308Y-62985635D01*
X127413984Y-62993568D01*
X127549997Y-63005468D01*
X127549998Y-63005467D01*
X127550000Y-63005468D01*
X127550263Y-63005445D01*
X127550919Y-63005548D01*
X127560807Y-63006414D01*
X127560746Y-63007105D01*
X127609522Y-63014830D01*
X127657438Y-63050936D01*
X127682795Y-63105312D01*
X127679655Y-63165227D01*
X127648754Y-63216654D01*
X126316208Y-64549199D01*
X126300110Y-64562096D01*
X126252096Y-64613225D01*
X126249391Y-64616017D01*
X126229874Y-64635534D01*
X126227415Y-64638705D01*
X126219842Y-64647572D01*
X126189935Y-64679420D01*
X126180285Y-64696974D01*
X126169609Y-64713228D01*
X126157326Y-64729063D01*
X126139975Y-64769158D01*
X126134838Y-64779644D01*
X126113802Y-64817907D01*
X126108821Y-64837309D01*
X126102520Y-64855711D01*
X126094561Y-64874102D01*
X126087728Y-64917242D01*
X126085360Y-64928674D01*
X126074500Y-64970978D01*
X126074500Y-64991016D01*
X126072973Y-65010415D01*
X126069840Y-65030194D01*
X126073950Y-65073675D01*
X126074500Y-65085344D01*
X126074500Y-71875944D01*
X126065061Y-71923397D01*
X126038181Y-71963625D01*
X125163624Y-72838181D01*
X125123396Y-72865061D01*
X125075943Y-72874500D01*
X125035524Y-72874500D01*
X124979229Y-72860985D01*
X124935206Y-72823385D01*
X124913051Y-72769898D01*
X124917593Y-72712182D01*
X124947843Y-72662819D01*
X125042316Y-72568345D01*
X125134357Y-72419122D01*
X125189506Y-72252696D01*
X125200000Y-72149979D01*
X125200000Y-71750000D01*
X122250001Y-71750000D01*
X122250001Y-72149979D01*
X122260493Y-72252695D01*
X122315642Y-72419122D01*
X122407683Y-72568345D01*
X122531654Y-72692316D01*
X122680877Y-72784357D01*
X122847303Y-72839506D01*
X122950017Y-72849999D01*
X122962409Y-72849999D01*
X123028854Y-72869299D01*
X123074613Y-72921198D01*
X123085439Y-72989537D01*
X123057961Y-73053037D01*
X123040575Y-73074054D01*
X123032711Y-73082697D01*
X121866208Y-74249199D01*
X121850110Y-74262096D01*
X121802096Y-74313225D01*
X121799391Y-74316017D01*
X121779874Y-74335534D01*
X121777415Y-74338705D01*
X121769842Y-74347572D01*
X121739935Y-74379420D01*
X121730285Y-74396974D01*
X121719609Y-74413228D01*
X121707326Y-74429063D01*
X121689975Y-74469158D01*
X121684838Y-74479644D01*
X121663802Y-74517907D01*
X121658821Y-74537309D01*
X121652520Y-74555711D01*
X121644561Y-74574102D01*
X121637728Y-74617242D01*
X121635360Y-74628674D01*
X121624500Y-74670978D01*
X121624500Y-74691016D01*
X121622973Y-74710415D01*
X121619840Y-74730194D01*
X121623950Y-74773675D01*
X121624500Y-74785344D01*
X121624500Y-78192561D01*
X121622235Y-78213067D01*
X121624439Y-78283178D01*
X121624500Y-78287073D01*
X121624500Y-78314654D01*
X121625003Y-78318639D01*
X121625918Y-78330272D01*
X121627290Y-78373931D01*
X121632879Y-78393165D01*
X121636825Y-78412221D01*
X121639335Y-78432097D01*
X121655414Y-78472709D01*
X121659197Y-78483756D01*
X121671382Y-78525696D01*
X121681580Y-78542940D01*
X121690136Y-78560405D01*
X121697514Y-78579037D01*
X121697515Y-78579038D01*
X121723180Y-78614364D01*
X121729593Y-78624127D01*
X121751826Y-78661721D01*
X121751829Y-78661724D01*
X121751830Y-78661725D01*
X121765995Y-78675890D01*
X121778627Y-78690680D01*
X121790406Y-78706892D01*
X121824058Y-78734731D01*
X121832699Y-78742594D01*
X128673892Y-85583787D01*
X128686793Y-85599889D01*
X128688907Y-85601874D01*
X128688909Y-85601877D01*
X128736256Y-85646339D01*
X128737935Y-85647916D01*
X128740731Y-85650626D01*
X128760225Y-85670120D01*
X128763399Y-85672582D01*
X128772263Y-85680153D01*
X128804113Y-85710062D01*
X128814609Y-85715832D01*
X128821669Y-85719714D01*
X128837926Y-85730392D01*
X128853759Y-85742674D01*
X128869880Y-85749649D01*
X128893851Y-85760023D01*
X128904338Y-85765160D01*
X128942603Y-85786197D01*
X128962011Y-85791180D01*
X128980405Y-85797478D01*
X128998800Y-85805438D01*
X129041949Y-85812271D01*
X129053375Y-85814638D01*
X129068917Y-85818629D01*
X129095675Y-85825500D01*
X129095676Y-85825500D01*
X129115711Y-85825500D01*
X129135108Y-85827026D01*
X129154891Y-85830160D01*
X129198369Y-85826050D01*
X129210039Y-85825500D01*
X156139548Y-85825500D01*
X156187001Y-85834939D01*
X156227229Y-85861819D01*
X157158181Y-86792771D01*
X157185061Y-86832999D01*
X157194500Y-86880452D01*
X157194500Y-90025812D01*
X157180489Y-90083069D01*
X157141623Y-90127387D01*
X156980859Y-90239953D01*
X156819953Y-90400859D01*
X156689433Y-90587263D01*
X156662382Y-90645275D01*
X156616625Y-90697450D01*
X156550000Y-90716869D01*
X156483375Y-90697450D01*
X156437618Y-90645275D01*
X156410687Y-90587522D01*
X156410568Y-90587266D01*
X156324677Y-90464600D01*
X156280046Y-90400859D01*
X156119140Y-90239953D01*
X155932735Y-90109432D01*
X155726497Y-90013261D01*
X155506689Y-89954364D01*
X155280000Y-89934531D01*
X155053310Y-89954364D01*
X154833502Y-90013261D01*
X154627264Y-90109432D01*
X154440859Y-90239953D01*
X154279953Y-90400859D01*
X154149433Y-90587263D01*
X154122382Y-90645275D01*
X154076625Y-90697450D01*
X154010000Y-90716869D01*
X153943375Y-90697450D01*
X153897618Y-90645275D01*
X153870687Y-90587522D01*
X153870568Y-90587266D01*
X153784677Y-90464600D01*
X153740046Y-90400859D01*
X153579140Y-90239953D01*
X153392735Y-90109432D01*
X153186497Y-90013261D01*
X152966689Y-89954364D01*
X152739999Y-89934531D01*
X152695896Y-89938390D01*
X152636638Y-89929005D01*
X152588723Y-89892898D01*
X152563367Y-89838522D01*
X152566507Y-89778608D01*
X152597407Y-89727182D01*
X152837270Y-89487319D01*
X152877499Y-89460439D01*
X152924952Y-89451000D01*
X153046253Y-89451000D01*
X153096688Y-89461720D01*
X153138401Y-89492026D01*
X153144129Y-89498388D01*
X153297270Y-89609651D01*
X153297271Y-89609651D01*
X153297272Y-89609652D01*
X153470197Y-89686644D01*
X153655352Y-89726000D01*
X153655354Y-89726000D01*
X153844646Y-89726000D01*
X153844648Y-89726000D01*
X153968083Y-89699762D01*
X154029803Y-89686644D01*
X154202730Y-89609651D01*
X154355871Y-89498388D01*
X154482533Y-89357716D01*
X154577179Y-89193784D01*
X154635674Y-89013756D01*
X154655460Y-88825500D01*
X154635674Y-88637244D01*
X154577179Y-88457216D01*
X154577179Y-88457215D01*
X154482533Y-88293283D01*
X154355870Y-88152610D01*
X154202730Y-88041348D01*
X154029802Y-87964355D01*
X153844648Y-87925000D01*
X153844646Y-87925000D01*
X153655354Y-87925000D01*
X153655352Y-87925000D01*
X153470197Y-87964355D01*
X153297272Y-88041347D01*
X153238611Y-88083967D01*
X153144129Y-88152612D01*
X153138401Y-88158973D01*
X153096688Y-88189280D01*
X153046253Y-88200000D01*
X152697244Y-88200000D01*
X152676736Y-88197735D01*
X152606613Y-88199939D01*
X152602719Y-88200000D01*
X152575150Y-88200000D01*
X152571171Y-88200502D01*
X152559541Y-88201417D01*
X152515872Y-88202789D01*
X152496628Y-88208380D01*
X152477584Y-88212324D01*
X152457708Y-88214835D01*
X152417100Y-88230913D01*
X152406054Y-88234694D01*
X152364110Y-88246882D01*
X152364107Y-88246883D01*
X152346865Y-88257079D01*
X152329404Y-88265633D01*
X152310767Y-88273012D01*
X152275431Y-88298685D01*
X152265674Y-88305095D01*
X152228080Y-88327329D01*
X152213913Y-88341496D01*
X152199124Y-88354126D01*
X152182913Y-88365904D01*
X152155072Y-88399558D01*
X152147211Y-88408197D01*
X150614821Y-89940586D01*
X150559234Y-89972680D01*
X150495047Y-89972680D01*
X150426690Y-89954364D01*
X150199999Y-89934531D01*
X149973310Y-89954364D01*
X149753502Y-90013261D01*
X149547264Y-90109432D01*
X149360859Y-90239953D01*
X149199953Y-90400859D01*
X149069433Y-90587263D01*
X149042382Y-90645275D01*
X148996625Y-90697450D01*
X148930000Y-90716869D01*
X148863375Y-90697450D01*
X148817618Y-90645275D01*
X148790687Y-90587522D01*
X148790568Y-90587266D01*
X148704677Y-90464600D01*
X148660046Y-90400859D01*
X148499140Y-90239953D01*
X148312735Y-90109432D01*
X148106497Y-90013261D01*
X147886689Y-89954364D01*
X147660000Y-89934531D01*
X147433310Y-89954364D01*
X147213502Y-90013261D01*
X147007264Y-90109432D01*
X146820859Y-90239953D01*
X146659953Y-90400859D01*
X146529433Y-90587263D01*
X146502382Y-90645275D01*
X146456625Y-90697450D01*
X146390000Y-90716869D01*
X146323375Y-90697450D01*
X146277618Y-90645275D01*
X146250687Y-90587522D01*
X146250568Y-90587266D01*
X146164677Y-90464600D01*
X146120046Y-90400859D01*
X145959140Y-90239953D01*
X145772735Y-90109432D01*
X145566497Y-90013261D01*
X145346689Y-89954364D01*
X145120000Y-89934531D01*
X144893310Y-89954364D01*
X144673502Y-90013261D01*
X144467264Y-90109432D01*
X144280859Y-90239953D01*
X144119953Y-90400859D01*
X143989433Y-90587263D01*
X143962382Y-90645275D01*
X143916625Y-90697450D01*
X143850000Y-90716869D01*
X143783375Y-90697450D01*
X143737618Y-90645275D01*
X143710687Y-90587522D01*
X143710568Y-90587266D01*
X143624677Y-90464600D01*
X143580046Y-90400859D01*
X143419140Y-90239953D01*
X143232735Y-90109432D01*
X143026497Y-90013261D01*
X142806689Y-89954364D01*
X142580000Y-89934531D01*
X142353310Y-89954364D01*
X142133502Y-90013261D01*
X141927264Y-90109432D01*
X141740859Y-90239953D01*
X141579953Y-90400859D01*
X141449433Y-90587263D01*
X141422382Y-90645275D01*
X141376625Y-90697450D01*
X141310000Y-90716869D01*
X141243375Y-90697450D01*
X141197618Y-90645275D01*
X141170687Y-90587522D01*
X141170568Y-90587266D01*
X141084677Y-90464600D01*
X141040046Y-90400859D01*
X140879140Y-90239953D01*
X140692735Y-90109432D01*
X140486497Y-90013261D01*
X140266689Y-89954364D01*
X140040000Y-89934531D01*
X139813310Y-89954364D01*
X139593502Y-90013261D01*
X139387264Y-90109432D01*
X139200859Y-90239953D01*
X139039953Y-90400859D01*
X138909433Y-90587263D01*
X138882382Y-90645275D01*
X138836625Y-90697450D01*
X138770000Y-90716869D01*
X138703375Y-90697450D01*
X138657618Y-90645275D01*
X138630687Y-90587522D01*
X138630568Y-90587266D01*
X138544677Y-90464600D01*
X138500046Y-90400859D01*
X138339140Y-90239953D01*
X138152735Y-90109432D01*
X137946497Y-90013261D01*
X137726689Y-89954364D01*
X137500000Y-89934531D01*
X137273310Y-89954364D01*
X137053502Y-90013261D01*
X136847264Y-90109432D01*
X136660859Y-90239953D01*
X136499953Y-90400859D01*
X136369433Y-90587263D01*
X136342382Y-90645275D01*
X136296625Y-90697450D01*
X136230000Y-90716869D01*
X136163375Y-90697450D01*
X136117618Y-90645275D01*
X136090687Y-90587522D01*
X136090568Y-90587266D01*
X136004677Y-90464600D01*
X135960046Y-90400859D01*
X135799140Y-90239953D01*
X135612735Y-90109432D01*
X135406497Y-90013261D01*
X135186689Y-89954364D01*
X134960000Y-89934531D01*
X134733310Y-89954364D01*
X134513502Y-90013261D01*
X134307264Y-90109432D01*
X134120859Y-90239953D01*
X133959953Y-90400859D01*
X133829430Y-90587267D01*
X133802105Y-90645866D01*
X133756348Y-90698041D01*
X133689723Y-90717460D01*
X133623099Y-90698040D01*
X133577342Y-90645865D01*
X133550134Y-90587519D01*
X133419658Y-90401180D01*
X133258819Y-90240341D01*
X133072480Y-90109865D01*
X132866326Y-90013733D01*
X132670000Y-89961128D01*
X132670000Y-92518871D01*
X132866326Y-92466266D01*
X133072480Y-92370134D01*
X133258819Y-92239658D01*
X133419658Y-92078819D01*
X133550135Y-91892479D01*
X133577342Y-91834135D01*
X133623098Y-91781959D01*
X133689723Y-91762539D01*
X133756348Y-91781958D01*
X133802105Y-91834132D01*
X133829432Y-91892733D01*
X133829433Y-91892736D01*
X133959953Y-92079140D01*
X134120859Y-92240046D01*
X134307264Y-92370567D01*
X134307265Y-92370567D01*
X134307266Y-92370568D01*
X134513504Y-92466739D01*
X134733308Y-92525635D01*
X134960000Y-92545468D01*
X135186692Y-92525635D01*
X135406496Y-92466739D01*
X135612734Y-92370568D01*
X135799139Y-92240047D01*
X135960047Y-92079139D01*
X136090568Y-91892734D01*
X136117618Y-91834724D01*
X136163375Y-91782549D01*
X136230000Y-91763129D01*
X136296625Y-91782549D01*
X136342382Y-91834725D01*
X136369431Y-91892733D01*
X136499953Y-92079140D01*
X136660859Y-92240046D01*
X136847264Y-92370567D01*
X136847265Y-92370567D01*
X136847266Y-92370568D01*
X137053504Y-92466739D01*
X137273308Y-92525635D01*
X137500000Y-92545468D01*
X137726692Y-92525635D01*
X137946496Y-92466739D01*
X138152734Y-92370568D01*
X138339139Y-92240047D01*
X138500047Y-92079139D01*
X138630568Y-91892734D01*
X138657618Y-91834724D01*
X138703375Y-91782549D01*
X138770000Y-91763129D01*
X138836625Y-91782549D01*
X138882382Y-91834725D01*
X138909431Y-91892733D01*
X139039953Y-92079140D01*
X139200859Y-92240046D01*
X139387264Y-92370567D01*
X139387265Y-92370567D01*
X139387266Y-92370568D01*
X139593504Y-92466739D01*
X139813308Y-92525635D01*
X140040000Y-92545468D01*
X140266692Y-92525635D01*
X140486496Y-92466739D01*
X140692734Y-92370568D01*
X140879139Y-92240047D01*
X141040047Y-92079139D01*
X141170568Y-91892734D01*
X141197618Y-91834724D01*
X141243375Y-91782549D01*
X141310000Y-91763129D01*
X141376625Y-91782549D01*
X141422382Y-91834725D01*
X141449431Y-91892733D01*
X141579953Y-92079140D01*
X141740859Y-92240046D01*
X141927264Y-92370567D01*
X141927265Y-92370567D01*
X141927266Y-92370568D01*
X142133504Y-92466739D01*
X142353308Y-92525635D01*
X142580000Y-92545468D01*
X142806692Y-92525635D01*
X143026496Y-92466739D01*
X143232734Y-92370568D01*
X143419139Y-92240047D01*
X143580047Y-92079139D01*
X143710568Y-91892734D01*
X143737618Y-91834724D01*
X143783375Y-91782549D01*
X143850000Y-91763129D01*
X143916625Y-91782549D01*
X143962382Y-91834725D01*
X143989431Y-91892733D01*
X144119953Y-92079140D01*
X144280859Y-92240046D01*
X144467264Y-92370567D01*
X144467265Y-92370567D01*
X144467266Y-92370568D01*
X144673504Y-92466739D01*
X144893308Y-92525635D01*
X145120000Y-92545468D01*
X145346692Y-92525635D01*
X145566496Y-92466739D01*
X145772734Y-92370568D01*
X145959139Y-92240047D01*
X146120047Y-92079139D01*
X146250568Y-91892734D01*
X146277618Y-91834724D01*
X146323375Y-91782549D01*
X146390000Y-91763129D01*
X146456625Y-91782549D01*
X146502382Y-91834725D01*
X146529431Y-91892733D01*
X146659953Y-92079140D01*
X146820859Y-92240046D01*
X147007264Y-92370567D01*
X147007265Y-92370567D01*
X147007266Y-92370568D01*
X147213504Y-92466739D01*
X147433308Y-92525635D01*
X147660000Y-92545468D01*
X147886692Y-92525635D01*
X148106496Y-92466739D01*
X148312734Y-92370568D01*
X148499139Y-92240047D01*
X148660047Y-92079139D01*
X148790568Y-91892734D01*
X148817618Y-91834724D01*
X148863375Y-91782549D01*
X148930000Y-91763129D01*
X148996625Y-91782549D01*
X149042382Y-91834725D01*
X149069431Y-91892733D01*
X149199953Y-92079140D01*
X149360859Y-92240046D01*
X149547264Y-92370567D01*
X149547265Y-92370567D01*
X149547266Y-92370568D01*
X149753504Y-92466739D01*
X149973308Y-92525635D01*
X150200000Y-92545468D01*
X150426692Y-92525635D01*
X150646496Y-92466739D01*
X150852734Y-92370568D01*
X151039139Y-92240047D01*
X151200047Y-92079139D01*
X151330568Y-91892734D01*
X151357618Y-91834724D01*
X151403375Y-91782549D01*
X151470000Y-91763129D01*
X151536625Y-91782549D01*
X151582382Y-91834725D01*
X151609431Y-91892733D01*
X151739953Y-92079140D01*
X151900859Y-92240046D01*
X152087264Y-92370567D01*
X152087265Y-92370567D01*
X152087266Y-92370568D01*
X152293504Y-92466739D01*
X152513308Y-92525635D01*
X152740000Y-92545468D01*
X152966692Y-92525635D01*
X153186496Y-92466739D01*
X153392734Y-92370568D01*
X153579139Y-92240047D01*
X153740047Y-92079139D01*
X153870568Y-91892734D01*
X153897618Y-91834724D01*
X153943375Y-91782549D01*
X154010000Y-91763129D01*
X154076625Y-91782549D01*
X154122382Y-91834725D01*
X154149431Y-91892733D01*
X154279953Y-92079140D01*
X154440859Y-92240046D01*
X154501248Y-92282330D01*
X154627266Y-92370568D01*
X154713815Y-92410926D01*
X154759784Y-92447820D01*
X154783525Y-92501774D01*
X154779670Y-92560594D01*
X154749090Y-92610988D01*
X151871897Y-95488181D01*
X151831669Y-95515061D01*
X151784216Y-95524500D01*
X151099991Y-95524500D01*
X150997203Y-95535000D01*
X150830665Y-95590186D01*
X150681342Y-95682288D01*
X150557289Y-95806341D01*
X150461551Y-95961559D01*
X150422637Y-96001042D01*
X150370408Y-96019624D01*
X150315301Y-96013588D01*
X150268331Y-95984143D01*
X150121081Y-95836893D01*
X149927576Y-95701399D01*
X149713492Y-95601569D01*
X149500000Y-95544364D01*
X149500000Y-98505635D01*
X149713492Y-98448430D01*
X149927578Y-98348599D01*
X150121075Y-98213111D01*
X150268330Y-98065856D01*
X150315301Y-98036411D01*
X150370408Y-98030375D01*
X150422638Y-98048957D01*
X150461551Y-98088441D01*
X150557288Y-98243657D01*
X150681342Y-98367711D01*
X150681344Y-98367712D01*
X150830666Y-98459814D01*
X150942017Y-98496712D01*
X150997202Y-98514999D01*
X151007703Y-98516071D01*
X151099991Y-98525500D01*
X152400008Y-98525499D01*
X152502797Y-98514999D01*
X152669334Y-98459814D01*
X152818656Y-98367712D01*
X152942712Y-98243656D01*
X153034814Y-98094334D01*
X153089999Y-97927797D01*
X153100500Y-97825009D01*
X153100499Y-97140781D01*
X153109938Y-97093329D01*
X153136815Y-97053104D01*
X156153101Y-94036819D01*
X156193330Y-94009939D01*
X156240783Y-94000500D01*
X159028137Y-94000500D01*
X159085029Y-94014322D01*
X159129238Y-94052705D01*
X159150909Y-94107094D01*
X159145211Y-94165363D01*
X159113413Y-94214522D01*
X159100333Y-94226912D01*
X158868636Y-94499686D01*
X158667786Y-94795919D01*
X158500146Y-95112118D01*
X158367674Y-95444598D01*
X158271930Y-95789440D01*
X158214027Y-96142635D01*
X158194651Y-96499999D01*
X158214027Y-96857364D01*
X158271930Y-97210559D01*
X158367674Y-97555401D01*
X158500146Y-97887881D01*
X158609602Y-98094334D01*
X158667789Y-98204085D01*
X158772793Y-98358955D01*
X158868636Y-98500313D01*
X159100332Y-98773086D01*
X159360161Y-99019210D01*
X159645081Y-99235800D01*
X159951747Y-99420315D01*
X160276565Y-99570591D01*
X160615726Y-99684868D01*
X160931609Y-99754399D01*
X160985229Y-99780992D01*
X161020146Y-99829603D01*
X161028226Y-99888907D01*
X161007586Y-99945087D01*
X160963036Y-99985055D01*
X160904953Y-99999500D01*
X124095047Y-99999500D01*
X124036964Y-99985055D01*
X123992414Y-99945087D01*
X123971774Y-99888907D01*
X123979854Y-99829603D01*
X124014771Y-99780992D01*
X124068390Y-99754399D01*
X124384274Y-99684868D01*
X124723435Y-99570591D01*
X125048253Y-99420315D01*
X125354919Y-99235800D01*
X125639837Y-99019211D01*
X125899668Y-98773086D01*
X126131365Y-98500311D01*
X126332211Y-98204085D01*
X126424597Y-98029826D01*
X126499853Y-97887881D01*
X126632325Y-97555401D01*
X126710177Y-97275000D01*
X147903592Y-97275000D01*
X147915430Y-97410318D01*
X147976569Y-97638492D01*
X148076400Y-97852578D01*
X148211890Y-98046078D01*
X148378918Y-98213106D01*
X148572423Y-98348600D01*
X148786507Y-98448430D01*
X148999999Y-98505635D01*
X149000000Y-98505636D01*
X149000000Y-97275000D01*
X147903592Y-97275000D01*
X126710177Y-97275000D01*
X126728069Y-97210559D01*
X126728068Y-97210559D01*
X126728071Y-97210552D01*
X126785972Y-96857371D01*
X126790438Y-96774999D01*
X147903592Y-96774999D01*
X147903593Y-96775000D01*
X149000000Y-96775000D01*
X149000000Y-95544364D01*
X148999999Y-95544364D01*
X148786507Y-95601569D01*
X148572421Y-95701400D01*
X148378921Y-95836890D01*
X148211890Y-96003921D01*
X148076400Y-96197421D01*
X147976569Y-96411507D01*
X147915430Y-96639681D01*
X147903592Y-96774999D01*
X126790438Y-96774999D01*
X126805348Y-96500000D01*
X126785972Y-96142629D01*
X126728071Y-95789448D01*
X126703625Y-95701400D01*
X126632325Y-95444598D01*
X126499853Y-95112118D01*
X126332213Y-94795919D01*
X126332211Y-94795915D01*
X126131365Y-94499689D01*
X126131363Y-94499686D01*
X125899667Y-94226913D01*
X125639838Y-93980789D01*
X125354918Y-93764199D01*
X125048250Y-93579683D01*
X124723439Y-93429411D01*
X124723440Y-93429411D01*
X124723435Y-93429409D01*
X124384274Y-93315132D01*
X124384273Y-93315131D01*
X124384271Y-93315131D01*
X124172189Y-93268448D01*
X124034746Y-93238195D01*
X123856846Y-93218847D01*
X123678949Y-93199500D01*
X123678948Y-93199500D01*
X123321052Y-93199500D01*
X123321051Y-93199500D01*
X122965254Y-93238195D01*
X122615728Y-93315131D01*
X122443283Y-93373234D01*
X122276565Y-93429409D01*
X122276562Y-93429410D01*
X122276560Y-93429411D01*
X121951749Y-93579683D01*
X121645081Y-93764199D01*
X121360161Y-93980789D01*
X121100332Y-94226913D01*
X120868636Y-94499686D01*
X120667786Y-94795919D01*
X120500146Y-95112118D01*
X120367674Y-95444598D01*
X120271930Y-95789440D01*
X120269159Y-95806344D01*
X120246866Y-95942325D01*
X120222534Y-95998192D01*
X120174526Y-96035723D01*
X120114436Y-96045853D01*
X120056777Y-96026135D01*
X120015473Y-95981331D01*
X120000500Y-95922262D01*
X120000500Y-92087869D01*
X123499500Y-92087869D01*
X123505909Y-92147483D01*
X123556204Y-92282331D01*
X123642454Y-92397546D01*
X123757669Y-92483796D01*
X123892517Y-92534091D01*
X123952127Y-92540500D01*
X125647872Y-92540499D01*
X125707483Y-92534091D01*
X125842331Y-92483796D01*
X125957546Y-92397546D01*
X126043796Y-92282331D01*
X126094091Y-92147483D01*
X126097862Y-92112405D01*
X126118239Y-92056486D01*
X126162328Y-92016501D01*
X126219969Y-92001667D01*
X126277882Y-92015400D01*
X126322725Y-92054537D01*
X126339951Y-92079138D01*
X126500859Y-92240046D01*
X126687264Y-92370567D01*
X126687265Y-92370567D01*
X126687266Y-92370568D01*
X126893504Y-92466739D01*
X127113308Y-92525635D01*
X127340000Y-92545468D01*
X127566692Y-92525635D01*
X127786496Y-92466739D01*
X127992734Y-92370568D01*
X128179139Y-92240047D01*
X128340047Y-92079139D01*
X128470568Y-91892734D01*
X128497618Y-91834724D01*
X128543375Y-91782549D01*
X128610000Y-91763129D01*
X128676625Y-91782549D01*
X128722382Y-91834725D01*
X128749431Y-91892733D01*
X128879953Y-92079140D01*
X129040859Y-92240046D01*
X129227264Y-92370567D01*
X129227265Y-92370567D01*
X129227266Y-92370568D01*
X129433504Y-92466739D01*
X129653308Y-92525635D01*
X129880000Y-92545468D01*
X130106692Y-92525635D01*
X130326496Y-92466739D01*
X130532734Y-92370568D01*
X130719139Y-92240047D01*
X130880047Y-92079139D01*
X131010568Y-91892734D01*
X131037893Y-91834134D01*
X131083649Y-91781959D01*
X131150274Y-91762539D01*
X131216899Y-91781958D01*
X131262657Y-91834133D01*
X131289866Y-91892482D01*
X131420341Y-92078819D01*
X131581180Y-92239658D01*
X131767519Y-92370134D01*
X131973673Y-92466266D01*
X132169999Y-92518871D01*
X132170000Y-92518872D01*
X132170000Y-89961128D01*
X132169999Y-89961128D01*
X131973673Y-90013733D01*
X131767519Y-90109865D01*
X131581180Y-90240341D01*
X131420341Y-90401180D01*
X131289863Y-90587522D01*
X131262656Y-90645866D01*
X131216899Y-90698041D01*
X131150274Y-90717460D01*
X131083650Y-90698040D01*
X131037893Y-90645865D01*
X131010567Y-90587264D01*
X130880046Y-90400859D01*
X130719140Y-90239953D01*
X130532735Y-90109432D01*
X130326497Y-90013261D01*
X130106689Y-89954364D01*
X129880000Y-89934531D01*
X129653310Y-89954364D01*
X129433502Y-90013261D01*
X129227264Y-90109432D01*
X129040859Y-90239953D01*
X128879953Y-90400859D01*
X128749433Y-90587263D01*
X128722382Y-90645275D01*
X128676625Y-90697450D01*
X128610000Y-90716869D01*
X128543375Y-90697450D01*
X128497618Y-90645275D01*
X128470687Y-90587522D01*
X128470568Y-90587266D01*
X128384677Y-90464600D01*
X128340046Y-90400859D01*
X128179140Y-90239953D01*
X127992735Y-90109432D01*
X127786497Y-90013261D01*
X127566689Y-89954364D01*
X127340000Y-89934531D01*
X127113310Y-89954364D01*
X126893502Y-90013261D01*
X126687264Y-90109432D01*
X126500859Y-90239953D01*
X126339951Y-90400861D01*
X126322725Y-90425463D01*
X126277882Y-90464600D01*
X126219969Y-90478333D01*
X126162328Y-90463499D01*
X126118239Y-90423514D01*
X126097861Y-90367592D01*
X126094091Y-90332517D01*
X126043796Y-90197669D01*
X125957546Y-90082454D01*
X125842331Y-89996204D01*
X125707483Y-89945909D01*
X125647873Y-89939500D01*
X125647869Y-89939500D01*
X123952130Y-89939500D01*
X123892515Y-89945909D01*
X123757669Y-89996204D01*
X123642454Y-90082454D01*
X123556204Y-90197668D01*
X123505909Y-90332516D01*
X123499500Y-90392130D01*
X123499500Y-92087869D01*
X120000500Y-92087869D01*
X120000500Y-69000000D01*
X122244340Y-69000000D01*
X122264936Y-69235407D01*
X122326097Y-69463663D01*
X122425965Y-69677829D01*
X122561505Y-69871401D01*
X122709068Y-70018964D01*
X122738513Y-70065934D01*
X122744549Y-70121041D01*
X122725967Y-70173270D01*
X122686484Y-70212184D01*
X122531653Y-70307684D01*
X122407683Y-70431654D01*
X122315642Y-70580877D01*
X122260493Y-70747303D01*
X122250000Y-70850021D01*
X122250000Y-71250000D01*
X125199999Y-71250000D01*
X125199999Y-70850021D01*
X125189506Y-70747304D01*
X125134357Y-70580877D01*
X125042316Y-70431654D01*
X124918346Y-70307684D01*
X124763515Y-70212184D01*
X124724032Y-70173270D01*
X124705450Y-70121041D01*
X124711486Y-70065934D01*
X124740927Y-70018968D01*
X124888495Y-69871401D01*
X125024035Y-69677830D01*
X125123903Y-69463663D01*
X125185063Y-69235408D01*
X125205659Y-69000000D01*
X125185063Y-68764592D01*
X125123903Y-68536337D01*
X125024035Y-68322171D01*
X124888495Y-68128599D01*
X124721401Y-67961505D01*
X124564401Y-67851573D01*
X124525537Y-67807257D01*
X124511526Y-67750000D01*
X124525537Y-67692743D01*
X124564401Y-67648426D01*
X124721401Y-67538495D01*
X124888495Y-67371401D01*
X125024035Y-67177830D01*
X125123903Y-66963663D01*
X125185063Y-66735408D01*
X125205659Y-66500000D01*
X125185063Y-66264592D01*
X125123903Y-66036337D01*
X125024035Y-65822171D01*
X124888495Y-65628599D01*
X124721401Y-65461505D01*
X124527829Y-65325965D01*
X124313663Y-65226097D01*
X124313662Y-65226096D01*
X124085407Y-65164936D01*
X123908968Y-65149500D01*
X123908966Y-65149500D01*
X123541034Y-65149500D01*
X123541032Y-65149500D01*
X123364592Y-65164936D01*
X123136336Y-65226097D01*
X122922170Y-65325965D01*
X122728598Y-65461505D01*
X122561508Y-65628595D01*
X122561505Y-65628598D01*
X122561505Y-65628599D01*
X122464375Y-65767316D01*
X122425964Y-65822172D01*
X122326097Y-66036337D01*
X122264936Y-66264592D01*
X122244340Y-66499999D01*
X122264936Y-66735407D01*
X122326097Y-66963663D01*
X122425965Y-67177829D01*
X122561505Y-67371401D01*
X122728598Y-67538494D01*
X122885596Y-67648425D01*
X122924462Y-67692743D01*
X122938473Y-67750000D01*
X122924462Y-67807257D01*
X122885596Y-67851575D01*
X122728598Y-67961505D01*
X122561508Y-68128595D01*
X122561505Y-68128598D01*
X122561505Y-68128599D01*
X122484868Y-68238049D01*
X122425964Y-68322172D01*
X122326097Y-68536337D01*
X122264936Y-68764592D01*
X122244340Y-69000000D01*
X120000500Y-69000000D01*
X120000500Y-54075000D01*
X121619340Y-54075000D01*
X121639936Y-54310407D01*
X121684709Y-54477501D01*
X121701097Y-54538663D01*
X121800965Y-54752830D01*
X121936505Y-54946401D01*
X121936508Y-54946404D01*
X122058430Y-55068326D01*
X122089726Y-55121072D01*
X122091915Y-55182365D01*
X122064462Y-55237209D01*
X122014083Y-55272189D01*
X121882669Y-55321204D01*
X121767454Y-55407454D01*
X121681204Y-55522668D01*
X121630909Y-55657516D01*
X121624500Y-55717130D01*
X121624500Y-57512869D01*
X121630909Y-57572484D01*
X121656056Y-57639906D01*
X121681204Y-57707331D01*
X121767454Y-57822546D01*
X121882669Y-57908796D01*
X122017517Y-57959091D01*
X122077127Y-57965500D01*
X123872872Y-57965499D01*
X123932483Y-57959091D01*
X124067331Y-57908796D01*
X124182546Y-57822546D01*
X124268796Y-57707331D01*
X124317810Y-57575916D01*
X124352789Y-57525537D01*
X124407634Y-57498084D01*
X124468927Y-57500273D01*
X124521673Y-57531569D01*
X124643599Y-57653495D01*
X124837170Y-57789035D01*
X125051337Y-57888903D01*
X125279592Y-57950063D01*
X125515000Y-57970659D01*
X125750408Y-57950063D01*
X125978663Y-57888903D01*
X126192830Y-57789035D01*
X126386401Y-57653495D01*
X126553495Y-57486401D01*
X126683426Y-57300839D01*
X126727743Y-57261975D01*
X126785000Y-57247964D01*
X126842257Y-57261975D01*
X126886573Y-57300839D01*
X127016505Y-57486401D01*
X127183599Y-57653495D01*
X127377170Y-57789035D01*
X127591337Y-57888903D01*
X127819592Y-57950063D01*
X128055000Y-57970659D01*
X128290408Y-57950063D01*
X128518663Y-57888903D01*
X128732830Y-57789035D01*
X128926401Y-57653495D01*
X129093495Y-57486401D01*
X129229035Y-57292830D01*
X129328903Y-57078663D01*
X129390063Y-56850408D01*
X129410659Y-56615000D01*
X129390063Y-56379592D01*
X129328903Y-56151337D01*
X129229035Y-55937171D01*
X129093495Y-55743599D01*
X128926401Y-55576505D01*
X128740839Y-55446573D01*
X128701974Y-55402255D01*
X128687964Y-55344999D01*
X128701975Y-55287742D01*
X128740837Y-55243428D01*
X128926401Y-55113495D01*
X129093495Y-54946401D01*
X129229035Y-54752830D01*
X129328903Y-54538663D01*
X129390063Y-54310408D01*
X129410659Y-54075000D01*
X129390063Y-53839592D01*
X129328903Y-53611337D01*
X129229035Y-53397171D01*
X129093495Y-53203599D01*
X128926401Y-53036505D01*
X128732830Y-52900965D01*
X128518663Y-52801097D01*
X128457501Y-52784709D01*
X128290407Y-52739936D01*
X128055000Y-52719340D01*
X127819592Y-52739936D01*
X127591336Y-52801097D01*
X127377170Y-52900965D01*
X127183598Y-53036505D01*
X127016505Y-53203598D01*
X126886575Y-53389159D01*
X126842257Y-53428025D01*
X126785000Y-53442036D01*
X126727743Y-53428025D01*
X126683425Y-53389159D01*
X126553494Y-53203598D01*
X126386404Y-53036508D01*
X126386401Y-53036505D01*
X126192830Y-52900965D01*
X125978663Y-52801097D01*
X125917501Y-52784709D01*
X125750407Y-52739936D01*
X125515000Y-52719340D01*
X125279592Y-52739936D01*
X125051336Y-52801097D01*
X124837170Y-52900965D01*
X124643598Y-53036505D01*
X124476505Y-53203598D01*
X124346575Y-53389159D01*
X124302257Y-53428025D01*
X124245000Y-53442036D01*
X124187743Y-53428025D01*
X124143425Y-53389159D01*
X124013494Y-53203598D01*
X123846404Y-53036508D01*
X123846401Y-53036505D01*
X123652830Y-52900965D01*
X123438663Y-52801097D01*
X123377501Y-52784709D01*
X123210407Y-52739936D01*
X122975000Y-52719340D01*
X122739592Y-52739936D01*
X122511336Y-52801097D01*
X122297170Y-52900965D01*
X122103598Y-53036505D01*
X121936505Y-53203598D01*
X121800965Y-53397170D01*
X121701097Y-53611336D01*
X121639936Y-53839592D01*
X121619340Y-54075000D01*
X120000500Y-54075000D01*
X120000500Y-48999999D01*
X121164531Y-48999999D01*
X121184364Y-49226689D01*
X121243261Y-49446497D01*
X121339432Y-49652735D01*
X121469953Y-49839140D01*
X121630859Y-50000046D01*
X121817264Y-50130567D01*
X121817265Y-50130567D01*
X121817266Y-50130568D01*
X122023504Y-50226739D01*
X122243308Y-50285635D01*
X122470000Y-50305468D01*
X122696692Y-50285635D01*
X122916496Y-50226739D01*
X123122734Y-50130568D01*
X123309139Y-50000047D01*
X123470047Y-49839139D01*
X123600568Y-49652734D01*
X123627893Y-49594134D01*
X123673649Y-49541959D01*
X123740274Y-49522539D01*
X123806899Y-49541958D01*
X123852657Y-49594133D01*
X123879866Y-49652482D01*
X124010341Y-49838819D01*
X124171180Y-49999658D01*
X124357519Y-50130134D01*
X124563673Y-50226266D01*
X124759999Y-50278871D01*
X124760000Y-50278872D01*
X124760000Y-50278871D01*
X125260000Y-50278871D01*
X125456326Y-50226266D01*
X125662480Y-50130134D01*
X125848819Y-49999658D01*
X126009658Y-49838819D01*
X126140135Y-49652479D01*
X126167342Y-49594135D01*
X126213098Y-49541959D01*
X126279723Y-49522539D01*
X126346348Y-49541958D01*
X126392105Y-49594132D01*
X126419432Y-49652733D01*
X126419433Y-49652736D01*
X126549953Y-49839140D01*
X126710859Y-50000046D01*
X126897264Y-50130567D01*
X126897265Y-50130567D01*
X126897266Y-50130568D01*
X127103504Y-50226739D01*
X127323308Y-50285635D01*
X127550000Y-50305468D01*
X127776692Y-50285635D01*
X127996496Y-50226739D01*
X128202734Y-50130568D01*
X128389139Y-50000047D01*
X128550047Y-49839139D01*
X128680568Y-49652734D01*
X128707618Y-49594724D01*
X128753375Y-49542549D01*
X128820000Y-49523129D01*
X128886625Y-49542549D01*
X128932382Y-49594725D01*
X128959431Y-49652733D01*
X129089953Y-49839140D01*
X129250859Y-50000046D01*
X129437264Y-50130567D01*
X129437265Y-50130567D01*
X129437266Y-50130568D01*
X129643504Y-50226739D01*
X129863308Y-50285635D01*
X130090000Y-50305468D01*
X130316692Y-50285635D01*
X130536496Y-50226739D01*
X130742734Y-50130568D01*
X130929139Y-50000047D01*
X131090047Y-49839139D01*
X131220568Y-49652734D01*
X131247618Y-49594724D01*
X131293375Y-49542549D01*
X131360000Y-49523129D01*
X131426625Y-49542549D01*
X131472382Y-49594725D01*
X131499431Y-49652733D01*
X131629953Y-49839140D01*
X131790859Y-50000046D01*
X131977264Y-50130567D01*
X131977265Y-50130567D01*
X131977266Y-50130568D01*
X132183504Y-50226739D01*
X132403308Y-50285635D01*
X132630000Y-50305468D01*
X132856692Y-50285635D01*
X133076496Y-50226739D01*
X133282734Y-50130568D01*
X133469139Y-50000047D01*
X133630047Y-49839139D01*
X133760568Y-49652734D01*
X133787618Y-49594724D01*
X133833375Y-49542549D01*
X133900000Y-49523129D01*
X133966625Y-49542549D01*
X134012382Y-49594725D01*
X134039431Y-49652733D01*
X134169953Y-49839140D01*
X134330859Y-50000046D01*
X134517264Y-50130567D01*
X134517265Y-50130567D01*
X134517266Y-50130568D01*
X134723504Y-50226739D01*
X134943308Y-50285635D01*
X135170000Y-50305468D01*
X135396692Y-50285635D01*
X135616496Y-50226739D01*
X135822734Y-50130568D01*
X136009139Y-50000047D01*
X136170047Y-49839139D01*
X136300568Y-49652734D01*
X136327618Y-49594724D01*
X136373375Y-49542549D01*
X136440000Y-49523129D01*
X136506625Y-49542549D01*
X136552382Y-49594725D01*
X136579431Y-49652733D01*
X136709953Y-49839140D01*
X136870859Y-50000046D01*
X137057264Y-50130567D01*
X137057265Y-50130567D01*
X137057266Y-50130568D01*
X137263504Y-50226739D01*
X137483308Y-50285635D01*
X137710000Y-50305468D01*
X137936692Y-50285635D01*
X138156496Y-50226739D01*
X138362734Y-50130568D01*
X138549139Y-50000047D01*
X138710047Y-49839139D01*
X138727710Y-49813913D01*
X138772550Y-49774776D01*
X138830463Y-49761042D01*
X138888105Y-49775875D01*
X138932195Y-49815858D01*
X138952574Y-49871780D01*
X138956400Y-49907371D01*
X139006647Y-50042089D01*
X139092811Y-50157188D01*
X139207910Y-50243352D01*
X139342624Y-50293597D01*
X139402176Y-50300000D01*
X140000000Y-50300000D01*
X140000000Y-49250000D01*
X140500000Y-49250000D01*
X140500000Y-50300000D01*
X141097824Y-50300000D01*
X141157375Y-50293597D01*
X141292089Y-50243352D01*
X141407188Y-50157188D01*
X141493352Y-50042089D01*
X141543597Y-49907375D01*
X141550000Y-49847824D01*
X141550000Y-49250000D01*
X140500000Y-49250000D01*
X140000000Y-49250000D01*
X140000000Y-48999999D01*
X143414531Y-48999999D01*
X143434364Y-49226689D01*
X143493261Y-49446497D01*
X143589432Y-49652735D01*
X143719953Y-49839140D01*
X143880859Y-50000046D01*
X144067264Y-50130567D01*
X144067265Y-50130567D01*
X144067266Y-50130568D01*
X144273504Y-50226739D01*
X144493308Y-50285635D01*
X144720000Y-50305468D01*
X144946692Y-50285635D01*
X145166496Y-50226739D01*
X145372734Y-50130568D01*
X145559139Y-50000047D01*
X145720047Y-49839139D01*
X145850568Y-49652734D01*
X145877893Y-49594134D01*
X145923649Y-49541959D01*
X145990274Y-49522539D01*
X146056899Y-49541958D01*
X146102657Y-49594133D01*
X146129866Y-49652482D01*
X146260341Y-49838819D01*
X146421180Y-49999658D01*
X146607519Y-50130134D01*
X146813673Y-50226266D01*
X147009999Y-50278871D01*
X147010000Y-50278872D01*
X147010000Y-50278871D01*
X147510000Y-50278871D01*
X147706326Y-50226266D01*
X147912480Y-50130134D01*
X148098819Y-49999658D01*
X148259658Y-49838819D01*
X148390135Y-49652479D01*
X148417342Y-49594135D01*
X148463098Y-49541959D01*
X148529723Y-49522539D01*
X148596348Y-49541958D01*
X148642105Y-49594132D01*
X148669432Y-49652733D01*
X148669433Y-49652736D01*
X148799953Y-49839140D01*
X148960859Y-50000046D01*
X149147264Y-50130567D01*
X149147265Y-50130567D01*
X149147266Y-50130568D01*
X149353504Y-50226739D01*
X149573308Y-50285635D01*
X149800000Y-50305468D01*
X150026692Y-50285635D01*
X150246496Y-50226739D01*
X150452734Y-50130568D01*
X150639139Y-50000047D01*
X150800047Y-49839139D01*
X150930568Y-49652734D01*
X150957618Y-49594724D01*
X151003375Y-49542549D01*
X151070000Y-49523129D01*
X151136625Y-49542549D01*
X151182382Y-49594725D01*
X151209431Y-49652733D01*
X151339953Y-49839140D01*
X151500859Y-50000046D01*
X151687264Y-50130567D01*
X151687265Y-50130567D01*
X151687266Y-50130568D01*
X151893504Y-50226739D01*
X152113308Y-50285635D01*
X152340000Y-50305468D01*
X152566692Y-50285635D01*
X152786496Y-50226739D01*
X152992734Y-50130568D01*
X153179139Y-50000047D01*
X153340047Y-49839139D01*
X153470568Y-49652734D01*
X153497618Y-49594724D01*
X153543375Y-49542549D01*
X153610000Y-49523129D01*
X153676625Y-49542549D01*
X153722382Y-49594725D01*
X153749431Y-49652733D01*
X153879953Y-49839140D01*
X154040859Y-50000046D01*
X154227264Y-50130567D01*
X154227265Y-50130567D01*
X154227266Y-50130568D01*
X154433504Y-50226739D01*
X154653308Y-50285635D01*
X154880000Y-50305468D01*
X155106692Y-50285635D01*
X155326496Y-50226739D01*
X155532734Y-50130568D01*
X155719139Y-50000047D01*
X155880047Y-49839139D01*
X156010568Y-49652734D01*
X156037618Y-49594724D01*
X156083375Y-49542549D01*
X156150000Y-49523129D01*
X156216625Y-49542549D01*
X156262382Y-49594725D01*
X156289431Y-49652733D01*
X156419953Y-49839140D01*
X156580859Y-50000046D01*
X156767264Y-50130567D01*
X156767265Y-50130567D01*
X156767266Y-50130568D01*
X156973504Y-50226739D01*
X157193308Y-50285635D01*
X157420000Y-50305468D01*
X157646692Y-50285635D01*
X157866496Y-50226739D01*
X158072734Y-50130568D01*
X158259139Y-50000047D01*
X158420047Y-49839139D01*
X158550568Y-49652734D01*
X158577618Y-49594724D01*
X158623375Y-49542549D01*
X158690000Y-49523129D01*
X158756625Y-49542549D01*
X158802382Y-49594725D01*
X158829431Y-49652733D01*
X158959953Y-49839140D01*
X159120859Y-50000046D01*
X159307264Y-50130567D01*
X159307265Y-50130567D01*
X159307266Y-50130568D01*
X159513504Y-50226739D01*
X159733308Y-50285635D01*
X159960000Y-50305468D01*
X160186692Y-50285635D01*
X160406496Y-50226739D01*
X160612734Y-50130568D01*
X160799139Y-50000047D01*
X160960047Y-49839139D01*
X160977710Y-49813913D01*
X161022550Y-49774776D01*
X161080463Y-49761042D01*
X161138105Y-49775875D01*
X161182195Y-49815858D01*
X161202574Y-49871780D01*
X161206400Y-49907371D01*
X161256647Y-50042089D01*
X161342811Y-50157188D01*
X161457910Y-50243352D01*
X161592624Y-50293597D01*
X161652176Y-50300000D01*
X162250000Y-50300000D01*
X162250000Y-49250000D01*
X162750000Y-49250000D01*
X162750000Y-50300000D01*
X163347824Y-50300000D01*
X163407375Y-50293597D01*
X163542089Y-50243352D01*
X163657188Y-50157188D01*
X163743352Y-50042089D01*
X163793597Y-49907375D01*
X163800000Y-49847824D01*
X163800000Y-49250000D01*
X162750000Y-49250000D01*
X162250000Y-49250000D01*
X162250000Y-47700000D01*
X162750000Y-47700000D01*
X162750000Y-48750000D01*
X163800000Y-48750000D01*
X163800000Y-48152176D01*
X163793597Y-48092624D01*
X163743352Y-47957910D01*
X163657188Y-47842811D01*
X163542089Y-47756647D01*
X163407375Y-47706402D01*
X163347824Y-47700000D01*
X162750000Y-47700000D01*
X162250000Y-47700000D01*
X161652176Y-47700000D01*
X161592624Y-47706402D01*
X161457910Y-47756647D01*
X161342811Y-47842811D01*
X161256647Y-47957910D01*
X161206400Y-48092628D01*
X161202574Y-48128219D01*
X161182195Y-48184141D01*
X161138106Y-48224124D01*
X161080464Y-48238957D01*
X161022551Y-48225223D01*
X160977710Y-48186087D01*
X160960047Y-48160861D01*
X160960045Y-48160859D01*
X160960043Y-48160856D01*
X160799140Y-47999953D01*
X160612735Y-47869432D01*
X160406497Y-47773261D01*
X160186689Y-47714364D01*
X159960000Y-47694531D01*
X159733310Y-47714364D01*
X159513502Y-47773261D01*
X159307264Y-47869432D01*
X159120859Y-47999953D01*
X158959953Y-48160859D01*
X158829433Y-48347263D01*
X158802382Y-48405275D01*
X158756625Y-48457450D01*
X158690000Y-48476869D01*
X158623375Y-48457450D01*
X158577618Y-48405275D01*
X158550687Y-48347522D01*
X158550568Y-48347266D01*
X158474730Y-48238957D01*
X158420046Y-48160859D01*
X158259140Y-47999953D01*
X158072735Y-47869432D01*
X157866497Y-47773261D01*
X157646689Y-47714364D01*
X157420000Y-47694531D01*
X157193310Y-47714364D01*
X156973502Y-47773261D01*
X156767264Y-47869432D01*
X156580859Y-47999953D01*
X156419953Y-48160859D01*
X156289433Y-48347263D01*
X156262382Y-48405275D01*
X156216625Y-48457450D01*
X156150000Y-48476869D01*
X156083375Y-48457450D01*
X156037618Y-48405275D01*
X156010687Y-48347522D01*
X156010568Y-48347266D01*
X155934730Y-48238957D01*
X155880046Y-48160859D01*
X155719140Y-47999953D01*
X155532735Y-47869432D01*
X155326497Y-47773261D01*
X155106689Y-47714364D01*
X154880000Y-47694531D01*
X154653310Y-47714364D01*
X154433502Y-47773261D01*
X154227264Y-47869432D01*
X154040859Y-47999953D01*
X153879953Y-48160859D01*
X153749433Y-48347263D01*
X153722382Y-48405275D01*
X153676625Y-48457450D01*
X153610000Y-48476869D01*
X153543375Y-48457450D01*
X153497618Y-48405275D01*
X153470687Y-48347522D01*
X153470568Y-48347266D01*
X153394730Y-48238957D01*
X153340046Y-48160859D01*
X153179140Y-47999953D01*
X152992735Y-47869432D01*
X152786497Y-47773261D01*
X152566689Y-47714364D01*
X152340000Y-47694531D01*
X152113310Y-47714364D01*
X151893502Y-47773261D01*
X151687264Y-47869432D01*
X151500859Y-47999953D01*
X151339953Y-48160859D01*
X151209433Y-48347263D01*
X151182382Y-48405275D01*
X151136625Y-48457450D01*
X151070000Y-48476869D01*
X151003375Y-48457450D01*
X150957618Y-48405275D01*
X150930687Y-48347522D01*
X150930568Y-48347266D01*
X150854730Y-48238957D01*
X150800046Y-48160859D01*
X150639140Y-47999953D01*
X150452735Y-47869432D01*
X150246497Y-47773261D01*
X150026689Y-47714364D01*
X149800000Y-47694531D01*
X149573310Y-47714364D01*
X149353502Y-47773261D01*
X149147264Y-47869432D01*
X148960859Y-47999953D01*
X148799953Y-48160859D01*
X148669430Y-48347267D01*
X148642105Y-48405866D01*
X148596348Y-48458041D01*
X148529723Y-48477460D01*
X148463099Y-48458040D01*
X148417342Y-48405865D01*
X148390134Y-48347519D01*
X148259658Y-48161180D01*
X148098819Y-48000341D01*
X147912480Y-47869865D01*
X147706326Y-47773733D01*
X147510000Y-47721128D01*
X147510000Y-50278871D01*
X147010000Y-50278871D01*
X147010000Y-47721128D01*
X147009999Y-47721128D01*
X146813673Y-47773733D01*
X146607519Y-47869865D01*
X146421180Y-48000341D01*
X146260341Y-48161180D01*
X146129863Y-48347522D01*
X146102656Y-48405866D01*
X146056899Y-48458041D01*
X145990274Y-48477460D01*
X145923650Y-48458040D01*
X145877893Y-48405865D01*
X145850567Y-48347264D01*
X145720046Y-48160859D01*
X145559140Y-47999953D01*
X145372735Y-47869432D01*
X145166497Y-47773261D01*
X144946689Y-47714364D01*
X144720000Y-47694531D01*
X144493310Y-47714364D01*
X144273502Y-47773261D01*
X144067264Y-47869432D01*
X143880859Y-47999953D01*
X143719953Y-48160859D01*
X143589432Y-48347264D01*
X143493261Y-48553502D01*
X143434364Y-48773310D01*
X143414531Y-48999999D01*
X140000000Y-48999999D01*
X140000000Y-47700000D01*
X140500000Y-47700000D01*
X140500000Y-48750000D01*
X141550000Y-48750000D01*
X141550000Y-48152176D01*
X141543597Y-48092624D01*
X141493352Y-47957910D01*
X141407188Y-47842811D01*
X141292089Y-47756647D01*
X141157375Y-47706402D01*
X141097824Y-47700000D01*
X140500000Y-47700000D01*
X140000000Y-47700000D01*
X139402176Y-47700000D01*
X139342624Y-47706402D01*
X139207910Y-47756647D01*
X139092811Y-47842811D01*
X139006647Y-47957910D01*
X138956400Y-48092628D01*
X138952574Y-48128219D01*
X138932195Y-48184141D01*
X138888106Y-48224124D01*
X138830464Y-48238957D01*
X138772551Y-48225223D01*
X138727710Y-48186087D01*
X138710047Y-48160861D01*
X138710045Y-48160859D01*
X138710043Y-48160856D01*
X138549140Y-47999953D01*
X138362735Y-47869432D01*
X138156497Y-47773261D01*
X137936689Y-47714364D01*
X137710000Y-47694531D01*
X137483310Y-47714364D01*
X137263502Y-47773261D01*
X137057264Y-47869432D01*
X136870859Y-47999953D01*
X136709953Y-48160859D01*
X136579433Y-48347263D01*
X136552382Y-48405275D01*
X136506625Y-48457450D01*
X136440000Y-48476869D01*
X136373375Y-48457450D01*
X136327618Y-48405275D01*
X136300687Y-48347522D01*
X136300568Y-48347266D01*
X136224730Y-48238957D01*
X136170046Y-48160859D01*
X136009140Y-47999953D01*
X135822735Y-47869432D01*
X135616497Y-47773261D01*
X135396689Y-47714364D01*
X135170000Y-47694531D01*
X134943310Y-47714364D01*
X134723502Y-47773261D01*
X134517264Y-47869432D01*
X134330859Y-47999953D01*
X134169953Y-48160859D01*
X134039433Y-48347263D01*
X134012382Y-48405275D01*
X133966625Y-48457450D01*
X133900000Y-48476869D01*
X133833375Y-48457450D01*
X133787618Y-48405275D01*
X133760687Y-48347522D01*
X133760568Y-48347266D01*
X133684730Y-48238957D01*
X133630046Y-48160859D01*
X133469140Y-47999953D01*
X133282735Y-47869432D01*
X133076497Y-47773261D01*
X132856689Y-47714364D01*
X132630000Y-47694531D01*
X132403310Y-47714364D01*
X132183502Y-47773261D01*
X131977264Y-47869432D01*
X131790859Y-47999953D01*
X131629953Y-48160859D01*
X131499433Y-48347263D01*
X131472382Y-48405275D01*
X131426625Y-48457450D01*
X131360000Y-48476869D01*
X131293375Y-48457450D01*
X131247618Y-48405275D01*
X131220687Y-48347522D01*
X131220568Y-48347266D01*
X131144730Y-48238957D01*
X131090046Y-48160859D01*
X130929140Y-47999953D01*
X130742735Y-47869432D01*
X130536497Y-47773261D01*
X130316689Y-47714364D01*
X130090000Y-47694531D01*
X129863310Y-47714364D01*
X129643502Y-47773261D01*
X129437264Y-47869432D01*
X129250859Y-47999953D01*
X129089953Y-48160859D01*
X128959433Y-48347263D01*
X128932382Y-48405275D01*
X128886625Y-48457450D01*
X128820000Y-48476869D01*
X128753375Y-48457450D01*
X128707618Y-48405275D01*
X128680687Y-48347522D01*
X128680568Y-48347266D01*
X128604730Y-48238957D01*
X128550046Y-48160859D01*
X128389140Y-47999953D01*
X128202735Y-47869432D01*
X127996497Y-47773261D01*
X127776689Y-47714364D01*
X127550000Y-47694531D01*
X127323310Y-47714364D01*
X127103502Y-47773261D01*
X126897264Y-47869432D01*
X126710859Y-47999953D01*
X126549953Y-48160859D01*
X126419430Y-48347267D01*
X126392105Y-48405866D01*
X126346348Y-48458041D01*
X126279723Y-48477460D01*
X126213099Y-48458040D01*
X126167342Y-48405865D01*
X126140134Y-48347519D01*
X126009658Y-48161180D01*
X125848819Y-48000341D01*
X125662480Y-47869865D01*
X125456326Y-47773733D01*
X125260000Y-47721128D01*
X125260000Y-50278871D01*
X124760000Y-50278871D01*
X124760000Y-47721128D01*
X124759999Y-47721128D01*
X124563673Y-47773733D01*
X124357519Y-47869865D01*
X124171180Y-48000341D01*
X124010341Y-48161180D01*
X123879863Y-48347522D01*
X123852656Y-48405866D01*
X123806899Y-48458041D01*
X123740274Y-48477460D01*
X123673650Y-48458040D01*
X123627893Y-48405865D01*
X123600567Y-48347264D01*
X123470046Y-48160859D01*
X123309140Y-47999953D01*
X123122735Y-47869432D01*
X122916497Y-47773261D01*
X122696689Y-47714364D01*
X122470000Y-47694531D01*
X122243310Y-47714364D01*
X122023502Y-47773261D01*
X121817264Y-47869432D01*
X121630859Y-47999953D01*
X121469953Y-48160859D01*
X121339432Y-48347264D01*
X121243261Y-48553502D01*
X121184364Y-48773310D01*
X121164531Y-48999999D01*
X120000500Y-48999999D01*
X120000500Y-44077738D01*
X120015473Y-44018669D01*
X120056777Y-43973865D01*
X120114436Y-43954147D01*
X120174526Y-43964277D01*
X120222534Y-44001808D01*
X120246866Y-44057674D01*
X120264214Y-44163491D01*
X120271930Y-44210559D01*
X120367674Y-44555401D01*
X120500146Y-44887881D01*
X120667786Y-45204080D01*
X120868636Y-45500313D01*
X121100332Y-45773086D01*
X121360161Y-46019210D01*
X121645081Y-46235800D01*
X121951747Y-46420315D01*
X122276565Y-46570591D01*
X122615726Y-46684868D01*
X122965254Y-46761805D01*
X123286151Y-46796704D01*
X123321051Y-46800500D01*
X123321052Y-46800500D01*
X123678948Y-46800500D01*
X123678949Y-46800500D01*
X123710730Y-46797043D01*
X124034746Y-46761805D01*
X124384274Y-46684868D01*
X124723435Y-46570591D01*
X125048253Y-46420315D01*
X125354919Y-46235800D01*
X125639837Y-46019211D01*
X125899668Y-45773086D01*
X126131365Y-45500311D01*
X126332211Y-45204085D01*
X126424597Y-45029826D01*
X126499853Y-44887881D01*
X126632325Y-44555401D01*
X126728069Y-44210559D01*
X126728068Y-44210559D01*
X126728071Y-44210552D01*
X126785972Y-43857371D01*
X126790438Y-43775008D01*
X129969500Y-43775008D01*
X129980000Y-43877796D01*
X130035186Y-44044334D01*
X130127288Y-44193657D01*
X130251342Y-44317711D01*
X130251344Y-44317712D01*
X130400666Y-44409814D01*
X130512017Y-44446712D01*
X130567202Y-44464999D01*
X130577702Y-44466071D01*
X130669991Y-44475500D01*
X131970008Y-44475499D01*
X132072797Y-44464999D01*
X132239334Y-44409814D01*
X132388656Y-44317712D01*
X132512712Y-44193656D01*
X132604814Y-44044334D01*
X132604814Y-44044331D01*
X132608178Y-44038879D01*
X132647091Y-43999395D01*
X132699321Y-43980814D01*
X132754428Y-43986849D01*
X132801398Y-44016294D01*
X132948599Y-44163495D01*
X133142170Y-44299035D01*
X133356337Y-44398903D01*
X133584592Y-44460063D01*
X133820000Y-44480659D01*
X134055408Y-44460063D01*
X134283663Y-44398903D01*
X134497829Y-44299035D01*
X134691401Y-44163495D01*
X134858495Y-43996401D01*
X134968426Y-43839401D01*
X135012743Y-43800537D01*
X135070000Y-43786526D01*
X135127257Y-43800537D01*
X135171573Y-43839401D01*
X135281505Y-43996401D01*
X135448599Y-44163495D01*
X135642170Y-44299035D01*
X135856337Y-44398903D01*
X136084592Y-44460063D01*
X136320000Y-44480659D01*
X136555408Y-44460063D01*
X136783663Y-44398903D01*
X136997829Y-44299035D01*
X137191401Y-44163495D01*
X137358495Y-43996401D01*
X137468426Y-43839401D01*
X137512743Y-43800537D01*
X137570000Y-43786526D01*
X137627257Y-43800537D01*
X137671573Y-43839401D01*
X137781505Y-43996401D01*
X137948599Y-44163495D01*
X138142170Y-44299035D01*
X138356337Y-44398903D01*
X138584592Y-44460063D01*
X138820000Y-44480659D01*
X139055408Y-44460063D01*
X139283663Y-44398903D01*
X139497829Y-44299035D01*
X139691401Y-44163495D01*
X139858495Y-43996401D01*
X139994035Y-43802829D01*
X140007008Y-43775008D01*
X144799500Y-43775008D01*
X144810000Y-43877796D01*
X144865186Y-44044334D01*
X144957288Y-44193657D01*
X145081342Y-44317711D01*
X145081344Y-44317712D01*
X145230666Y-44409814D01*
X145342017Y-44446712D01*
X145397202Y-44464999D01*
X145407702Y-44466071D01*
X145499991Y-44475500D01*
X146800008Y-44475499D01*
X146902797Y-44464999D01*
X147069334Y-44409814D01*
X147218656Y-44317712D01*
X147342712Y-44193656D01*
X147434814Y-44044334D01*
X147434814Y-44044331D01*
X147438178Y-44038879D01*
X147477091Y-43999395D01*
X147529321Y-43980814D01*
X147584428Y-43986849D01*
X147631398Y-44016294D01*
X147778599Y-44163495D01*
X147972170Y-44299035D01*
X148186337Y-44398903D01*
X148414592Y-44460063D01*
X148650000Y-44480659D01*
X148885408Y-44460063D01*
X149113663Y-44398903D01*
X149327829Y-44299035D01*
X149521401Y-44163495D01*
X149688495Y-43996401D01*
X149798426Y-43839401D01*
X149842743Y-43800537D01*
X149900000Y-43786526D01*
X149957257Y-43800537D01*
X150001573Y-43839401D01*
X150111505Y-43996401D01*
X150278599Y-44163495D01*
X150472170Y-44299035D01*
X150686337Y-44398903D01*
X150914592Y-44460063D01*
X151150000Y-44480659D01*
X151385408Y-44460063D01*
X151613663Y-44398903D01*
X151827829Y-44299035D01*
X152021401Y-44163495D01*
X152188495Y-43996401D01*
X152298426Y-43839401D01*
X152342743Y-43800537D01*
X152400000Y-43786526D01*
X152457257Y-43800537D01*
X152501573Y-43839401D01*
X152611505Y-43996401D01*
X152778599Y-44163495D01*
X152972170Y-44299035D01*
X153186337Y-44398903D01*
X153414592Y-44460063D01*
X153650000Y-44480659D01*
X153885408Y-44460063D01*
X154113663Y-44398903D01*
X154327829Y-44299035D01*
X154521401Y-44163495D01*
X154688495Y-43996401D01*
X154824035Y-43802829D01*
X154923903Y-43588663D01*
X154985063Y-43360408D01*
X155000500Y-43183966D01*
X155000500Y-42816034D01*
X154985063Y-42639592D01*
X154923903Y-42411337D01*
X154824035Y-42197171D01*
X154688495Y-42003599D01*
X154521401Y-41836505D01*
X154327830Y-41700965D01*
X154113663Y-41601097D01*
X154052501Y-41584709D01*
X153885407Y-41539936D01*
X153650000Y-41519340D01*
X153414592Y-41539936D01*
X153186336Y-41601097D01*
X152972170Y-41700965D01*
X152778598Y-41836505D01*
X152611505Y-42003598D01*
X152501575Y-42160596D01*
X152457257Y-42199462D01*
X152400000Y-42213473D01*
X152342743Y-42199462D01*
X152298425Y-42160596D01*
X152264482Y-42112120D01*
X152188495Y-42003599D01*
X152021401Y-41836505D01*
X151827830Y-41700965D01*
X151613663Y-41601097D01*
X151552501Y-41584709D01*
X151385407Y-41539936D01*
X151150000Y-41519340D01*
X150914592Y-41539936D01*
X150686336Y-41601097D01*
X150472170Y-41700965D01*
X150278598Y-41836505D01*
X150111505Y-42003598D01*
X150001575Y-42160596D01*
X149957257Y-42199462D01*
X149900000Y-42213473D01*
X149842743Y-42199462D01*
X149798425Y-42160596D01*
X149764482Y-42112120D01*
X149688495Y-42003599D01*
X149521401Y-41836505D01*
X149327830Y-41700965D01*
X149113663Y-41601097D01*
X149052501Y-41584709D01*
X148885407Y-41539936D01*
X148650000Y-41519340D01*
X148414592Y-41539936D01*
X148186336Y-41601097D01*
X147972170Y-41700965D01*
X147778601Y-41836503D01*
X147631398Y-41983706D01*
X147584428Y-42013151D01*
X147529321Y-42019185D01*
X147477091Y-42000604D01*
X147438178Y-41961120D01*
X147342711Y-41806342D01*
X147218657Y-41682288D01*
X147069334Y-41590186D01*
X146902797Y-41535000D01*
X146800009Y-41524500D01*
X145499991Y-41524500D01*
X145397203Y-41535000D01*
X145230665Y-41590186D01*
X145081342Y-41682288D01*
X144957288Y-41806342D01*
X144865186Y-41955665D01*
X144810000Y-42122202D01*
X144799500Y-42224990D01*
X144799500Y-43775008D01*
X140007008Y-43775008D01*
X140093903Y-43588663D01*
X140155063Y-43360408D01*
X140170500Y-43183966D01*
X140170500Y-42816034D01*
X140155063Y-42639592D01*
X140093903Y-42411337D01*
X139994035Y-42197171D01*
X139858495Y-42003599D01*
X139691401Y-41836505D01*
X139497830Y-41700965D01*
X139283663Y-41601097D01*
X139222501Y-41584709D01*
X139055407Y-41539936D01*
X138820000Y-41519340D01*
X138584592Y-41539936D01*
X138356336Y-41601097D01*
X138142170Y-41700965D01*
X137948598Y-41836505D01*
X137781505Y-42003598D01*
X137671575Y-42160596D01*
X137627257Y-42199462D01*
X137570000Y-42213473D01*
X137512743Y-42199462D01*
X137468425Y-42160596D01*
X137434482Y-42112120D01*
X137358495Y-42003599D01*
X137191401Y-41836505D01*
X136997830Y-41700965D01*
X136783663Y-41601097D01*
X136722501Y-41584709D01*
X136555407Y-41539936D01*
X136320000Y-41519340D01*
X136084592Y-41539936D01*
X135856336Y-41601097D01*
X135642170Y-41700965D01*
X135448598Y-41836505D01*
X135281505Y-42003598D01*
X135171575Y-42160596D01*
X135127257Y-42199462D01*
X135070000Y-42213473D01*
X135012743Y-42199462D01*
X134968425Y-42160596D01*
X134934482Y-42112120D01*
X134858495Y-42003599D01*
X134691401Y-41836505D01*
X134497830Y-41700965D01*
X134283663Y-41601097D01*
X134222501Y-41584709D01*
X134055407Y-41539936D01*
X133820000Y-41519340D01*
X133584592Y-41539936D01*
X133356336Y-41601097D01*
X133142170Y-41700965D01*
X132948601Y-41836503D01*
X132801398Y-41983706D01*
X132754428Y-42013151D01*
X132699321Y-42019185D01*
X132647091Y-42000604D01*
X132608178Y-41961120D01*
X132512711Y-41806342D01*
X132388657Y-41682288D01*
X132239334Y-41590186D01*
X132072797Y-41535000D01*
X131970009Y-41524500D01*
X130669991Y-41524500D01*
X130567203Y-41535000D01*
X130400665Y-41590186D01*
X130251342Y-41682288D01*
X130127288Y-41806342D01*
X130035186Y-41955665D01*
X129980000Y-42122202D01*
X129969500Y-42224990D01*
X129969500Y-43775008D01*
X126790438Y-43775008D01*
X126805348Y-43500000D01*
X126785972Y-43142629D01*
X126728071Y-42789448D01*
X126686464Y-42639592D01*
X126632325Y-42444598D01*
X126499853Y-42112118D01*
X126332213Y-41795919D01*
X126332211Y-41795915D01*
X126131365Y-41499689D01*
X126131363Y-41499686D01*
X125899667Y-41226913D01*
X125639838Y-40980789D01*
X125354918Y-40764199D01*
X125048250Y-40579683D01*
X124723439Y-40429411D01*
X124723440Y-40429411D01*
X124723435Y-40429409D01*
X124384274Y-40315132D01*
X124384273Y-40315131D01*
X124384271Y-40315131D01*
X124173263Y-40268684D01*
X124068390Y-40245600D01*
X124014771Y-40219008D01*
X123979854Y-40170397D01*
X123971774Y-40111093D01*
X123992414Y-40054913D01*
X124036964Y-40014945D01*
X124095047Y-40000500D01*
X160904953Y-40000500D01*
X160963036Y-40014945D01*
G37*
%TD.AperFunction*%
%TD*%
M02*
