M48
; DRILL file {KiCad 7.0.1-0} date 2024 October 14, Monday 15:01:18
; FORMAT={-:-/ absolute / metric / decimal}
; #@! TF.CreationDate,2024-10-14T15:01:18+02:00
; #@! TF.GenerationSoftware,Kicad,Pcbnew,7.0.1-0
; #@! TF.FileFunction,Plated,1,2,PTH
FMAT,2
METRIC
; #@! TA.AperFunction,Plated,PTH,ViaDrill
T1C0.400
; #@! TA.AperFunction,Plated,PTH,ComponentDrill
T2C0.800
; #@! TA.AperFunction,Plated,PTH,ComponentDrill
T3C0.950
; #@! TA.AperFunction,Plated,PTH,ComponentDrill
T4C1.000
; #@! TA.AperFunction,Plated,PTH,ComponentDrill
T5C3.200
%
G90
G05
T1
X125.1Y-87.7
X128.3Y-81.425
X128.58Y-64.83
X132.7Y-87.7
X134.3Y-55.3
X137.0Y-79.5
X137.0Y-88.6
X142.61Y-51.11
X142.7Y-87.8
X150.2Y-87.7
X153.75Y-88.825
X156.8Y-55.3
X157.8Y-67.75
T2
X122.47Y-49.0
X122.47Y-61.7
X125.01Y-49.0
X125.01Y-61.7
X127.55Y-49.0
X127.55Y-61.7
X130.09Y-49.0
X130.09Y-61.7
X132.63Y-49.0
X132.63Y-61.7
X135.17Y-49.0
X135.17Y-61.7
X137.71Y-49.0
X137.71Y-61.7
X140.25Y-49.0
X140.25Y-61.7
X144.72Y-49.0
X144.72Y-61.7
X147.26Y-49.0
X147.26Y-61.7
X149.8Y-49.0
X149.8Y-61.7
X152.34Y-49.0
X152.34Y-61.7
X154.88Y-49.0
X154.88Y-61.7
X157.42Y-49.0
X157.42Y-61.7
X159.96Y-49.0
X159.96Y-61.7
X162.5Y-49.0
X162.5Y-61.7
T3
X123.725Y-66.5
X123.725Y-69.0
X123.725Y-71.5
X131.0Y-66.5
X131.0Y-69.0
X131.0Y-71.5
X131.32Y-43.0
X133.82Y-43.0
X136.32Y-43.0
X138.25Y-66.5
X138.25Y-69.0
X138.25Y-71.5
X138.82Y-43.0
X145.5Y-66.5
X145.5Y-69.0
X145.5Y-71.5
X146.15Y-43.0
X148.65Y-43.0
X151.15Y-43.0
X153.65Y-43.0
T4
X122.975Y-54.075
X122.975Y-56.615
X124.8Y-76.0
X124.8Y-91.24
X125.515Y-54.075
X125.515Y-56.615
X127.34Y-76.0
X127.34Y-91.24
X128.055Y-54.075
X128.055Y-56.615
X129.88Y-76.0
X129.88Y-91.24
X132.42Y-76.0
X132.42Y-91.24
X134.96Y-76.0
X134.96Y-91.24
X137.5Y-76.0
X137.5Y-91.24
X140.04Y-76.0
X140.04Y-91.24
X142.58Y-76.0
X142.58Y-91.24
X145.12Y-76.0
X145.12Y-91.24
X145.225Y-54.075
X145.225Y-56.615
X147.66Y-76.0
X147.66Y-91.24
X147.765Y-54.075
X147.765Y-56.615
X149.25Y-97.025
X150.2Y-76.0
X150.2Y-91.24
X150.305Y-54.075
X150.305Y-56.615
X151.75Y-97.025
X152.74Y-76.0
X152.74Y-91.24
X154.0Y-67.75
X154.0Y-70.25
X155.28Y-76.0
X155.28Y-91.24
X157.82Y-76.0
X157.82Y-91.24
X160.36Y-76.0
X160.36Y-91.24
X161.25Y-67.75
X161.25Y-70.25
T5
X123.5Y-43.5
X123.5Y-96.5
X161.5Y-43.5
X161.5Y-96.5
T0
M30
